SplineFontDB: 3.0
FontName: CheyenneSans-MediumItalic
FullName: Cheyenne Sans Medium Italic
FamilyName: Cheyenne Sans Medium
Weight: Medium
Version: 1.000; ttfautohint (v1.8.2)
ItalicAngle: -8
UnderlinePosition: -200
UnderlineWidth: 50
Ascent: 800
Descent: 200
InvalidEm: 0
sfntRevision: 0x00010000
LayerCount: 2
Layer: 0 1 "Back" 1
Layer: 1 1 "Fore" 0
XUID: [1021 788 582120202 4185811]
StyleMap: 0x0001
FSType: 0
OS2Version: 3
OS2_WeightWidthSlopeOnly: 0
OS2_UseTypoMetrics: 0
CreationTime: 1513572760
ModificationTime: 1545430208
PfmFamily: 81
TTFWeight: 500
TTFWidth: 5
LineGap: 0
VLineGap: 0
Panose: 0 0 6 0 0 0 0 0 0 0
OS2TypoAscent: 743
OS2TypoAOffset: 0
OS2TypoDescent: -161
OS2TypoDOffset: 0
OS2TypoLinegap: 0
OS2WinAscent: 822
OS2WinAOffset: 0
OS2WinDescent: 178
OS2WinDOffset: 0
HheadAscent: 822
HheadAOffset: 0
HheadDescent: -178
HheadDOffset: 0
OS2SubXSize: 650
OS2SubYSize: 600
OS2SubXOff: 0
OS2SubYOff: 75
OS2SupXSize: 650
OS2SupYSize: 600
OS2SupXOff: 0
OS2SupYOff: 350
OS2StrikeYSize: 50
OS2StrikeYPos: 310
OS2CapHeight: 723
OS2XHeight: 517
OS2Vendor: 'IMPA'
OS2CodePages: 20000193.00000000
OS2UnicodeRanges: 00000007.00000000.00000000.00000000
Lookup: 1 0 0 "'aalt' Access All Alternates in Latin lookup 0" { "'aalt' Access All Alternates in Latin lookup 0 subtable"  } ['aalt' ('DFLT' <'dflt' > 'latn' <'AZE ' 'CAT ' 'CRT ' 'KAZ ' 'MOL ' 'ROM ' 'TAT ' 'TRK ' 'dflt' > ) ]
Lookup: 3 0 0 "'aalt' Access All Alternates in Latin lookup 1" { "'aalt' Access All Alternates in Latin lookup 1 subtable"  } ['aalt' ('DFLT' <'dflt' > 'latn' <'AZE ' 'CAT ' 'CRT ' 'KAZ ' 'MOL ' 'ROM ' 'TAT ' 'TRK ' 'dflt' > ) ]
Lookup: 6 0 0 "'ccmp' Glyph Composition/Decomposition in Latin lookup 2" { "'ccmp' Glyph Composition/Decomposition in Latin lookup 2 contextual 0"  "'ccmp' Glyph Composition/Decomposition in Latin lookup 2 contextual 1"  } ['ccmp' ('DFLT' <'dflt' > 'latn' <'AZE ' 'CAT ' 'CRT ' 'KAZ ' 'MOL ' 'ROM ' 'TAT ' 'TRK ' 'dflt' > ) ]

StartChar: .notdef
Encoding: 65536 -1 0
Width: 677
Flags: W
LayerCount: 2
Fore
SplineSet
653 805 m 2,0,-1
 521 -133 l 2,1,2
 519 -148 519 -148 510.5 -154.5 c 128,-1,3
 502 -161 502 -161 485 -161 c 2,4,-1
 49 -161 l 2,5,6
 34 -161 34 -161 29 -155.5 c 128,-1,7
 24 -150 24 -150 26 -137 c 2,8,-1
 158 803 l 2,9,10
 160 814 160 814 165.5 820 c 128,-1,11
 171 826 171 826 180 826 c 2,12,-1
 639 826 l 2,13,14
 656 826 656 826 653 805 c 2,0,-1
594.5 772.5 m 128,-1,16
 591 777 591 777 584 777 c 2,17,-1
 240 777 l 1,18,-1
 482 -57 l 1,19,-1
 597 760 l 2,20,15
 598 768 598 768 594.5 772.5 c 128,-1,16
86 -107 m 128,-1,22
 90 -112 90 -112 102 -112 c 2,23,-1
 437 -112 l 1,24,-1
 197 716 l 1,25,-1
 83 -92 l 2,26,21
 82 -102 82 -102 86 -107 c 128,-1,22
EndSplineSet
EndChar

StartChar: exclam
Encoding: 33 33 4
Width: 257
GlyphClass: 2
Flags: W
LayerCount: 2
Fore
SplineSet
140 191 m 1,0,-1
 73 191 l 1,1,-1
 120 723 l 1,2,-1
 242 723 l 1,3,-1
 140 191 l 1,0,-1
138 0 m 1,4,-1
 20 0 l 1,5,-1
 37 124 l 1,6,-1
 155 124 l 1,7,-1
 138 0 l 1,4,-1
EndSplineSet
EndChar

StartChar: quotedbl
Encoding: 34 34 5
Width: 429
GlyphClass: 2
Flags: W
LayerCount: 2
Fore
SplineSet
366 481 m 1,0,-1
 310 481 l 1,1,-1
 313 723 l 1,2,-1
 432 723 l 1,3,-1
 366 481 l 1,0,-1
181 481 m 1,4,-1
 125 481 l 1,5,-1
 128 723 l 1,6,-1
 247 723 l 1,7,-1
 181 481 l 1,4,-1
EndSplineSet
EndChar

StartChar: numbersign
Encoding: 35 35 6
Width: 600
GlyphClass: 2
Flags: W
LayerCount: 2
Fore
SplineSet
463 438 m 1,0,-1
 420 293 l 1,1,-1
 527 293 l 1,2,-1
 519 233 l 1,3,-1
 403 233 l 1,4,-1
 335 -2 l 1,5,-1
 276 7 l 1,6,-1
 342 233 l 1,7,-1
 197 233 l 1,8,-1
 129 -2 l 1,9,-1
 69 7 l 1,10,-1
 135 233 l 1,11,-1
 19 233 l 1,12,-1
 27 293 l 1,13,-1
 152 293 l 1,14,-1
 196 438 l 1,15,-1
 80 438 l 1,16,-1
 88 498 l 1,17,-1
 213 498 l 1,18,-1
 279 724 l 1,19,-1
 338 718 l 1,20,-1
 274 498 l 1,21,-1
 419 498 l 1,22,-1
 485 724 l 1,23,-1
 544 718 l 1,24,-1
 480 498 l 1,25,-1
 588 498 l 1,26,-1
 580 438 l 1,27,-1
 463 438 l 1,0,-1
402 438 m 1,28,-1
 257 438 l 1,29,-1
 214 293 l 1,30,-1
 359 293 l 1,31,-1
 402 438 l 1,28,-1
EndSplineSet
EndChar

StartChar: dollar
Encoding: 36 36 7
Width: 614
GlyphClass: 2
Flags: W
LayerCount: 2
Fore
SplineSet
512 91.5 m 128,-1,1
 480 49 480 49 429 23 c 128,-1,2
 378 -3 378 -3 315 -6 c 0,3,4
 308 -7 308 -7 305 -9.5 c 128,-1,5
 302 -12 302 -12 301 -18 c 2,6,-1
 292 -83 l 1,7,-1
 220 -83 l 1,8,-1
 231 -7 l 1,9,10
 147 -4 147 -4 91.5 24.5 c 128,-1,11
 36 53 36 53 -3 111 c 1,12,-1
 68 171 l 1,13,14
 101 125 101 125 142 100.5 c 128,-1,15
 183 76 183 76 243 72 c 1,16,-1
 277 315 l 1,17,18
 160 352 160 352 116.5 401.5 c 128,-1,19
 73 451 73 451 84 528 c 0,20,21
 95 606 95 606 159 659 c 128,-1,22
 223 712 223 712 321 726 c 0,23,24
 326 727 326 727 331 730 c 128,-1,25
 336 733 336 733 337 738 c 2,26,-1
 344 793 l 1,27,-1
 414 793 l 1,28,-1
 405 729 l 1,29,30
 517 708 517 708 590 636 c 1,31,-1
 523 570 l 1,32,33
 506 596 506 596 474 616 c 128,-1,34
 442 636 442 636 404 644 c 1,35,-1
 401 645 l 2,36,37
 394 645 394 645 393 637 c 2,38,-1
 360 403 l 1,39,-1
 410 386 l 1,40,41
 570 323 570 323 551 188 c 0,42,0
 544 134 544 134 512 91.5 c 128,-1,1
326 647 m 1,43,44
 298 647 298 647 265.5 634 c 128,-1,45
 233 621 233 621 208 596 c 128,-1,46
 183 571 183 571 178 536 c 0,47,48
 171 487 171 487 204 461 c 128,-1,49
 237 435 237 435 292 417 c 1,50,-1
 326 647 l 1,43,44
411.5 104.5 m 128,-1,52
 451 134 451 134 457 177 c 128,-1,53
 463 220 463 220 437 249 c 128,-1,54
 411 278 411 278 345 301 c 1,55,-1
 313 72 l 1,56,51
 372 75 372 75 411.5 104.5 c 128,-1,52
EndSplineSet
EndChar

StartChar: percent
Encoding: 37 37 8
Width: 911
GlyphClass: 2
Flags: W
LayerCount: 2
Fore
SplineSet
368 708 m 128,-1,1
 404 682 404 682 419.5 635 c 128,-1,2
 435 588 435 588 426 527 c 128,-1,3
 417 466 417 466 388.5 419.5 c 128,-1,4
 360 373 360 373 317 347.5 c 128,-1,5
 274 322 274 322 225 322 c 0,6,7
 175 322 175 322 139 347.5 c 128,-1,8
 103 373 103 373 87 419.5 c 128,-1,9
 71 466 71 466 80 527 c 128,-1,10
 89 588 89 588 118 635 c 128,-1,11
 147 682 147 682 190.5 708 c 128,-1,12
 234 734 234 734 283 734 c 128,-1,0
 332 734 332 734 368 708 c 128,-1,1
212 -4 m 1,13,-1
 147 -3 l 1,14,-1
 737 731 l 1,15,-1
 802 731 l 1,16,-1
 212 -4 l 1,13,-1
308 418 m 128,-1,18
 338 458 338 458 348 527 c 128,-1,19
 358 596 358 596 338.5 637.5 c 128,-1,20
 319 679 319 679 274 679 c 128,-1,21
 229 679 229 679 198.5 637.5 c 128,-1,22
 168 596 168 596 158 527 c 128,-1,23
 148 458 148 458 167 418 c 128,-1,24
 186 378 186 378 232 378 c 128,-1,17
 278 378 278 378 308 418 c 128,-1,18
778 377 m 128,-1,26
 813 351 813 351 829 304 c 128,-1,27
 845 257 845 257 837 196 c 0,28,29
 828 135 828 135 799 88 c 128,-1,30
 770 41 770 41 727.5 15.5 c 128,-1,31
 685 -10 685 -10 635 -10 c 0,32,33
 586 -10 586 -10 550 15.5 c 128,-1,34
 514 41 514 41 498 88 c 128,-1,35
 482 135 482 135 491 196 c 0,36,37
 499 256 499 256 528 303.5 c 128,-1,38
 557 351 557 351 600.5 377 c 128,-1,39
 644 403 644 403 693 403 c 0,40,25
 743 403 743 403 778 377 c 128,-1,26
717.5 88 m 128,-1,42
 749 129 749 129 758 195 c 0,43,44
 768 263 768 263 748 305 c 128,-1,45
 728 347 728 347 684 347 c 128,-1,46
 640 347 640 347 609 305 c 128,-1,47
 578 263 578 263 568 195 c 0,48,49
 559 129 559 129 578.5 88 c 128,-1,50
 598 47 598 47 642 47 c 128,-1,41
 686 47 686 47 717.5 88 c 128,-1,42
EndSplineSet
EndChar

StartChar: ampersand
Encoding: 38 38 9
Width: 719
GlyphClass: 2
Flags: W
LayerCount: 2
Fore
SplineSet
473 714.5 m 128,-1,1
 517 695 517 695 539 660 c 128,-1,2
 561 625 561 625 554 579 c 0,3,4
 548 534 548 534 502.5 484 c 128,-1,5
 457 434 457 434 358 384 c 1,6,-1
 484 208 l 1,7,8
 508 239 508 239 533.5 287 c 128,-1,9
 559 335 559 335 571 393 c 1,10,-1
 672 393 l 1,11,12
 652 326 652 326 616 269.5 c 128,-1,13
 580 213 580 213 526 147 c 1,14,-1
 631 0 l 1,15,-1
 512 0 l 1,16,-1
 454 79 l 1,17,18
 340 -5 340 -5 216 -5 c 0,19,20
 110 -5 110 -5 60 46 c 128,-1,21
 10 97 10 97 22 182 c 0,22,23
 32 251 32 251 80.5 302.5 c 128,-1,24
 129 354 129 354 225 402 c 1,25,26
 186 451 186 451 170 489.5 c 128,-1,27
 154 528 154 528 161 573 c 0,28,29
 167 618 167 618 196.5 655 c 128,-1,30
 226 692 226 692 272.5 713 c 128,-1,31
 319 734 319 734 374 734 c 128,-1,0
 429 734 429 734 473 714.5 c 128,-1,1
298 641 m 128,-1,33
 269 616 269 616 264 580 c 0,34,35
 256 526 256 526 306 459 c 1,36,-1
 322 440 l 1,37,38
 397 480 397 480 427 511.5 c 128,-1,39
 457 543 457 543 462 576 c 0,40,41
 468 621 468 621 441.5 643.5 c 128,-1,42
 415 666 415 666 372 666 c 0,43,32
 327 666 327 666 298 641 c 128,-1,33
178 274.5 m 128,-1,45
 142 237 142 237 136 193 c 0,46,47
 129 140 129 140 163 108 c 128,-1,48
 197 76 197 76 250 76 c 0,49,50
 290 76 290 76 333.5 93.5 c 128,-1,51
 377 111 377 111 413 141 c 1,52,-1
 269 341 l 1,53,44
 214 312 214 312 178 274.5 c 128,-1,45
EndSplineSet
EndChar

StartChar: quotesingle
Encoding: 39 39 10
Width: 250
GlyphClass: 2
Flags: W
LayerCount: 2
Fore
SplineSet
174 481 m 1,0,-1
 118 481 l 1,1,-1
 121 723 l 1,2,-1
 240 723 l 1,3,-1
 174 481 l 1,0,-1
EndSplineSet
EndChar

StartChar: parenleft
Encoding: 40 40 11
Width: 306
GlyphClass: 2
Flags: W
LayerCount: 2
Fore
SplineSet
220 505.5 m 128,-1,1
 173 391 173 391 157 277 c 0,2,3
 142 167 142 167 154 61 c 128,-1,4
 166 -45 166 -45 204 -161 c 1,5,-1
 134 -161 l 1,6,7
 82 -46 82 -46 62.5 56 c 128,-1,8
 43 158 43 158 60 278 c 0,9,10
 77 397 77 397 131.5 511 c 128,-1,11
 186 625 186 625 266 723 c 1,12,-1
 336 723 l 1,13,0
 267 620 267 620 220 505.5 c 128,-1,1
EndSplineSet
EndChar

StartChar: parenright
Encoding: 41 41 12
Width: 306
GlyphClass: 2
Flags: W
LayerCount: 2
Fore
SplineSet
112 56.5 m 128,-1,1
 159 171 159 171 175 285 c 0,2,3
 190 395 190 395 178 501 c 128,-1,4
 166 607 166 607 128 723 c 1,5,-1
 198 723 l 1,6,7
 250 608 250 608 269.5 506 c 128,-1,8
 289 404 289 404 272 284 c 0,9,10
 255 165 255 165 200.5 51 c 128,-1,11
 146 -63 146 -63 66 -161 c 1,12,-1
 -4 -161 l 1,13,0
 65 -58 65 -58 112 56.5 c 128,-1,1
EndSplineSet
EndChar

StartChar: asterisk
Encoding: 42 42 13
Width: 408
GlyphClass: 2
Flags: W
LayerCount: 2
Fore
SplineSet
231 503 m 1,0,-1
 131 372 l 1,1,-1
 78 413 l 1,2,-1
 191 531 l 1,3,-1
 61 569 l 1,4,-1
 93 632 l 1,5,-1
 214 580 l 1,6,-1
 225 723 l 1,7,-1
 298 723 l 1,8,-1
 268 580 l 1,9,-1
 404 635 l 1,10,-1
 416 572 l 1,11,-1
 280 532 l 1,12,-1
 357 417 l 1,13,-1
 292 375 l 1,14,-1
 231 503 l 1,0,-1
EndSplineSet
EndChar

StartChar: plus
Encoding: 43 43 14
Width: 561
GlyphClass: 2
Flags: W
LayerCount: 2
Fore
SplineSet
498 325 m 1,0,-1
 318 325 l 1,1,-1
 292 144 l 1,2,-1
 214 144 l 1,3,-1
 240 324 l 1,4,-1
 59 324 l 1,5,-1
 69 402 l 1,6,-1
 250 402 l 1,7,-1
 276 583 l 1,8,-1
 354 583 l 1,9,-1
 329 403 l 1,10,-1
 509 403 l 1,11,-1
 498 325 l 1,0,-1
EndSplineSet
EndChar

StartChar: comma
Encoding: 44 44 15
Width: 244
GlyphClass: 2
Flags: W
LayerCount: 2
Fore
SplineSet
52 -2 m 1,0,-1
 7 0 l 1,1,-1
 23 117 l 1,2,-1
 145 117 l 1,3,-1
 131 15 l 1,4,-1
 23 -128 l 1,5,-1
 -22 -128 l 1,6,-1
 52 -2 l 1,0,-1
EndSplineSet
Substitution2: "'tnum' Tabular Numbers in Latin lookup 23 subtable" comma.tf
Substitution2: "'aalt' Access All Alternates in Latin lookup 0 subtable" comma.tf
EndChar

StartChar: hyphen
Encoding: 45 45 16
Width: 384
GlyphClass: 2
Flags: W
LayerCount: 2
Fore
SplineSet
303 219 m 1,0,-1
 46 218 l 1,1,-1
 57 297 l 1,2,-1
 314 298 l 1,3,-1
 303 219 l 1,0,-1
EndSplineSet
EndChar

StartChar: period
Encoding: 46 46 17
Width: 234
GlyphClass: 2
Flags: W
LayerCount: 2
Fore
SplineSet
128 0 m 1,0,-1
 8 0 l 1,1,-1
 26 125 l 1,2,-1
 146 125 l 1,3,-1
 128 0 l 1,0,-1
EndSplineSet
Substitution2: "'tnum' Tabular Numbers in Latin lookup 23 subtable" period.tf
Substitution2: "'aalt' Access All Alternates in Latin lookup 0 subtable" period.tf
EndChar

StartChar: slash
Encoding: 47 47 18
Width: 353
GlyphClass: 2
Flags: W
LayerCount: 2
Fore
SplineSet
317 723 m 1,0,-1
 395 723 l 1,1,-1
 37 -35 l 1,2,-1
 -40 -35 l 1,3,-1
 317 723 l 1,0,-1
EndSplineSet
Substitution2: "'frac' Diagonal Fractions in Latin lookup 16 subtable" fraction
Substitution2: "'aalt' Access All Alternates in Latin lookup 0 subtable" fraction
EndChar

StartChar: zero
Encoding: 48 48 19
Width: 643
GlyphClass: 2
Flags: W
LayerCount: 2
Fore
SplineSet
516 690 m 128,-1,1
 572 647 572 647 595.5 563 c 128,-1,2
 619 479 619 479 603 360 c 0,3,4
 586 241 586 241 539.5 158 c 128,-1,5
 493 75 493 75 424.5 33 c 128,-1,6
 356 -9 356 -9 274 -9 c 128,-1,7
 192 -9 192 -9 135.5 32.5 c 128,-1,8
 79 74 79 74 56 157 c 128,-1,9
 33 240 33 240 49 359 c 0,10,11
 66 479 66 479 113.5 563 c 128,-1,12
 161 647 161 647 229.5 690 c 128,-1,13
 298 733 298 733 379 733 c 128,-1,0
 460 733 460 733 516 690 c 128,-1,1
490 360 m 0,14,15
 511 508 511 508 477.5 578 c 128,-1,16
 444 648 444 648 367 648 c 128,-1,17
 290 648 290 648 236.5 577.5 c 128,-1,18
 183 507 183 507 163 360 c 0,19,20
 142 214 142 214 175.5 145.5 c 128,-1,21
 209 77 209 77 287 77 c 0,22,23
 450 77 450 77 490 360 c 0,14,15
EndSplineSet
Substitution2: "'onum' Oldstyle Figures in Latin lookup 24 subtable" zero.osf
Substitution2: "'tnum' Tabular Numbers in Latin lookup 23 subtable" zero.tf
Substitution2: "'frac' Diagonal Fractions in Latin lookup 17 subtable" zero.numr
Substitution2: "'dnom' Denominators in Latin lookup 15 subtable" zero.dnom
Substitution2: "'numr' Numerators in Latin lookup 14 subtable" zero.numr
Substitution2: "'sups' Superscript in Latin lookup 13 subtable" uni2070
Substitution2: "'sinf' Scientific Inferiors in Latin lookup 12 subtable" zero.subs
Substitution2: "'subs' Subscript in Latin lookup 11 subtable" zero.subs
AlternateSubs2: "'aalt' Access All Alternates in Latin lookup 1 subtable" zero.subs uni2070 zero.numr zero.dnom zero.tf zero.osf
EndChar

StartChar: one
Encoding: 49 49 20
Width: 390
GlyphClass: 2
Flags: W
LayerCount: 2
Fore
SplineSet
209 605 m 1,0,-1
 65 558 l 1,1,-1
 76 634 l 1,2,-1
 268 723 l 1,3,-1
 331 723 l 1,4,-1
 229 0 l 1,5,-1
 124 0 l 1,6,-1
 209 605 l 1,0,-1
EndSplineSet
Substitution2: "'onum' Oldstyle Figures in Latin lookup 24 subtable" one.osf
Substitution2: "'tnum' Tabular Numbers in Latin lookup 23 subtable" one.tf
Substitution2: "'frac' Diagonal Fractions in Latin lookup 17 subtable" one.numr
Substitution2: "'dnom' Denominators in Latin lookup 15 subtable" one.dnom
Substitution2: "'numr' Numerators in Latin lookup 14 subtable" one.numr
Substitution2: "'sups' Superscript in Latin lookup 13 subtable" uni00B9
Substitution2: "'sinf' Scientific Inferiors in Latin lookup 12 subtable" one.subs
Substitution2: "'subs' Subscript in Latin lookup 11 subtable" one.subs
AlternateSubs2: "'aalt' Access All Alternates in Latin lookup 1 subtable" one.subs uni00B9 one.numr one.dnom one.tf one.osf
EndChar

StartChar: two
Encoding: 50 50 21
Width: 586
GlyphClass: 2
Flags: W
LayerCount: 2
Fore
SplineSet
7 85 m 1,0,-1
 270 306 l 2,1,2
 338 362 338 362 374.5 397 c 128,-1,3
 411 432 411 432 429 461.5 c 128,-1,4
 447 491 447 491 452 525 c 0,5,6
 460 583 460 583 424 613.5 c 128,-1,7
 388 644 388 644 335 644 c 0,8,9
 283 644 283 644 236 619 c 128,-1,10
 189 594 189 594 159 541 c 1,11,-1
 68 558 l 1,12,13
 105 641 105 641 177 687 c 128,-1,14
 249 733 249 733 351 733 c 0,15,16
 420 733 420 733 470.5 708.5 c 128,-1,17
 521 684 521 684 544.5 637.5 c 128,-1,18
 568 591 568 591 559 527 c 0,19,20
 553 485 553 485 533.5 449.5 c 128,-1,21
 514 414 514 414 477.5 375.5 c 128,-1,22
 441 337 441 337 376 280 c 2,23,-1
 156 89 l 1,24,-1
 506 89 l 1,25,-1
 493 0 l 1,26,-1
 -5 0 l 1,27,-1
 7 85 l 1,0,-1
EndSplineSet
Substitution2: "'onum' Oldstyle Figures in Latin lookup 24 subtable" two.osf
Substitution2: "'tnum' Tabular Numbers in Latin lookup 23 subtable" two.tf
Substitution2: "'frac' Diagonal Fractions in Latin lookup 17 subtable" two.numr
Substitution2: "'dnom' Denominators in Latin lookup 15 subtable" two.dnom
Substitution2: "'numr' Numerators in Latin lookup 14 subtable" two.numr
Substitution2: "'sups' Superscript in Latin lookup 13 subtable" uni00B2
Substitution2: "'sinf' Scientific Inferiors in Latin lookup 12 subtable" two.subs
Substitution2: "'subs' Subscript in Latin lookup 11 subtable" two.subs
AlternateSubs2: "'aalt' Access All Alternates in Latin lookup 1 subtable" two.subs uni00B2 two.numr two.dnom two.tf two.osf
EndChar

StartChar: three
Encoding: 51 51 22
Width: 641
GlyphClass: 2
Flags: W
LayerCount: 2
Fore
SplineSet
200.5 694.5 m 128,-1,1
 279 733 279 733 376 733 c 0,2,3
 449 733 449 733 503.5 709 c 128,-1,4
 558 685 558 685 584.5 643 c 128,-1,5
 611 601 611 601 604 548 c 0,6,7
 588 434 588 434 443 386 c 1,8,9
 513 366 513 366 550.5 318.5 c 128,-1,10
 588 271 588 271 579 203 c 0,11,12
 570 141 570 141 525.5 92.5 c 128,-1,13
 481 44 481 44 412.5 17 c 128,-1,14
 344 -10 344 -10 264 -10 c 0,15,16
 157 -10 157 -10 94 26 c 128,-1,17
 31 62 31 62 14 149 c 1,18,-1
 109 166 l 1,19,20
 149 76 149 76 273 76 c 0,21,22
 352 76 352 76 404 111 c 128,-1,23
 456 146 456 146 463 201 c 0,24,25
 469 241 469 241 450 271 c 128,-1,26
 431 301 431 301 395 317 c 128,-1,27
 359 333 359 333 314 333 c 2,28,-1
 217 334 l 1,29,-1
 229 418 l 1,30,-1
 311 420 l 2,31,32
 357 420 357 420 397.5 436.5 c 128,-1,33
 438 453 438 453 463 480 c 128,-1,34
 488 507 488 507 493 541 c 0,35,36
 500 588 500 588 461.5 618.5 c 128,-1,37
 423 649 423 649 362 649 c 0,38,39
 302 649 302 649 256.5 628 c 128,-1,40
 211 607 211 607 182 559 c 1,41,-1
 92 577 l 1,42,0
 122 656 122 656 200.5 694.5 c 128,-1,1
EndSplineSet
Substitution2: "'onum' Oldstyle Figures in Latin lookup 24 subtable" three.osf
Substitution2: "'tnum' Tabular Numbers in Latin lookup 23 subtable" three.tf
Substitution2: "'frac' Diagonal Fractions in Latin lookup 17 subtable" three.numr
Substitution2: "'dnom' Denominators in Latin lookup 15 subtable" three.dnom
Substitution2: "'numr' Numerators in Latin lookup 14 subtable" three.numr
Substitution2: "'sups' Superscript in Latin lookup 13 subtable" uni00B3
Substitution2: "'sinf' Scientific Inferiors in Latin lookup 12 subtable" three.subs
Substitution2: "'subs' Subscript in Latin lookup 11 subtable" three.subs
AlternateSubs2: "'aalt' Access All Alternates in Latin lookup 1 subtable" three.subs uni00B3 three.numr three.dnom three.tf three.osf
EndChar

StartChar: four
Encoding: 52 52 23
Width: 622
GlyphClass: 2
Flags: W
LayerCount: 2
Fore
SplineSet
533 723 m 1,0,-1
 469 271 l 1,1,-1
 580 271 l 1,2,-1
 567 180 l 1,3,-1
 456 180 l 1,4,-1
 431 0 l 1,5,-1
 328 0 l 1,6,-1
 354 180 l 1,7,-1
 19 180 l 1,8,-1
 32 273 l 1,9,-1
 429 723 l 1,10,-1
 533 723 l 1,0,-1
365 271 m 1,11,-1
 408 576 l 1,12,-1
 139 271 l 1,13,-1
 365 271 l 1,11,-1
EndSplineSet
Substitution2: "'onum' Oldstyle Figures in Latin lookup 24 subtable" four.osf
Substitution2: "'tnum' Tabular Numbers in Latin lookup 23 subtable" four.tf
Substitution2: "'frac' Diagonal Fractions in Latin lookup 17 subtable" four.numr
Substitution2: "'dnom' Denominators in Latin lookup 15 subtable" four.dnom
Substitution2: "'numr' Numerators in Latin lookup 14 subtable" four.numr
Substitution2: "'sups' Superscript in Latin lookup 13 subtable" uni2074
Substitution2: "'sinf' Scientific Inferiors in Latin lookup 12 subtable" four.subs
Substitution2: "'subs' Subscript in Latin lookup 11 subtable" four.subs
AlternateSubs2: "'aalt' Access All Alternates in Latin lookup 1 subtable" four.subs uni2074 four.numr four.dnom four.tf four.osf
EndChar

StartChar: five
Encoding: 53 53 24
Width: 651
GlyphClass: 2
Flags: W
LayerCount: 2
Fore
SplineSet
615 723 m 1,0,-1
 596 636 l 1,1,-1
 245 636 l 1,2,-1
 196 413 l 1,3,4
 252 438 252 438 288 449 c 128,-1,5
 324 460 324 460 371 460 c 0,6,7
 440 460 440 460 492.5 435.5 c 128,-1,8
 545 411 545 411 570.5 360.5 c 128,-1,9
 596 310 596 310 585 237 c 0,10,11
 574 160 574 160 531 104.5 c 128,-1,12
 488 49 488 49 420.5 19.5 c 128,-1,13
 353 -10 353 -10 270 -10 c 128,-1,14
 187 -10 187 -10 120 22 c 128,-1,15
 53 54 53 54 15 111 c 1,16,-1
 99 168 l 1,17,18
 139 120 139 120 174.5 97.5 c 128,-1,19
 210 75 210 75 269 75 c 0,20,21
 354 75 354 75 408.5 119 c 128,-1,22
 463 163 463 163 473 233 c 0,23,24
 483 301 483 301 444.5 337.5 c 128,-1,25
 406 374 406 374 337 374 c 0,26,27
 296 374 296 374 260.5 361.5 c 128,-1,28
 225 349 225 349 174 323 c 0,29,30
 166 319 166 319 165 319 c 0,31,32
 163 319 163 319 156 324 c 2,33,-1
 91 363 l 1,34,-1
 172 723 l 1,35,-1
 615 723 l 1,0,-1
EndSplineSet
Substitution2: "'onum' Oldstyle Figures in Latin lookup 24 subtable" five.osf
Substitution2: "'tnum' Tabular Numbers in Latin lookup 23 subtable" five.tf
Substitution2: "'frac' Diagonal Fractions in Latin lookup 17 subtable" five.numr
Substitution2: "'dnom' Denominators in Latin lookup 15 subtable" five.dnom
Substitution2: "'numr' Numerators in Latin lookup 14 subtable" five.numr
Substitution2: "'sups' Superscript in Latin lookup 13 subtable" uni2075
Substitution2: "'sinf' Scientific Inferiors in Latin lookup 12 subtable" five.subs
Substitution2: "'subs' Subscript in Latin lookup 11 subtable" five.subs
AlternateSubs2: "'aalt' Access All Alternates in Latin lookup 1 subtable" five.subs uni2075 five.numr five.dnom five.tf five.osf
EndChar

StartChar: six
Encoding: 54 54 25
Width: 621
GlyphClass: 2
Flags: W
LayerCount: 2
Fore
SplineSet
542 689.5 m 128,-1,1
 598 647 598 647 603 577 c 1,2,-1
 512 559 l 1,3,4
 494 603 494 603 466.5 625.5 c 128,-1,5
 439 648 439 648 386 648 c 0,6,7
 300 648 300 648 241.5 574.5 c 128,-1,8
 183 501 183 501 164 367 c 0,9,10
 160 339 160 339 160 325 c 1,11,12
 188 376 188 376 242.5 405 c 128,-1,13
 297 434 297 434 359 434 c 0,14,15
 432 434 432 434 480.5 405.5 c 128,-1,16
 529 377 529 377 550 328 c 128,-1,17
 571 279 571 279 562 218 c 0,18,19
 552 150 552 150 512 98.5 c 128,-1,20
 472 47 472 47 410 18.5 c 128,-1,21
 348 -10 348 -10 275 -10 c 0,22,23
 189 -10 189 -10 132.5 33 c 128,-1,24
 76 76 76 76 54 157 c 128,-1,25
 32 238 32 238 48 349 c 0,26,27
 65 468 65 468 112 554 c 128,-1,28
 159 640 159 640 232 686 c 128,-1,29
 305 732 305 732 396 732 c 0,30,0
 486 732 486 732 542 689.5 c 128,-1,1
251 338 m 128,-1,32
 213 323 213 323 188 296 c 128,-1,33
 163 269 163 269 158 235 c 1,34,35
 158 154 158 154 190.5 113 c 128,-1,36
 223 72 223 72 285 72 c 0,37,38
 348 72 348 72 396 111.5 c 128,-1,39
 444 151 444 151 453 213 c 0,40,41
 462 274 462 274 427.5 313.5 c 128,-1,42
 393 353 393 353 330 353 c 0,43,31
 289 353 289 353 251 338 c 128,-1,32
EndSplineSet
Substitution2: "'onum' Oldstyle Figures in Latin lookup 24 subtable" six.osf
Substitution2: "'tnum' Tabular Numbers in Latin lookup 23 subtable" six.tf
Substitution2: "'frac' Diagonal Fractions in Latin lookup 17 subtable" six.numr
Substitution2: "'dnom' Denominators in Latin lookup 15 subtable" six.dnom
Substitution2: "'numr' Numerators in Latin lookup 14 subtable" six.numr
Substitution2: "'sups' Superscript in Latin lookup 13 subtable" uni2076
Substitution2: "'sinf' Scientific Inferiors in Latin lookup 12 subtable" six.subs
Substitution2: "'subs' Subscript in Latin lookup 11 subtable" six.subs
AlternateSubs2: "'aalt' Access All Alternates in Latin lookup 1 subtable" six.subs uni2076 six.numr six.dnom six.tf six.osf
EndChar

StartChar: seven
Encoding: 55 55 26
Width: 576
GlyphClass: 2
Flags: W
LayerCount: 2
Fore
SplineSet
604 723 m 1,0,-1
 589 618 l 1,1,2
 515 534 515 534 438 418 c 128,-1,3
 361 302 361 302 304.5 188.5 c 128,-1,4
 248 75 248 75 230 0 c 1,5,-1
 117 0 l 1,6,7
 138 73 138 73 187 178.5 c 128,-1,8
 236 284 236 284 312.5 405 c 128,-1,9
 389 526 389 526 486 636 c 1,10,-1
 76 636 l 1,11,-1
 89 723 l 1,12,-1
 604 723 l 1,0,-1
EndSplineSet
Substitution2: "'onum' Oldstyle Figures in Latin lookup 24 subtable" seven.osf
Substitution2: "'tnum' Tabular Numbers in Latin lookup 23 subtable" seven.tf
Substitution2: "'frac' Diagonal Fractions in Latin lookup 17 subtable" seven.numr
Substitution2: "'dnom' Denominators in Latin lookup 15 subtable" seven.dnom
Substitution2: "'numr' Numerators in Latin lookup 14 subtable" seven.numr
Substitution2: "'sups' Superscript in Latin lookup 13 subtable" uni2077
Substitution2: "'sinf' Scientific Inferiors in Latin lookup 12 subtable" seven.subs
Substitution2: "'subs' Subscript in Latin lookup 11 subtable" seven.subs
AlternateSubs2: "'aalt' Access All Alternates in Latin lookup 1 subtable" seven.subs uni2077 seven.numr seven.dnom seven.tf seven.osf
EndChar

StartChar: eight
Encoding: 56 56 27
Width: 625
GlyphClass: 2
Flags: W
LayerCount: 2
Fore
SplineSet
492 707.5 m 128,-1,1
 544 682 544 682 568.5 636.5 c 128,-1,2
 593 591 593 591 585 533 c 0,3,4
 576 468 576 468 532.5 430 c 128,-1,5
 489 392 489 392 450 375 c 1,6,7
 455 373 455 373 493 356 c 128,-1,8
 531 339 531 339 554.5 296.5 c 128,-1,9
 578 254 578 254 570 196 c 0,10,11
 561 133 561 133 519.5 86.5 c 128,-1,12
 478 40 478 40 411 15 c 128,-1,13
 344 -10 344 -10 260 -10 c 0,14,15
 136 -10 136 -10 71 40 c 128,-1,16
 6 90 6 90 18 179 c 0,17,18
 26 233 26 233 66.5 279.5 c 128,-1,19
 107 326 107 326 177 356 c 1,20,21
 70 410 70 410 85 520 c 0,22,23
 93 579 93 579 132 627.5 c 128,-1,24
 171 676 171 676 232.5 704.5 c 128,-1,25
 294 733 294 733 368 733 c 0,26,0
 440 733 440 733 492 707.5 c 128,-1,1
250 617 m 128,-1,28
 204 583 204 583 197 531 c 0,29,30
 192 492 192 492 211 466 c 128,-1,31
 230 440 230 440 273 430 c 2,32,-1
 363 406 l 2,33,34
 380 402 380 402 408.5 420.5 c 128,-1,35
 437 439 437 439 459.5 470.5 c 128,-1,36
 482 502 482 502 486 533 c 0,37,38
 493 586 493 586 458.5 618.5 c 128,-1,39
 424 651 424 651 357 651 c 0,40,27
 296 651 296 651 250 617 c 128,-1,28
400 104 m 128,-1,42
 448 136 448 136 456 189 c 0,43,44
 462 230 462 230 443 256 c 128,-1,45
 424 282 424 282 374 295 c 2,46,-1
 263 325 l 2,47,48
 260 326 260 326 254 326 c 0,49,50
 233 326 233 326 203 308 c 128,-1,51
 173 290 173 290 149.5 260 c 128,-1,52
 126 230 126 230 121 194 c 0,53,54
 113 136 113 136 153 104 c 128,-1,55
 193 72 193 72 277 72 c 0,56,41
 352 72 352 72 400 104 c 128,-1,42
EndSplineSet
Substitution2: "'onum' Oldstyle Figures in Latin lookup 24 subtable" eight.osf
Substitution2: "'tnum' Tabular Numbers in Latin lookup 23 subtable" eight.tf
Substitution2: "'frac' Diagonal Fractions in Latin lookup 17 subtable" eight.numr
Substitution2: "'dnom' Denominators in Latin lookup 15 subtable" eight.dnom
Substitution2: "'numr' Numerators in Latin lookup 14 subtable" eight.numr
Substitution2: "'sups' Superscript in Latin lookup 13 subtable" uni2078
Substitution2: "'sinf' Scientific Inferiors in Latin lookup 12 subtable" eight.subs
Substitution2: "'subs' Subscript in Latin lookup 11 subtable" eight.subs
AlternateSubs2: "'aalt' Access All Alternates in Latin lookup 1 subtable" eight.subs uni2078 eight.numr eight.dnom eight.tf eight.osf
EndChar

StartChar: nine
Encoding: 57 57 28
Width: 621
GlyphClass: 2
Flags: W
LayerCount: 2
Fore
SplineSet
87.5 34 m 128,-1,1
 31 77 31 77 25 146 c 1,2,-1
 118 164 l 1,3,4
 133 121 133 121 161 98 c 128,-1,5
 189 75 189 75 242 75 c 0,6,7
 333 75 333 75 394 147 c 128,-1,8
 455 219 455 219 475 363 c 0,9,10
 479 388 479 388 479 401 c 1,11,12
 451 347 451 347 396.5 315.5 c 128,-1,13
 342 284 342 284 275 284 c 0,14,15
 203 284 203 284 152.5 313 c 128,-1,16
 102 342 102 342 80 392.5 c 128,-1,17
 58 443 58 443 67 506 c 0,18,19
 76 573 76 573 116.5 624.5 c 128,-1,20
 157 676 157 676 219 704 c 128,-1,21
 281 732 281 732 354 732 c 0,22,23
 441 732 441 732 497.5 689.5 c 128,-1,24
 554 647 554 647 576 566.5 c 128,-1,25
 598 486 598 486 583 374 c 0,26,27
 557 188 557 188 465 89.5 c 128,-1,28
 373 -9 373 -9 233 -9 c 0,29,0
 144 -9 144 -9 87.5 34 c 128,-1,1
378 385 m 128,-1,31
 416 401 416 401 442 428.5 c 128,-1,32
 468 456 468 456 473 488 c 1,33,34
 472 569 472 569 438.5 610 c 128,-1,35
 405 651 405 651 344 651 c 0,36,37
 281 651 281 651 235 611.5 c 128,-1,38
 189 572 189 572 181 510 c 0,39,40
 173 451 173 451 205.5 410 c 128,-1,41
 238 369 238 369 300 369 c 0,42,30
 340 369 340 369 378 385 c 128,-1,31
EndSplineSet
Substitution2: "'onum' Oldstyle Figures in Latin lookup 24 subtable" nine.osf
Substitution2: "'tnum' Tabular Numbers in Latin lookup 23 subtable" nine.tf
Substitution2: "'frac' Diagonal Fractions in Latin lookup 17 subtable" nine.numr
Substitution2: "'dnom' Denominators in Latin lookup 15 subtable" nine.dnom
Substitution2: "'numr' Numerators in Latin lookup 14 subtable" nine.numr
Substitution2: "'sups' Superscript in Latin lookup 13 subtable" uni2079
Substitution2: "'sinf' Scientific Inferiors in Latin lookup 12 subtable" nine.subs
Substitution2: "'subs' Subscript in Latin lookup 11 subtable" nine.subs
AlternateSubs2: "'aalt' Access All Alternates in Latin lookup 1 subtable" nine.subs uni2079 nine.numr nine.dnom nine.tf nine.osf
EndChar

StartChar: colon
Encoding: 58 58 29
Width: 234
GlyphClass: 2
Flags: W
LayerCount: 2
Fore
SplineSet
180 373 m 1,0,-1
 60 373 l 1,1,-1
 78 498 l 1,2,-1
 198 498 l 1,3,-1
 180 373 l 1,0,-1
128 3 m 1,4,-1
 8 3 l 1,5,-1
 26 127 l 1,6,-1
 146 127 l 1,7,-1
 128 3 l 1,4,-1
EndSplineSet
EndChar

StartChar: semicolon
Encoding: 59 59 30
Width: 253
GlyphClass: 2
Flags: W
LayerCount: 2
Fore
SplineSet
79 497 m 1,0,-1
 199 497 l 1,1,-1
 181 371 l 1,2,-1
 61 371 l 1,3,-1
 79 497 l 1,0,-1
57 0 m 1,4,-1
 12 0 l 1,5,-1
 29 124 l 1,6,-1
 149 124 l 1,7,-1
 134 14 l 1,8,-1
 22 -145 l 1,9,-1
 -21 -145 l 1,10,-1
 57 0 l 1,4,-1
EndSplineSet
EndChar

StartChar: less
Encoding: 60 60 31
Width: 556
GlyphClass: 2
Flags: W
LayerCount: 2
Fore
SplineSet
456 133 m 1,0,-1
 50 300 l 1,1,-1
 63 391 l 1,2,-1
 517 560 l 1,3,-1
 503 466 l 1,4,-1
 175 345 l 1,5,-1
 469 225 l 1,6,-1
 456 133 l 1,0,-1
EndSplineSet
EndChar

StartChar: equal
Encoding: 61 61 32
Width: 561
GlyphClass: 2
Flags: W
LayerCount: 2
Fore
SplineSet
511 421 m 1,0,-1
 72 420 l 1,1,-1
 83 499 l 1,2,-1
 522 499 l 1,3,-1
 511 421 l 1,0,-1
480 198 m 1,4,-1
 41 197 l 1,5,-1
 52 275 l 1,6,-1
 491 276 l 1,7,-1
 480 198 l 1,4,-1
EndSplineSet
EndChar

StartChar: greater
Encoding: 62 62 33
Width: 556
GlyphClass: 2
Flags: W
LayerCount: 2
Fore
SplineSet
380 345 m 1,0,-1
 87 466 l 1,1,-1
 101 560 l 1,2,-1
 506 391 l 1,3,-1
 493 300 l 1,4,-1
 41 133 l 1,5,-1
 54 225 l 1,6,-1
 380 345 l 1,0,-1
EndSplineSet
EndChar

StartChar: question
Encoding: 63 63 34
Width: 521
GlyphClass: 2
Flags: W
LayerCount: 2
Fore
SplineSet
168 694 m 128,-1,1
 237 733 237 733 319 733 c 0,2,3
 386 733 386 733 433.5 711 c 128,-1,4
 481 689 481 689 503.5 649.5 c 128,-1,5
 526 610 526 610 519 560 c 0,6,7
 511 504 511 504 480.5 464.5 c 128,-1,8
 450 425 450 425 393 375 c 0,9,10
 355 342 355 342 332.5 318 c 128,-1,11
 310 294 310 294 292 262.5 c 128,-1,12
 274 231 274 231 269 193 c 1,13,-1
 183 193 l 1,14,15
 190 241 190 241 210 280 c 128,-1,16
 230 319 230 319 254.5 346.5 c 128,-1,17
 279 374 279 374 317 412 c 0,18,19
 363 457 363 457 386 487 c 128,-1,20
 409 517 409 517 414 556 c 0,21,22
 420 602 420 602 390.5 629.5 c 128,-1,23
 361 657 361 657 307 657 c 0,24,25
 259 657 259 657 212 629 c 128,-1,26
 165 601 165 601 144 559 c 1,27,-1
 57 585 l 1,28,0
 99 655 99 655 168 694 c 128,-1,1
259 0 m 1,29,-1
 140 0 l 1,30,-1
 157 124 l 1,31,-1
 276 124 l 1,32,-1
 259 0 l 1,29,-1
EndSplineSet
EndChar

StartChar: at
Encoding: 64 64 35
Width: 823
GlyphClass: 2
Flags: W
LayerCount: 2
Fore
SplineSet
495.5 -90 m 128,-1,1
 433 -110 433 -110 364 -110 c 0,2,3
 248 -110 248 -110 169 -61.5 c 128,-1,4
 90 -13 90 -13 56.5 70 c 128,-1,5
 23 153 23 153 37 254 c 0,6,7
 52 360 52 360 114 449 c 128,-1,8
 176 538 176 538 273 591 c 128,-1,9
 370 644 370 644 486 644 c 0,10,11
 576 644 576 644 650 610 c 128,-1,12
 724 576 724 576 763.5 505.5 c 128,-1,13
 803 435 803 435 789 331 c 0,14,15
 779 258 779 258 746 200.5 c 128,-1,16
 713 143 713 143 665 111 c 128,-1,17
 617 79 617 79 563 79 c 0,18,19
 491 79 491 79 480 129 c 0,20,21
 480 136 480 136 477 136 c 0,22,23
 475 136 475 136 469 130 c 0,24,25
 409 65 409 65 326 65 c 0,26,27
 287 65 287 65 258 86.5 c 128,-1,28
 229 108 229 108 215.5 147 c 128,-1,29
 202 186 202 186 209 237 c 0,30,31
 218 298 218 298 249.5 350 c 128,-1,32
 281 402 281 402 329 432.5 c 128,-1,33
 377 463 377 463 432 463 c 0,34,35
 504 463 504 463 535 405 c 0,36,37
 537 403 537 403 539 403.5 c 128,-1,38
 541 404 541 404 542 408 c 2,39,-1
 554 438 l 1,40,-1
 621 438 l 1,41,-1
 552 217 l 2,42,43
 547 201 547 201 546 189 c 0,44,45
 540 145 540 145 578 145 c 0,46,47
 608 145 608 145 636.5 166.5 c 128,-1,48
 665 188 665 188 686 229 c 128,-1,49
 707 270 707 270 715 325 c 0,50,51
 728 414 728 414 696.5 471 c 128,-1,52
 665 528 665 528 607 554 c 128,-1,53
 549 580 549 580 477 580 c 0,54,55
 375 580 375 580 296 536.5 c 128,-1,56
 217 493 217 493 169 418.5 c 128,-1,57
 121 344 121 344 109 254 c 0,58,59
 97 166 97 166 124.5 97.5 c 128,-1,60
 152 29 152 29 218.5 -9.5 c 128,-1,61
 285 -48 285 -48 386 -48 c 0,62,63
 447 -48 447 -48 485.5 -33.5 c 128,-1,64
 524 -19 524 -19 578 14 c 1,65,-1
 608 -35 l 1,66,0
 558 -70 558 -70 495.5 -90 c 128,-1,1
300.5 164.5 m 128,-1,68
 317 135 317 135 353 135 c 0,69,70
 387 135 387 135 418 157 c 128,-1,71
 449 179 449 179 470.5 214.5 c 128,-1,72
 492 250 492 250 498 289 c 0,73,74
 505 338 505 338 484 366 c 128,-1,75
 463 394 463 394 428 394 c 0,76,77
 378 394 378 394 339 350.5 c 128,-1,78
 300 307 300 307 291 244 c 0,79,67
 284 194 284 194 300.5 164.5 c 128,-1,68
EndSplineSet
EndChar

StartChar: A
Encoding: 65 65 36
Width: 700
GlyphClass: 2
Flags: W
AnchorPoint: "Anchor-5" -46 0 basechar 0
AnchorPoint: "Anchor-4" -46 0 basechar 0
AnchorPoint: "Anchor-3" 310 723 basechar 0
AnchorPoint: "Anchor-2" 617 10 basechar 0
LayerCount: 2
Fore
SplineSet
350 723 m 1,0,-1
 463 723 l 1,1,-1
 622 0 l 1,2,-1
 519 0 l 1,3,-1
 477 192 l 1,4,-1
 188 192 l 1,5,-1
 90 0 l 1,6,-1
 -13 0 l 1,7,-1
 350 723 l 1,0,-1
463 285 m 1,8,-1
 393 623 l 1,9,-1
 226 285 l 1,10,-1
 463 285 l 1,8,-1
EndSplineSet
Substitution2: "Single Substitution lookup 30 subtable" ordfeminine
Substitution2: "'aalt' Access All Alternates in Latin lookup 0 subtable" ordfeminine
EndChar

StartChar: B
Encoding: 66 66 37
Width: 672
GlyphClass: 2
Flags: W
LayerCount: 2
Fore
SplineSet
147 723 m 1,0,-1
 384 723 l 2,1,2
 517 723 517 723 578.5 674.5 c 128,-1,3
 640 626 640 626 627 534 c 0,4,5
 619 475 619 475 583 435 c 128,-1,6
 547 395 547 395 472 369 c 1,7,8
 617 335 617 335 597 195 c 0,9,10
 583 96 583 96 507.5 48 c 128,-1,11
 432 0 432 0 291 0 c 2,12,-1
 45 0 l 1,13,-1
 147 723 l 1,0,-1
358 408 m 2,14,15
 421 408 421 408 469.5 435 c 128,-1,16
 518 462 518 462 526 521 c 128,-1,17
 534 580 534 580 494.5 610 c 128,-1,18
 455 640 455 640 379 640 c 2,19,-1
 237 640 l 1,20,-1
 204 408 l 1,21,-1
 358 408 l 2,14,15
303 84 m 2,22,23
 478 84 478 84 494 201 c 0,24,25
 503 262 503 262 461.5 292.5 c 128,-1,26
 420 323 420 323 346 323 c 2,27,-1
 192 323 l 1,28,-1
 159 84 l 1,29,-1
 303 84 l 2,22,23
EndSplineSet
EndChar

StartChar: C
Encoding: 67 67 38
Width: 690
GlyphClass: 2
Flags: W
AnchorPoint: "Anchor-5" -46 0 basechar 0
AnchorPoint: "Anchor-4" 317 0 basechar 0
AnchorPoint: "Anchor-3" 317 723 basechar 0
AnchorPoint: "Anchor-2" -46 0 basechar 0
LayerCount: 2
Fore
SplineSet
549.5 703.5 m 128,-1,1
 607 674 607 674 636 622.5 c 128,-1,2
 665 571 665 571 663 508 c 1,3,-1
 555 504 l 1,4,5
 552 569 552 569 513.5 607 c 128,-1,6
 475 645 475 645 402 645 c 0,7,8
 307 645 307 645 247.5 575 c 128,-1,9
 188 505 188 505 168 363 c 128,-1,10
 148 221 148 221 188 149.5 c 128,-1,11
 228 78 228 78 326 78 c 0,12,13
 390 78 390 78 440.5 116.5 c 128,-1,14
 491 155 491 155 514 219 c 1,15,-1
 620 212 l 1,16,17
 603 149 603 149 562.5 99 c 128,-1,18
 522 49 522 49 459 19.5 c 128,-1,19
 396 -10 396 -10 316 -10 c 0,20,21
 219 -10 219 -10 154.5 35.5 c 128,-1,22
 90 81 90 81 64.5 165.5 c 128,-1,23
 39 250 39 250 55 364 c 128,-1,24
 71 478 71 478 119.5 561 c 128,-1,25
 168 644 168 644 243.5 688.5 c 128,-1,26
 319 733 319 733 415 733 c 0,27,0
 492 733 492 733 549.5 703.5 c 128,-1,1
EndSplineSet
EndChar

StartChar: D
Encoding: 68 68 39
Width: 694
GlyphClass: 2
Flags: W
AnchorPoint: "Anchor-5" -46 0 basechar 0
AnchorPoint: "Anchor-4" -46 0 basechar 0
AnchorPoint: "Anchor-3" 296 723 basechar 0
AnchorPoint: "Anchor-2" -46 0 basechar 0
LayerCount: 2
Fore
SplineSet
322 722 m 0,0,1
 517 719 517 719 595 629.5 c 128,-1,2
 673 540 673 540 648 366 c 0,3,4
 597 0 597 0 213 0 c 2,5,-1
 45 0 l 1,6,-1
 147 723 l 1,7,8
 261 723 261 723 322 722 c 0,0,1
161 87 m 1,9,-1
 225 87 l 2,10,11
 359 87 359 87 440 152.5 c 128,-1,12
 521 218 521 218 541 365 c 0,13,14
 562 511 562 511 502 574 c 128,-1,15
 442 637 442 637 307 637 c 2,16,-1
 239 637 l 1,17,-1
 161 87 l 1,9,-1
EndSplineSet
EndChar

StartChar: E
Encoding: 69 69 40
Width: 626
GlyphClass: 2
Flags: W
AnchorPoint: "Anchor-5" -46 0 basechar 0
AnchorPoint: "Anchor-4" 296 0 basechar 0
AnchorPoint: "Anchor-3" 285 723 basechar 0
AnchorPoint: "Anchor-2" 511 10 basechar 0
LayerCount: 2
Fore
SplineSet
147 723 m 1,0,-1
 610 723 l 1,1,-1
 596 634 l 1,2,-1
 236 634 l 1,3,-1
 204 409 l 1,4,-1
 527 409 l 1,5,-1
 515 321 l 1,6,-1
 192 321 l 1,7,-1
 160 91 l 1,8,-1
 530 90 l 1,9,-1
 517 0 l 1,10,-1
 45 0 l 1,11,-1
 147 723 l 1,0,-1
EndSplineSet
EndChar

StartChar: F
Encoding: 70 70 41
Width: 587
GlyphClass: 2
Flags: W
LayerCount: 2
Fore
SplineSet
605 723 m 1,0,-1
 591 635 l 1,1,-1
 238 635 l 1,2,-1
 206 406 l 1,3,-1
 522 406 l 1,4,-1
 510 319 l 1,5,-1
 194 319 l 1,6,-1
 149 0 l 1,7,-1
 45 0 l 1,8,-1
 147 723 l 1,9,-1
 605 723 l 1,0,-1
EndSplineSet
EndChar

StartChar: G
Encoding: 71 71 42
Width: 733
GlyphClass: 2
Flags: W
AnchorPoint: "Anchor-5" -46 0 basechar 0
AnchorPoint: "Anchor-4" 319 0 basechar 0
AnchorPoint: "Anchor-3" 316 723 basechar 0
AnchorPoint: "Anchor-2" -46 0 basechar 0
LayerCount: 2
Fore
SplineSet
154 35 m 128,-1,1
 90 80 90 80 64.5 163 c 128,-1,2
 39 246 39 246 54 359 c 0,3,4
 70 474 70 474 121 558.5 c 128,-1,5
 172 643 172 643 250 688 c 128,-1,6
 328 733 328 733 423 733 c 0,7,8
 496 733 496 733 553.5 702 c 128,-1,9
 611 671 611 671 641.5 619.5 c 128,-1,10
 672 568 672 568 667 510 c 1,11,-1
 557 505 l 1,12,13
 553 565 553 565 513 604 c 128,-1,14
 473 643 473 643 408 643 c 0,15,16
 313 643 313 643 249 572 c 128,-1,17
 185 501 185 501 166 365 c 0,18,19
 146 221 146 221 192 151.5 c 128,-1,20
 238 82 238 82 333 82 c 0,21,22
 387 82 387 82 428.5 106 c 128,-1,23
 470 130 470 130 496.5 166.5 c 128,-1,24
 523 203 523 203 531 240 c 2,25,-1
 542 301 l 1,26,-1
 371 301 l 1,27,-1
 382 375 l 1,28,-1
 660 374 l 1,29,-1
 607 0 l 1,30,-1
 531 0 l 1,31,-1
 546 107 l 1,32,33
 458 -10 458 -10 313 -10 c 0,34,0
 218 -10 218 -10 154 35 c 128,-1,1
EndSplineSet
EndChar

StartChar: H
Encoding: 72 72 43
Width: 713
GlyphClass: 2
Flags: W
AnchorPoint: "Anchor-5" -46 0 basechar 0
AnchorPoint: "Anchor-4" 308 0 basechar 0
AnchorPoint: "Anchor-3" 309 723 basechar 0
AnchorPoint: "Anchor-2" -46 0 basechar 0
LayerCount: 2
Fore
SplineSet
193 329 m 1,0,-1
 147 0 l 1,1,-1
 45 0 l 1,2,-1
 147 723 l 1,3,-1
 249 723 l 1,4,-1
 206 418 l 1,5,-1
 532 418 l 1,6,-1
 575 723 l 1,7,-1
 677 723 l 1,8,-1
 575 0 l 1,9,-1
 473 0 l 1,10,-1
 519 329 l 1,11,-1
 193 329 l 1,0,-1
EndSplineSet
EndChar

StartChar: I
Encoding: 73 73 44
Width: 284
GlyphClass: 2
Flags: W
AnchorPoint: "Anchor-5" -46 0 basechar 0
AnchorPoint: "Anchor-4" 101 0 basechar 0
AnchorPoint: "Anchor-3" 99 723 basechar 0
AnchorPoint: "Anchor-2" 133 7 basechar 0
LayerCount: 2
Fore
SplineSet
249 723 m 1,0,-1
 147 0 l 1,1,-1
 45 0 l 1,2,-1
 147 723 l 1,3,-1
 249 723 l 1,0,-1
EndSplineSet
EndChar

StartChar: J
Encoding: 74 74 45
Width: 392
GlyphClass: 2
Flags: W
AnchorPoint: "Anchor-5" -46 0 basechar 0
AnchorPoint: "Anchor-4" -46 0 basechar 0
AnchorPoint: "Anchor-3" 185 723 basechar 0
AnchorPoint: "Anchor-2" -46 0 basechar 0
LayerCount: 2
Fore
SplineSet
225.5 35.5 m 128,-1,1
 185 -10 185 -10 94 -10 c 0,2,3
 61 -10 61 -10 28.5 -3 c 128,-1,4
 -4 4 -4 4 -21 11 c 1,5,-1
 -2 108 l 1,6,7
 4 106 4 106 17.5 100 c 128,-1,8
 31 94 31 94 46 90.5 c 128,-1,9
 61 87 61 87 79 87 c 0,10,11
 127 87 127 87 149.5 113.5 c 128,-1,12
 172 140 172 140 181 205 c 2,13,-1
 254 723 l 1,14,-1
 357 723 l 1,15,-1
 280 176 l 2,16,0
 266 81 266 81 225.5 35.5 c 128,-1,1
EndSplineSet
EndChar

StartChar: K
Encoding: 75 75 46
Width: 684
GlyphClass: 2
Flags: W
AnchorPoint: "Anchor-5" -46 0 basechar 0
AnchorPoint: "Anchor-4" 295 0 basechar 0
AnchorPoint: "Anchor-3" 312 723 basechar 0
AnchorPoint: "Anchor-2" -46 0 basechar 0
LayerCount: 2
Fore
SplineSet
492 0 m 1,0,-1
 323 366 l 1,1,-1
 182 224 l 1,2,-1
 151 0 l 1,3,-1
 45 0 l 1,4,-1
 147 723 l 1,5,-1
 253 723 l 1,6,-1
 201 357 l 1,7,-1
 566 723 l 1,8,-1
 687 723 l 1,9,-1
 411 442 l 1,10,-1
 608 0 l 1,11,-1
 492 0 l 1,0,-1
EndSplineSet
EndChar

StartChar: L
Encoding: 76 76 47
Width: 561
GlyphClass: 2
Flags: W
AnchorPoint: "Anchor-5" 394 723 basechar 0
AnchorPoint: "Anchor-4" 260 0 basechar 0
AnchorPoint: "Anchor-3" 95 723 basechar 0
AnchorPoint: "Anchor-2" -46 0 basechar 0
LayerCount: 2
Fore
SplineSet
251 723 m 1,0,-1
 162 91 l 1,1,-1
 499 91 l 1,2,-1
 486 0 l 1,3,-1
 45 0 l 1,4,-1
 147 723 l 1,5,-1
 251 723 l 1,0,-1
EndSplineSet
EndChar

StartChar: M
Encoding: 77 77 48
Width: 888
GlyphClass: 2
Flags: W
LayerCount: 2
Fore
SplineSet
147 723 m 1,0,-1
 290 723 l 1,1,-1
 417 141 l 1,2,-1
 710 723 l 1,3,-1
 852 723 l 1,4,-1
 750 0 l 1,5,-1
 646 0 l 1,6,-1
 727 579 l 1,7,-1
 442 0 l 1,8,-1
 351 0 l 1,9,-1
 230 574 l 1,10,-1
 149 0 l 1,11,-1
 45 0 l 1,12,-1
 147 723 l 1,0,-1
EndSplineSet
EndChar

StartChar: N
Encoding: 78 78 49
Width: 756
GlyphClass: 2
Flags: W
AnchorPoint: "Anchor-5" -46 0 basechar 0
AnchorPoint: "Anchor-4" 317 0 basechar 0
AnchorPoint: "Anchor-3" 340 723 basechar 0
AnchorPoint: "Anchor-2" -46 0 basechar 0
LayerCount: 2
Fore
SplineSet
720 723 m 1,0,-1
 618 0 l 1,1,-1
 527 0 l 1,2,-1
 225 557 l 1,3,-1
 147 0 l 1,4,-1
 45 0 l 1,5,-1
 147 723 l 1,6,-1
 245 723 l 1,7,-1
 541 176 l 1,8,-1
 618 723 l 1,9,-1
 720 723 l 1,0,-1
EndSplineSet
EndChar

StartChar: O
Encoding: 79 79 50
Width: 734
GlyphClass: 2
Flags: W
AnchorPoint: "Anchor-5" -46 0 basechar 0
AnchorPoint: "Anchor-4" 323 0 basechar 0
AnchorPoint: "Anchor-3" 322 723 basechar 0
AnchorPoint: "Anchor-2" 400 9 basechar 0
LayerCount: 2
Fore
SplineSet
157 33.5 m 128,-1,1
 92 77 92 77 65 160 c 128,-1,2
 38 243 38 243 54 359 c 0,3,4
 70 476 70 476 121.5 560.5 c 128,-1,5
 173 645 173 645 250.5 689 c 128,-1,6
 328 733 328 733 425 733 c 0,7,8
 521 733 521 733 586 689 c 128,-1,9
 651 645 651 645 677.5 561 c 128,-1,10
 704 477 704 477 688 360 c 0,11,12
 672 244 672 244 622 161 c 128,-1,13
 572 78 572 78 495 34 c 128,-1,14
 418 -10 418 -10 320 -10 c 128,-1,0
 222 -10 222 -10 157 33.5 c 128,-1,1
575 359 m 0,15,16
 595 504 595 504 553 574.5 c 128,-1,17
 511 645 511 645 413 645 c 0,18,19
 314 645 314 645 251 574 c 128,-1,20
 188 503 188 503 167 359 c 0,21,22
 147 216 147 216 191 147 c 128,-1,23
 235 78 235 78 334 78 c 0,24,25
 536 78 536 78 575 359 c 0,15,16
EndSplineSet
Substitution2: "Single Substitution lookup 30 subtable" ordmasculine
Substitution2: "'aalt' Access All Alternates in Latin lookup 0 subtable" ordmasculine
EndChar

StartChar: P
Encoding: 80 80 51
Width: 640
GlyphClass: 2
Flags: W
LayerCount: 2
Fore
SplineSet
147 723 m 1,0,-1
 395 723 l 2,1,2
 517 723 517 723 583 668 c 128,-1,3
 649 613 649 613 634 505 c 0,4,5
 619 400 619 400 542.5 344.5 c 128,-1,6
 466 289 466 289 348 289 c 2,7,-1
 190 289 l 1,8,-1
 149 0 l 1,9,-1
 45 0 l 1,10,-1
 147 723 l 1,0,-1
357 374 m 2,11,12
 430 374 430 374 478 409 c 128,-1,13
 526 444 526 444 536 511 c 0,14,15
 545 577 545 577 505.5 608.5 c 128,-1,16
 466 640 466 640 390 640 c 2,17,-1
 238 640 l 1,18,-1
 201 374 l 1,19,-1
 357 374 l 2,11,12
EndSplineSet
EndChar

StartChar: Q
Encoding: 81 81 52
Width: 739
GlyphClass: 2
Flags: W
LayerCount: 2
Fore
SplineSet
116.5 561 m 128,-1,1
 167 645 167 645 244.5 689 c 128,-1,2
 322 733 322 733 419 733 c 128,-1,3
 516 733 516 733 581.5 689 c 128,-1,4
 647 645 647 645 673 561 c 128,-1,5
 699 477 699 477 683 360 c 0,6,7
 667 248 667 248 623 169.5 c 128,-1,8
 579 91 579 91 501 43 c 1,9,10
 513 5 513 5 545 -14.5 c 128,-1,11
 577 -34 577 -34 622 -36 c 1,12,-1
 610 -121 l 1,13,14
 541 -121 541 -121 488 -96 c 128,-1,15
 435 -71 435 -71 401 -1 c 1,16,17
 351 -10 351 -10 315 -10 c 0,18,19
 218 -10 218 -10 152.5 33 c 128,-1,20
 87 76 87 76 60 159.5 c 128,-1,21
 33 243 33 243 50 360 c 0,22,0
 66 477 66 477 116.5 561 c 128,-1,1
327 78 m 0,23,24
 532 78 532 78 571 359 c 0,25,26
 591 502 591 502 549 573.5 c 128,-1,27
 507 645 507 645 407 645 c 128,-1,28
 307 645 307 645 245 573.5 c 128,-1,29
 183 502 183 502 162 358 c 0,30,31
 123 78 123 78 327 78 c 0,23,24
EndSplineSet
EndChar

StartChar: R
Encoding: 82 82 53
Width: 681
GlyphClass: 2
Flags: W
AnchorPoint: "Anchor-5" -46 0 basechar 0
AnchorPoint: "Anchor-4" 291 0 basechar 0
AnchorPoint: "Anchor-3" 283 723 basechar 0
AnchorPoint: "Anchor-2" -46 0 basechar 0
LayerCount: 2
Fore
SplineSet
462 0 m 1,0,-1
 376 305 l 1,1,-1
 190 305 l 1,2,-1
 147 0 l 1,3,-1
 45 0 l 1,4,-1
 147 723 l 1,5,-1
 431 723 l 2,6,7
 549 723 549 723 601.5 670 c 128,-1,8
 654 617 654 617 640 522 c 0,9,10
 620 379 620 379 474 323 c 1,11,-1
 570 0 l 1,12,-1
 462 0 l 1,0,-1
479.5 421.5 m 128,-1,14
 526 454 526 454 535 517 c 0,15,16
 544 578 544 578 510.5 609.5 c 128,-1,17
 477 641 477 641 410 641 c 2,18,-1
 237 641 l 1,19,-1
 202 389 l 1,20,-1
 355 389 l 2,21,13
 433 389 433 389 479.5 421.5 c 128,-1,14
EndSplineSet
EndChar

StartChar: S
Encoding: 83 83 54
Width: 675
GlyphClass: 2
Flags: W
AnchorPoint: "Anchor-5" -46 0 basechar 0
AnchorPoint: "Anchor-4" 288 0 basechar 0
AnchorPoint: "Anchor-3" 292 723 basechar 0
AnchorPoint: "Anchor-2" -46 0 basechar 0
LayerCount: 2
Fore
SplineSet
163.5 13 m 128,-1,1
 103 36 103 36 67 80.5 c 128,-1,2
 31 125 31 125 31 189 c 1,3,-1
 138 194 l 1,4,5
 143 137 143 137 189.5 105.5 c 128,-1,6
 236 74 236 74 306 74 c 0,7,8
 383 74 383 74 437 104.5 c 128,-1,9
 491 135 491 135 498 187 c 0,10,11
 504 233 504 233 476 261 c 128,-1,12
 448 289 448 289 386 302 c 2,13,-1
 250 334 l 2,14,15
 168 351 168 351 129 398 c 128,-1,16
 90 445 90 445 99 519 c 0,17,18
 108 581 108 581 149 629.5 c 128,-1,19
 190 678 190 678 255 705 c 128,-1,20
 320 732 320 732 396 732 c 0,21,22
 478 732 478 732 534 703.5 c 128,-1,23
 590 675 590 675 617 628 c 128,-1,24
 644 581 644 581 642 525 c 1,25,-1
 537 521 l 1,26,27
 536 586 536 586 495 616.5 c 128,-1,28
 454 647 454 647 385 647 c 0,29,30
 320 647 320 647 269 615.5 c 128,-1,31
 218 584 218 584 210 530 c 0,32,33
 205 491 205 491 229 465 c 128,-1,34
 253 439 253 439 317 423 c 2,35,-1
 451 392 l 2,36,37
 628 354 628 354 604 188 c 0,38,39
 596 133 596 133 556 87.5 c 128,-1,40
 516 42 516 42 448.5 16 c 128,-1,41
 381 -10 381 -10 296 -10 c 0,42,0
 224 -10 224 -10 163.5 13 c 128,-1,1
EndSplineSet
EndChar

StartChar: T
Encoding: 84 84 55
Width: 580
GlyphClass: 2
Flags: W
AnchorPoint: "Anchor-5" -46 0 basechar 0
AnchorPoint: "Anchor-4" 254 0 basechar 0
AnchorPoint: "Anchor-3" 254 723 basechar 0
AnchorPoint: "Anchor-2" -46 0 basechar 0
LayerCount: 2
Fore
SplineSet
70 723 m 1,0,-1
 622 723 l 1,1,-1
 609 630 l 1,2,-1
 390 630 l 1,3,-1
 301 0 l 1,4,-1
 198 0 l 1,5,-1
 287 630 l 1,6,-1
 57 630 l 1,7,-1
 70 723 l 1,0,-1
EndSplineSet
EndChar

StartChar: U
Encoding: 85 85 56
Width: 720
GlyphClass: 2
Flags: W
AnchorPoint: "Anchor-5" -46 0 basechar 0
AnchorPoint: "Anchor-4" -46 0 basechar 0
AnchorPoint: "Anchor-3" 308 723 basechar 0
AnchorPoint: "Anchor-2" 387 10 basechar 0
LayerCount: 2
Fore
SplineSet
525.5 57.5 m 128,-1,1
 451 -10 451 -10 312 -10 c 0,2,3
 172 -10 172 -10 117.5 59 c 128,-1,4
 63 128 63 128 82 263 c 2,5,-1
 147 723 l 1,6,-1
 252 723 l 1,7,-1
 185 250 l 2,8,9
 173 165 173 165 209 122 c 128,-1,10
 245 79 245 79 324 79 c 0,11,12
 404 79 404 79 453 121.5 c 128,-1,13
 502 164 502 164 514 250 c 2,14,-1
 581 723 l 1,15,-1
 684 723 l 1,16,-1
 618 254 l 2,17,0
 600 125 600 125 525.5 57.5 c 128,-1,1
EndSplineSet
EndChar

StartChar: V
Encoding: 86 86 57
Width: 650
GlyphClass: 2
Flags: W
LayerCount: 2
Fore
SplineSet
338 0 m 1,0,-1
 217 0 l 1,1,-1
 68 723 l 1,2,-1
 168 723 l 1,3,-1
 294 117 l 1,4,-1
 595 723 l 1,5,-1
 695 723 l 1,6,-1
 338 0 l 1,0,-1
EndSplineSet
EndChar

StartChar: W
Encoding: 87 87 58
Width: 956
GlyphClass: 2
Flags: W
AnchorPoint: "Anchor-5" -46 0 basechar 0
AnchorPoint: "Anchor-4" -46 0 basechar 0
AnchorPoint: "Anchor-3" 435 723 basechar 0
AnchorPoint: "Anchor-2" -46 0 basechar 0
LayerCount: 2
Fore
SplineSet
676 0 m 1,0,-1
 585 0 l 1,1,-1
 507 544 l 1,2,-1
 274 0 l 1,3,-1
 185 0 l 1,4,-1
 78 723 l 1,5,-1
 181 723 l 1,6,-1
 257 165 l 1,7,-1
 494 723 l 1,8,-1
 572 723 l 1,9,-1
 651 165 l 1,10,-1
 888 723 l 1,11,-1
 990 723 l 1,12,-1
 676 0 l 1,0,-1
EndSplineSet
EndChar

StartChar: X
Encoding: 88 88 59
Width: 662
GlyphClass: 2
Flags: W
LayerCount: 2
Fore
SplineSet
465 0 m 1,0,-1
 318 289 l 1,1,-1
 90 0 l 1,2,-1
 -24 0 l 1,3,-1
 272 369 l 1,4,-1
 87 723 l 1,5,-1
 216 723 l 1,6,-1
 349 456 l 1,7,-1
 559 723 l 1,8,-1
 672 723 l 1,9,-1
 394 380 l 1,10,-1
 594 0 l 1,11,-1
 465 0 l 1,0,-1
EndSplineSet
EndChar

StartChar: Y
Encoding: 89 89 60
Width: 608
GlyphClass: 2
Flags: W
AnchorPoint: "Anchor-5" -46 0 basechar 0
AnchorPoint: "Anchor-4" -46 0 basechar 0
AnchorPoint: "Anchor-3" 266 723 basechar 0
AnchorPoint: "Anchor-2" -46 0 basechar 0
LayerCount: 2
Fore
SplineSet
353 307 m 1,0,-1
 310 0 l 1,1,-1
 208 0 l 1,2,-1
 251 308 l 1,3,-1
 62 723 l 1,4,-1
 174 723 l 1,5,-1
 315 398 l 1,6,-1
 546 723 l 1,7,-1
 658 723 l 1,8,-1
 353 307 l 1,0,-1
EndSplineSet
EndChar

StartChar: Z
Encoding: 90 90 61
Width: 633
GlyphClass: 2
Flags: W
AnchorPoint: "Anchor-5" -46 0 basechar 0
AnchorPoint: "Anchor-4" 280 0 basechar 0
AnchorPoint: "Anchor-3" 285 723 basechar 0
AnchorPoint: "Anchor-2" -46 0 basechar 0
LayerCount: 2
Fore
SplineSet
12 55 m 1,0,-1
 484 635 l 1,1,-1
 111 635 l 1,2,-1
 124 723 l 1,3,-1
 641 723 l 1,4,-1
 633 671 l 1,5,-1
 157 89 l 1,6,-1
 549 89 l 1,7,-1
 536 0 l 1,8,-1
 4 0 l 1,9,-1
 12 55 l 1,0,-1
EndSplineSet
EndChar

StartChar: bracketleft
Encoding: 91 91 62
Width: 305
GlyphClass: 2
Flags: W
LayerCount: 2
Fore
SplineSet
336 723 m 1,0,-1
 327 659 l 1,1,-1
 221 659 l 1,2,-1
 114 -97 l 1,3,-1
 220 -97 l 1,4,-1
 211 -161 l 1,5,-1
 17 -161 l 1,6,-1
 142 723 l 1,7,-1
 336 723 l 1,0,-1
EndSplineSet
EndChar

StartChar: backslash
Encoding: 92 92 63
Width: 353
GlyphClass: 2
Flags: W
LayerCount: 2
Fore
SplineSet
65 723 m 1,0,-1
 142 723 l 1,1,-1
 286 -35 l 1,2,-1
 208 -35 l 1,3,-1
 65 723 l 1,0,-1
EndSplineSet
EndChar

StartChar: bracketright
Encoding: 93 93 64
Width: 305
GlyphClass: 2
Flags: W
LayerCount: 2
Fore
SplineSet
17 -161 m 1,0,-1
 26 -97 l 1,1,-1
 132 -97 l 1,2,-1
 239 659 l 1,3,-1
 133 659 l 1,4,-1
 142 723 l 1,5,-1
 336 723 l 1,6,-1
 211 -161 l 1,7,-1
 17 -161 l 1,0,-1
EndSplineSet
EndChar

StartChar: asciicircum
Encoding: 94 94 65
Width: 473
GlyphClass: 2
Flags: W
LayerCount: 2
Fore
SplineSet
245 413 m 1,0,-1
 91 128 l 1,1,-1
 14 128 l 1,2,-1
 215 491 l 2,3,4
 224 508 224 508 237 517 c 128,-1,5
 250 526 250 526 262 526 c 0,6,7
 288 526 288 526 298 491 c 2,8,-1
 397 127 l 1,9,-1
 319 127 l 1,10,-1
 245 413 l 1,0,-1
EndSplineSet
EndChar

StartChar: underscore
Encoding: 95 95 66
Width: 525
GlyphClass: 2
Flags: W
LayerCount: 2
Fore
SplineSet
397 -122 m 1,0,-1
 -3 -122 l 1,1,-1
 8 -44 l 1,2,-1
 408 -43 l 1,3,-1
 397 -122 l 1,0,-1
EndSplineSet
EndChar

StartChar: grave
Encoding: 96 96 67
Width: 293
GlyphClass: 2
Flags: W
LayerCount: 2
Fore
SplineSet
323 635 m 1,0,-1
 299 585 l 1,1,-1
 55 658 l 1,2,-1
 91 733 l 1,3,-1
 323 635 l 1,0,-1
EndSplineSet
EndChar

StartChar: a
Encoding: 97 97 68
Width: 597
GlyphClass: 2
Flags: W
LayerCount: 2
Fore
SplineSet
370 0 m 1,0,-1
 378 49 l 1,1,2
 337 18 337 18 299.5 4 c 128,-1,3
 262 -10 262 -10 221 -10 c 0,4,5
 155 -10 155 -10 109.5 22 c 128,-1,6
 64 54 64 54 44 116 c 128,-1,7
 24 178 24 178 36 265 c 0,8,9
 48 351 48 351 85 409.5 c 128,-1,10
 122 468 122 468 174 497.5 c 128,-1,11
 226 527 226 527 287 527 c 0,12,13
 342 527 342 527 375 506 c 128,-1,14
 408 485 408 485 436 455 c 1,15,-1
 445 517 l 1,16,-1
 547 517 l 1,17,-1
 472 0 l 1,18,-1
 370 0 l 1,0,-1
394 167 m 1,19,-1
 416 318 l 2,20,21
 424 374 424 374 394.5 413.5 c 128,-1,22
 365 453 365 453 309 453 c 0,23,24
 248 453 248 453 201 405 c 128,-1,25
 154 357 154 357 141 264 c 128,-1,26
 128 171 128 171 161.5 117 c 128,-1,27
 195 63 195 63 259 63 c 0,28,29
 334 63 334 63 394 167 c 1,19,-1
EndSplineSet
Substitution2: "Single Substitution lookup 30 subtable" ordfeminine
Substitution2: "'aalt' Access All Alternates in Latin lookup 0 subtable" ordfeminine
EndChar

StartChar: b
Encoding: 98 98 69
Width: 596
GlyphClass: 2
Flags: W
LayerCount: 2
Fore
SplineSet
180.5 17.5 m 128,-1,1
 140 45 140 45 128 76 c 1,2,-1
 107 0 l 1,3,-1
 30 0 l 1,4,-1
 134 743 l 1,5,-1
 237 743 l 1,6,-1
 196 445 l 1,7,8
 219 475 219 475 266 501 c 128,-1,9
 313 527 313 527 371 527 c 0,10,11
 472 527 472 527 515.5 454 c 128,-1,12
 559 381 559 381 542 261 c 0,13,14
 524 135 524 135 455.5 62.5 c 128,-1,15
 387 -10 387 -10 281 -10 c 0,16,0
 221 -10 221 -10 180.5 17.5 c 128,-1,1
377 115 m 128,-1,18
 423 163 423 163 437 262 c 0,19,20
 450 354 450 354 421 401.5 c 128,-1,21
 392 449 392 449 328 449 c 0,22,23
 283 449 283 449 244.5 422.5 c 128,-1,24
 206 396 206 396 182 348 c 1,25,-1
 163 210 l 2,26,27
 157 168 157 168 169.5 135.5 c 128,-1,28
 182 103 182 103 208.5 85 c 128,-1,29
 235 67 235 67 268 67 c 0,30,17
 331 67 331 67 377 115 c 128,-1,18
EndSplineSet
EndChar

StartChar: c
Encoding: 99 99 70
Width: 537
GlyphClass: 2
Flags: W
AnchorPoint: "Anchor-5" -46 0 basechar 0
AnchorPoint: "Anchor-4" 239 0 basechar 0
AnchorPoint: "Anchor-3" 238 517 basechar 0
AnchorPoint: "Anchor-2" -46 0 basechar 0
LayerCount: 2
Fore
SplineSet
435.5 484.5 m 128,-1,1
 480 442 480 442 493 371 c 1,2,-1
 407 358 l 1,3,4
 383 406 383 406 363 426 c 128,-1,5
 343 446 343 446 305 446 c 0,6,7
 238 446 238 446 191 395.5 c 128,-1,8
 144 345 144 345 132 258 c 0,9,10
 120 170 120 170 152.5 118 c 128,-1,11
 185 66 185 66 252 66 c 0,12,13
 294 66 294 66 325 90.5 c 128,-1,14
 356 115 356 115 385 160 c 1,15,-1
 466 147 l 1,16,17
 433 75 433 75 374 32.5 c 128,-1,18
 315 -10 315 -10 237 -10 c 0,19,20
 166 -10 166 -10 116.5 23.5 c 128,-1,21
 67 57 67 57 45.5 117.5 c 128,-1,22
 24 178 24 178 35 256 c 0,23,24
 46 335 46 335 84.5 396.5 c 128,-1,25
 123 458 123 458 182 492.5 c 128,-1,26
 241 527 241 527 312 527 c 0,27,0
 391 527 391 527 435.5 484.5 c 128,-1,1
EndSplineSet
EndChar

StartChar: d
Encoding: 100 100 71
Width: 590
GlyphClass: 2
Flags: W
AnchorPoint: "Anchor-5" 545 639 basechar 0
AnchorPoint: "Anchor-4" 243 0 basechar 0
AnchorPoint: "Anchor-3" -46 0 basechar 0
AnchorPoint: "Anchor-2" -46 0 basechar 0
LayerCount: 2
Fore
SplineSet
65 59 m 128,-1,1
 17 128 17 128 35 254 c 0,2,3
 53 379 53 379 119.5 453 c 128,-1,4
 186 527 186 527 287 527 c 0,5,6
 376 527 376 527 429 461 c 1,7,-1
 468 743 l 1,8,-1
 571 743 l 1,9,-1
 467 0 l 1,10,-1
 389 0 l 1,11,-1
 392 73 l 1,12,13
 366 42 366 42 320.5 16 c 128,-1,14
 275 -10 275 -10 213 -10 c 0,15,0
 113 -10 113 -10 65 59 c 128,-1,1
313 85 m 128,-1,17
 345 103 345 103 366 133 c 128,-1,18
 387 163 387 163 392 196 c 2,19,-1
 415 362 l 1,20,21
 386 449 386 449 303 449 c 0,22,23
 238 449 238 449 193.5 400.5 c 128,-1,24
 149 352 149 352 136 257 c 0,25,26
 123 161 123 161 153.5 114 c 128,-1,27
 184 67 184 67 245 67 c 0,28,16
 281 67 281 67 313 85 c 128,-1,17
EndSplineSet
EndChar

StartChar: e
Encoding: 101 101 72
Width: 558
GlyphClass: 2
Flags: W
AnchorPoint: "Anchor-5" -46 0 basechar 0
AnchorPoint: "Anchor-4" 234 0 basechar 0
AnchorPoint: "Anchor-3" 238 517 basechar 0
AnchorPoint: "Anchor-2" 346 21 basechar 0
LayerCount: 2
Fore
SplineSet
156 114.5 m 128,-1,1
 187 68 187 68 255 68 c 0,2,3
 350 68 350 68 388 144 c 1,4,-1
 479 134 l 1,5,6
 454 68 454 68 389 29 c 128,-1,7
 324 -10 324 -10 246 -10 c 0,8,9
 173 -10 173 -10 121 21.5 c 128,-1,10
 69 53 69 53 46 113 c 128,-1,11
 23 173 23 173 35 253 c 0,12,13
 46 334 46 334 83 396 c 128,-1,14
 120 458 120 458 179 492.5 c 128,-1,15
 238 527 238 527 312 527 c 0,16,17
 421 527 421 527 471 458 c 128,-1,18
 521 389 521 389 504 270 c 2,19,-1
 499 234 l 1,20,-1
 135 234 l 1,21,0
 125 161 125 161 156 114.5 c 128,-1,1
411 302 m 1,22,23
 420 368 420 368 392 409.5 c 128,-1,24
 364 451 364 451 300 451 c 0,25,26
 257 451 257 451 223.5 429.5 c 128,-1,27
 190 408 190 408 170 374 c 128,-1,28
 150 340 150 340 144 302 c 1,29,-1
 411 302 l 1,22,23
EndSplineSet
EndChar

StartChar: f
Encoding: 102 102 73
Width: 392
GlyphClass: 2
Flags: W
LayerCount: 2
Fore
SplineSet
374 443 m 1,0,-1
 252 443 l 1,1,-1
 167 -161 l 1,2,-1
 64 -161 l 1,3,-1
 149 443 l 1,4,-1
 43 443 l 1,5,-1
 54 517 l 1,6,-1
 160 517 l 1,7,-1
 171 596 l 2,8,9
 180 658 180 658 217.5 690.5 c 128,-1,10
 255 723 255 723 318 723 c 2,11,-1
 419 723 l 1,12,-1
 409 652 l 1,13,-1
 334 652 l 2,14,15
 304 652 304 652 289.5 636 c 128,-1,16
 275 620 275 620 270 585 c 2,17,-1
 261 517 l 1,18,-1
 385 517 l 1,19,-1
 374 443 l 1,0,-1
EndSplineSet
EndChar

StartChar: g
Encoding: 103 103 74
Width: 609
GlyphClass: 2
Flags: W
AnchorPoint: "Anchor-5" -46 0 basechar 0
AnchorPoint: "Anchor-4" -46 0 basechar 0
AnchorPoint: "Anchor-3" 253 517 basechar 0
AnchorPoint: "Anchor-2" -46 0 basechar 0
LayerCount: 2
Fore
SplineSet
36 -134.5 m 128,-1,1
 -27 -98 -27 -98 -18 -37 c 0,2,3
 -12 3 -12 3 16.5 26 c 128,-1,4
 45 49 45 49 68 59.5 c 128,-1,5
 91 70 91 70 95 73 c 1,6,7
 92 75 92 75 78 83.5 c 128,-1,8
 64 92 64 92 55.5 106.5 c 128,-1,9
 47 121 47 121 50 140 c 0,10,11
 54 166 54 166 81 186.5 c 128,-1,12
 108 207 108 207 154 217 c 1,13,14
 63 265 63 265 77 362 c 0,15,16
 88 438 88 438 157.5 481.5 c 128,-1,17
 227 525 227 525 329 525 c 0,18,19
 378 525 378 525 411 514 c 128,-1,20
 444 503 444 503 472 481 c 1,21,22
 495 491 495 491 536 506 c 2,23,-1
 614 537 l 1,24,-1
 602 446 l 1,25,-1
 509 429 l 1,26,27
 513 415 513 415 515.5 395 c 128,-1,28
 518 375 518 375 516 362 c 0,29,30
 510 317 510 317 480 279.5 c 128,-1,31
 450 242 450 242 397.5 219.5 c 128,-1,32
 345 197 345 197 274 197 c 2,33,-1
 239 198 l 2,34,35
 194 197 194 197 172.5 188 c 128,-1,36
 151 179 151 179 149 166 c 0,37,38
 147 152 147 152 167 147 c 128,-1,39
 187 142 187 142 242 138 c 2,40,-1
 353 131 l 2,41,42
 439 126 439 126 476.5 88.5 c 128,-1,43
 514 51 514 51 506 -10 c 0,44,45
 495 -85 495 -85 421.5 -128 c 128,-1,46
 348 -171 348 -171 225 -171 c 0,47,0
 99 -171 99 -171 36 -134.5 c 128,-1,1
377 286.5 m 128,-1,49
 411 312 411 312 418 360 c 0,50,51
 425 409 425 409 397.5 436.5 c 128,-1,52
 370 464 370 464 314 464 c 128,-1,53
 258 464 258 464 222 436 c 128,-1,54
 186 408 186 408 180 360 c 0,55,56
 173 313 173 313 201 287 c 128,-1,57
 229 261 229 261 286 261 c 128,-1,48
 343 261 343 261 377 286.5 c 128,-1,49
361.5 -88 m 128,-1,59
 398 -68 398 -68 404 -26 c 0,60,61
 413 38 413 38 323 44 c 2,62,-1
 184 53 l 2,63,64
 164 54 164 54 142 44 c 128,-1,65
 120 34 120 34 104 15.5 c 128,-1,66
 88 -3 88 -3 84 -25 c 0,67,68
 72 -108 72 -108 252 -108 c 0,69,58
 325 -108 325 -108 361.5 -88 c 128,-1,59
EndSplineSet
EndChar

StartChar: h
Encoding: 104 104 75
Width: 594
GlyphClass: 2
Flags: W
AnchorPoint: "Anchor-5" -46 0 basechar 0
AnchorPoint: "Anchor-4" 257 0 basechar 0
AnchorPoint: "Anchor-3" 325 517 basechar 0
AnchorPoint: "Anchor-2" -46 0 basechar 0
LayerCount: 2
Fore
SplineSet
134 743 m 1,0,-1
 234 743 l 1,1,-1
 193 445 l 1,2,3
 234 475 234 475 258 490 c 128,-1,4
 282 505 282 505 311 514 c 128,-1,5
 340 523 340 523 377 523 c 0,6,7
 452 523 452 523 491.5 480 c 128,-1,8
 531 437 531 437 522 368 c 2,9,-1
 470 0 l 1,10,-1
 368 0 l 1,11,-1
 417 350 l 2,12,13
 423 393 423 393 401.5 417 c 128,-1,14
 380 441 380 441 334 441 c 0,15,16
 296 441 296 441 261.5 423 c 128,-1,17
 227 405 227 405 185 368 c 1,18,-1
 133 0 l 1,19,-1
 30 0 l 1,20,-1
 134 743 l 1,0,-1
EndSplineSet
EndChar

StartChar: i
Encoding: 105 105 76
Width: 261
GlyphClass: 2
Flags: W
LayerCount: 2
Fore
SplineSet
225 619 m 1,0,-1
 117 619 l 1,1,-1
 134 743 l 1,2,-1
 242 743 l 1,3,-1
 225 619 l 1,0,-1
136 0 m 1,4,-1
 33 0 l 1,5,-1
 106 517 l 1,6,-1
 209 517 l 1,7,-1
 136 0 l 1,4,-1
EndSplineSet
Substitution2: "Single Substitution lookup 28 subtable" dotlessi
Substitution2: "'locl' Localized Forms in Latin lookup 10 subtable" i.loclTRK
Substitution2: "'locl' Localized Forms in Latin lookup 9 subtable" i.loclTRK
Substitution2: "'locl' Localized Forms in Latin lookup 8 subtable" i.loclTRK
Substitution2: "'locl' Localized Forms in Latin lookup 7 subtable" i.loclTRK
Substitution2: "'locl' Localized Forms in Latin lookup 6 subtable" i.loclTRK
AlternateSubs2: "'aalt' Access All Alternates in Latin lookup 1 subtable" dotlessi i.loclTRK
EndChar

StartChar: j
Encoding: 106 106 77
Width: 279
GlyphClass: 2
Flags: W
LayerCount: 2
Fore
SplineSet
236 619 m 1,0,-1
 127 619 l 1,1,-1
 144 743 l 1,2,-1
 253 743 l 1,3,-1
 236 619 l 1,0,-1
93.5 -130.5 m 128,-1,5
 54 -166 54 -166 -26 -166 c 0,6,7
 -50 -166 -50 -166 -64.5 -163.5 c 128,-1,8
 -79 -161 -79 -161 -83.5 -158 c 128,-1,9
 -88 -155 -88 -155 -89 -154 c 2,10,-1
 -80 -86 l 1,11,-1
 -31 -83 l 2,12,13
 3 -80 3 -80 19.5 -65 c 128,-1,14
 36 -50 36 -50 41 -15 c 2,15,-1
 116 517 l 1,16,-1
 219 517 l 1,17,-1
 143 -18 l 2,18,4
 133 -95 133 -95 93.5 -130.5 c 128,-1,5
EndSplineSet
Substitution2: "Single Substitution lookup 28 subtable" uni0237
Substitution2: "'aalt' Access All Alternates in Latin lookup 0 subtable" uni0237
EndChar

StartChar: k
Encoding: 107 107 78
Width: 568
GlyphClass: 2
Flags: W
AnchorPoint: "Anchor-5" -46 0 basechar 0
AnchorPoint: "Anchor-4" 238 0 basechar 0
AnchorPoint: "Anchor-3" -46 0 basechar 0
AnchorPoint: "Anchor-2" -46 0 basechar 0
LayerCount: 2
Fore
SplineSet
386 0 m 1,0,-1
 265 253 l 1,1,-1
 155 153 l 1,2,-1
 133 0 l 1,3,-1
 30 0 l 1,4,-1
 134 743 l 1,5,-1
 237 743 l 1,6,-1
 170 262 l 1,7,-1
 443 517 l 1,8,-1
 554 517 l 1,9,-1
 340 318 l 1,10,-1
 493 0 l 1,11,-1
 386 0 l 1,0,-1
EndSplineSet
EndChar

StartChar: l
Encoding: 108 108 79
Width: 298
GlyphClass: 2
Flags: W
AnchorPoint: "Anchor-5" 262 740 basechar 0
AnchorPoint: "Anchor-4" 73 0 basechar 0
AnchorPoint: "Anchor-3" 79 763 basechar 0
AnchorPoint: "Anchor-2" -46 0 basechar 0
LayerCount: 2
Fore
SplineSet
63 34 m 128,-1,1
 40 72 40 72 49 138 c 2,2,-1
 134 743 l 1,3,-1
 235 743 l 1,4,-1
 152 149 l 2,5,6
 142 76 142 76 199 71 c 2,7,-1
 226 70 l 1,8,-1
 217 5 l 1,9,10
 187 -4 187 -4 166 -4 c 0,11,0
 86 -4 86 -4 63 34 c 128,-1,1
EndSplineSet
Substitution2: "'ss01' Style Set 1 in Latin lookup 27 subtable" l.ss01
Substitution2: "'salt' Stylistic Alternatives in Latin lookup 26 subtable" l.ss01
Substitution2: "'aalt' Access All Alternates in Latin lookup 0 subtable" l.ss01
EndChar

StartChar: m
Encoding: 109 109 80
Width: 908
GlyphClass: 2
Flags: W
LayerCount: 2
Fore
SplineSet
103 517 m 1,0,-1
 203 517 l 1,1,-1
 193 446 l 1,2,3
 222 479 222 479 266 503 c 128,-1,4
 310 527 310 527 365 527 c 0,5,6
 418 527 418 527 457.5 507 c 128,-1,7
 497 487 497 487 512 447 c 1,8,9
 542 484 542 484 587 505.5 c 128,-1,10
 632 527 632 527 684 527 c 0,11,12
 755 527 755 527 801 485 c 128,-1,13
 847 443 847 443 834 347 c 2,14,-1
 785 0 l 1,15,-1
 683 0 l 1,16,-1
 730 337 l 2,17,18
 746 448 746 448 638 448 c 0,19,20
 586 448 586 448 550 422 c 128,-1,21
 514 396 514 396 506 340 c 2,22,-1
 458 0 l 1,23,-1
 356 0 l 1,24,-1
 407 362 l 2,25,26
 413 403 413 403 385 425.5 c 128,-1,27
 357 448 357 448 311 448 c 0,28,29
 267 448 267 448 228 423.5 c 128,-1,30
 189 399 189 399 182 352 c 2,31,-1
 133 0 l 1,32,-1
 30 0 l 1,33,-1
 103 517 l 1,0,-1
EndSplineSet
EndChar

StartChar: n
Encoding: 110 110 81
Width: 594
GlyphClass: 2
Flags: W
AnchorPoint: "Anchor-5" -46 0 basechar 0
AnchorPoint: "Anchor-4" 251 0 basechar 0
AnchorPoint: "Anchor-3" 257 517 basechar 0
AnchorPoint: "Anchor-2" -46 0 basechar 0
LayerCount: 2
Fore
SplineSet
103 517 m 1,0,-1
 203 517 l 1,1,-1
 193 446 l 1,2,3
 257 524 257 524 364 524 c 0,4,5
 414 524 414 524 452 502.5 c 128,-1,6
 490 481 490 481 508.5 439.5 c 128,-1,7
 527 398 527 398 519 341 c 2,8,-1
 471 0 l 1,9,-1
 368 0 l 1,10,-1
 414 330 l 2,11,12
 421 382 421 382 396 411.5 c 128,-1,13
 371 441 371 441 322 441 c 0,14,15
 268 441 268 441 228 416 c 128,-1,16
 188 391 188 391 181 345 c 2,17,-1
 133 0 l 1,18,-1
 30 0 l 1,19,-1
 103 517 l 1,0,-1
EndSplineSet
EndChar

StartChar: o
Encoding: 111 111 82
Width: 568
GlyphClass: 2
Flags: W
AnchorPoint: "Anchor-5" -46 0 basechar 0
AnchorPoint: "Anchor-4" 237 0 basechar 0
AnchorPoint: "Anchor-3" 240 517 basechar 0
AnchorPoint: "Anchor-2" 306 10 basechar 0
LayerCount: 2
Fore
SplineSet
113.5 23.5 m 128,-1,1
 64 57 64 57 44 117 c 128,-1,2
 24 177 24 177 35 255 c 0,3,4
 46 335 46 335 84 396.5 c 128,-1,5
 122 458 122 458 181.5 492.5 c 128,-1,6
 241 527 241 527 313 527 c 0,7,8
 387 527 387 527 435.5 492.5 c 128,-1,9
 484 458 484 458 504 396.5 c 128,-1,10
 524 335 524 335 513 256 c 0,11,12
 502 178 502 178 465 117.5 c 128,-1,13
 428 57 428 57 369.5 23.5 c 128,-1,14
 311 -10 311 -10 237 -10 c 128,-1,0
 163 -10 163 -10 113.5 23.5 c 128,-1,1
359.5 122 m 128,-1,16
 401 175 401 175 412 259 c 0,17,18
 424 343 424 343 397.5 395.5 c 128,-1,19
 371 448 371 448 302 448 c 128,-1,20
 233 448 233 448 191 395.5 c 128,-1,21
 149 343 149 343 137 259 c 128,-1,22
 125 175 125 175 152.5 122 c 128,-1,23
 180 69 180 69 250 69 c 0,24,15
 318 69 318 69 359.5 122 c 128,-1,16
EndSplineSet
Substitution2: "Single Substitution lookup 30 subtable" ordmasculine
Substitution2: "'aalt' Access All Alternates in Latin lookup 0 subtable" ordmasculine
EndChar

StartChar: p
Encoding: 112 112 83
Width: 595
GlyphClass: 2
Flags: W
LayerCount: 2
Fore
SplineSet
103 517 m 1,0,-1
 205 517 l 1,1,-1
 195 447 l 1,2,3
 267 527 267 527 364 527 c 0,4,5
 425 527 425 527 469.5 498 c 128,-1,6
 514 469 514 469 533.5 410 c 128,-1,7
 553 351 553 351 541 265 c 0,8,9
 529 178 529 178 491 116 c 128,-1,10
 453 54 453 54 396.5 22 c 128,-1,11
 340 -10 340 -10 274 -10 c 0,12,13
 186 -10 186 -10 140 53 c 1,14,-1
 110 -161 l 1,15,-1
 7 -161 l 1,16,-1
 103 517 l 1,0,-1
381.5 119 m 128,-1,18
 431 171 431 171 444 262 c 0,19,20
 453 323 453 323 438.5 365 c 128,-1,21
 424 407 424 407 394 428 c 128,-1,22
 364 449 364 449 325 449 c 0,23,24
 290 449 290 449 257.5 431 c 128,-1,25
 225 413 225 413 204 386 c 128,-1,26
 183 359 183 359 180 332 c 2,27,-1
 154 150 l 1,28,29
 170 112 170 112 199 89.5 c 128,-1,30
 228 67 228 67 267 67 c 0,31,17
 332 67 332 67 381.5 119 c 128,-1,18
EndSplineSet
EndChar

StartChar: q
Encoding: 113 113 84
Width: 597
GlyphClass: 2
Flags: W
LayerCount: 2
Fore
SplineSet
348 -161 m 1,0,-1
 378 49 l 1,1,2
 337 18 337 18 299.5 4 c 128,-1,3
 262 -10 262 -10 221 -10 c 0,4,5
 155 -10 155 -10 109.5 22 c 128,-1,6
 64 54 64 54 44 116 c 128,-1,7
 24 178 24 178 36 265 c 0,8,9
 48 351 48 351 85 409.5 c 128,-1,10
 122 468 122 468 174 497.5 c 128,-1,11
 226 527 226 527 287 527 c 0,12,13
 342 527 342 527 375 506 c 128,-1,14
 408 485 408 485 436 455 c 1,15,-1
 445 517 l 1,16,-1
 547 517 l 1,17,-1
 451 -161 l 1,18,-1
 348 -161 l 1,0,-1
394 167 m 1,19,-1
 416 318 l 2,20,21
 424 374 424 374 394.5 413.5 c 128,-1,22
 365 453 365 453 309 453 c 0,23,24
 248 453 248 453 201 405 c 128,-1,25
 154 357 154 357 141 264 c 128,-1,26
 128 171 128 171 161.5 117 c 128,-1,27
 195 63 195 63 259 63 c 0,28,29
 334 63 334 63 394 167 c 1,19,-1
EndSplineSet
EndChar

StartChar: r
Encoding: 114 114 85
Width: 394
GlyphClass: 2
Flags: W
AnchorPoint: "Anchor-5" -46 0 basechar 0
AnchorPoint: "Anchor-4" 86 0 basechar 0
AnchorPoint: "Anchor-3" 170 517 basechar 0
AnchorPoint: "Anchor-2" -46 0 basechar 0
LayerCount: 2
Fore
SplineSet
103 517 m 1,0,-1
 201 517 l 1,1,-1
 185 404 l 1,2,3
 217 457 217 457 274 492 c 128,-1,4
 331 527 331 527 390 527 c 1,5,-1
 376 429 l 1,6,7
 323 432 323 432 279 414.5 c 128,-1,8
 235 397 235 397 207.5 366.5 c 128,-1,9
 180 336 180 336 176 304 c 2,10,-1
 133 0 l 1,11,-1
 30 0 l 1,12,-1
 103 517 l 1,0,-1
EndSplineSet
EndChar

StartChar: s
Encoding: 115 115 86
Width: 509
GlyphClass: 2
Flags: W
AnchorPoint: "Anchor-5" -46 0 basechar 0
AnchorPoint: "Anchor-4" 209 0 basechar 0
AnchorPoint: "Anchor-3" 205 517 basechar 0
AnchorPoint: "Anchor-2" -46 0 basechar 0
LayerCount: 2
Fore
SplineSet
71 29 m 128,-1,1
 18 68 18 68 15 140 c 1,2,-1
 103 149 l 1,3,4
 117 64 117 64 219 64 c 0,5,6
 271 64 271 64 309 84.5 c 128,-1,7
 347 105 347 105 352 140 c 0,8,9
 360 195 360 195 285 213 c 2,10,-1
 186 234 l 2,11,12
 117 250 117 250 87.5 283.5 c 128,-1,13
 58 317 58 317 65 371 c 0,14,15
 75 443 75 443 135 485 c 128,-1,16
 195 527 195 527 288 527 c 0,17,18
 382 527 382 527 428.5 484.5 c 128,-1,19
 475 442 475 442 468 375 c 1,20,-1
 380 370 l 1,21,22
 376 454 376 454 275 454 c 0,23,24
 230 454 230 454 197.5 436.5 c 128,-1,25
 165 419 165 419 159 378 c 0,26,27
 156 355 156 355 172.5 339 c 128,-1,28
 189 323 189 323 236 312 c 2,29,-1
 332 288 l 2,30,31
 400 271 400 271 424.5 231.5 c 128,-1,32
 449 192 449 192 442 145 c 0,33,34
 436 99 436 99 404 63.5 c 128,-1,35
 372 28 372 28 321 9 c 128,-1,36
 270 -10 270 -10 208 -10 c 0,37,0
 124 -10 124 -10 71 29 c 128,-1,1
EndSplineSet
EndChar

StartChar: t
Encoding: 116 116 87
Width: 399
GlyphClass: 2
Flags: W
AnchorPoint: "Anchor-5" 342 760 basechar 0
AnchorPoint: "Anchor-4" 214 0 basechar 0
AnchorPoint: "Anchor-3" -46 0 basechar 0
AnchorPoint: "Anchor-2" -46 0 basechar 0
LayerCount: 2
Fore
SplineSet
243 443 m 1,0,-1
 201 133 l 2,1,2
 196 96 196 96 205.5 83 c 128,-1,3
 215 70 215 70 240 70 c 2,4,-1
 312 70 l 1,5,-1
 303 6 l 1,6,7
 279 -3 279 -3 223 -3 c 0,8,9
 142 -3 142 -3 115 29 c 128,-1,10
 88 61 88 61 97 127 c 2,11,-1
 141 443 l 1,12,-1
 57 443 l 1,13,-1
 68 517 l 1,14,-1
 155 517 l 1,15,-1
 190 686 l 1,16,-1
 277 686 l 1,17,-1
 254 517 l 1,18,-1
 371 517 l 1,19,-1
 360 443 l 1,20,-1
 243 443 l 1,0,-1
EndSplineSet
EndChar

StartChar: u
Encoding: 117 117 88
Width: 594
GlyphClass: 2
Flags: W
AnchorPoint: "Anchor-5" -46 0 basechar 0
AnchorPoint: "Anchor-4" 250 0 basechar 0
AnchorPoint: "Anchor-3" 243 517 basechar 0
AnchorPoint: "Anchor-2" 453 11 basechar 0
LayerCount: 2
Fore
SplineSet
135.5 9.5 m 128,-1,1
 93 28 93 28 69 67 c 128,-1,2
 45 106 45 106 53 165 c 2,3,-1
 103 518 l 1,4,-1
 206 518 l 1,5,-1
 158 176 l 2,6,7
 150 122 150 122 181 95.5 c 128,-1,8
 212 69 212 69 258 69 c 0,9,10
 308 69 308 69 346.5 98.5 c 128,-1,11
 385 128 385 128 393 181 c 2,12,-1
 441 518 l 1,13,-1
 544 518 l 1,14,-1
 469 1 l 1,15,-1
 389 1 l 1,16,-1
 395 79 l 1,17,18
 372 43 372 43 322.5 17 c 128,-1,19
 273 -9 273 -9 225 -9 c 0,20,0
 178 -9 178 -9 135.5 9.5 c 128,-1,1
EndSplineSet
EndChar

StartChar: v
Encoding: 118 118 89
Width: 536
GlyphClass: 2
Flags: W
LayerCount: 2
Fore
SplineSet
260 0 m 1,0,-1
 184 0 l 1,1,-1
 47 517 l 1,2,-1
 143 517 l 1,3,-1
 241 131 l 1,4,-1
 448 517 l 1,5,-1
 543 517 l 1,6,-1
 260 0 l 1,0,-1
EndSplineSet
EndChar

StartChar: w
Encoding: 119 119 90
Width: 780
GlyphClass: 2
Flags: W
AnchorPoint: "Anchor-5" -46 0 basechar 0
AnchorPoint: "Anchor-4" -46 0 basechar 0
AnchorPoint: "Anchor-3" 348 517 basechar 0
AnchorPoint: "Anchor-2" -46 0 basechar 0
LayerCount: 2
Fore
SplineSet
548 0 m 1,0,-1
 460 0 l 1,1,-1
 394 369 l 1,2,-1
 229 0 l 1,3,-1
 142 0 l 1,4,-1
 50 517 l 1,5,-1
 144 517 l 1,6,-1
 208 134 l 1,7,-1
 379 517 l 1,8,-1
 455 517 l 1,9,-1
 521 134 l 1,10,-1
 689 517 l 1,11,-1
 784 517 l 1,12,-1
 548 0 l 1,0,-1
EndSplineSet
EndChar

StartChar: x
Encoding: 120 120 91
Width: 551
GlyphClass: 2
Flags: W
LayerCount: 2
Fore
SplineSet
375 0 m 1,0,-1
 257 196 l 1,1,-1
 84 0 l 1,2,-1
 -26 0 l 1,3,-1
 211 269 l 1,4,-1
 63 517 l 1,5,-1
 173 517 l 1,6,-1
 278 342 l 1,7,-1
 432 517 l 1,8,-1
 542 517 l 1,9,-1
 324 269 l 1,10,-1
 485 0 l 1,11,-1
 375 0 l 1,0,-1
EndSplineSet
EndChar

StartChar: y
Encoding: 121 121 92
Width: 537
GlyphClass: 2
Flags: W
AnchorPoint: "Anchor-5" -46 0 basechar 0
AnchorPoint: "Anchor-4" -46 0 basechar 0
AnchorPoint: "Anchor-3" 234 517 basechar 0
AnchorPoint: "Anchor-2" -46 0 basechar 0
LayerCount: 2
Fore
SplineSet
14.5 -162 m 128,-1,1
 -3 -159 -3 -159 -11 -155.5 c 128,-1,2
 -19 -152 -19 -152 -21 -151 c 2,3,-1
 -12 -85 l 1,4,-1
 41 -87 l 2,5,6
 93 -89 93 -89 117 -73 c 128,-1,7
 141 -57 141 -57 156 -31 c 2,8,-1
 178 14 l 1,9,-1
 47 517 l 1,10,-1
 150 517 l 1,11,-1
 242 129 l 1,12,-1
 444 517 l 1,13,-1
 544 517 l 1,14,-1
 251 -32 l 2,15,16
 209 -107 209 -107 164 -136 c 128,-1,17
 119 -165 119 -165 60 -165 c 0,18,0
 32 -165 32 -165 14.5 -162 c 128,-1,1
EndSplineSet
EndChar

StartChar: z
Encoding: 122 122 93
Width: 493
GlyphClass: 2
Flags: W
AnchorPoint: "Anchor-5" -46 0 basechar 0
AnchorPoint: "Anchor-4" -46 0 basechar 0
AnchorPoint: "Anchor-3" 215 517 basechar 0
AnchorPoint: "Anchor-2" -46 0 basechar 0
LayerCount: 2
Fore
SplineSet
0 60 m 1,0,-1
 346 448 l 1,1,-1
 76 448 l 1,2,-1
 86 517 l 1,3,-1
 481 517 l 1,4,-1
 472 457 l 1,5,-1
 126 69 l 1,6,-1
 422 69 l 1,7,-1
 412 0 l 1,8,-1
 -8 0 l 1,9,-1
 0 60 l 1,0,-1
EndSplineSet
EndChar

StartChar: braceleft
Encoding: 123 123 94
Width: 333
GlyphClass: 2
Flags: W
LayerCount: 2
Fore
SplineSet
210 694.5 m 128,-1,1
 252 723 252 723 309 723 c 2,2,-1
 364 723 l 1,3,-1
 355 659 l 1,4,-1
 318 659 l 2,5,6
 281 659 281 659 266.5 646.5 c 128,-1,7
 252 634 252 634 248 608 c 2,8,-1
 219 398 l 2,9,10
 211 346 211 346 178 318.5 c 128,-1,11
 145 291 145 291 103 287 c 0,12,13
 97 286 97 286 96 283.5 c 128,-1,14
 95 281 95 281 102 280 c 0,15,16
 144 277 144 277 168.5 250.5 c 128,-1,17
 193 224 193 224 187 168 c 2,18,-1
 157 -44 l 2,19,20
 153 -73 153 -73 164.5 -85 c 128,-1,21
 176 -97 176 -97 211 -97 c 2,22,-1
 248 -97 l 1,23,-1
 239 -161 l 1,24,-1
 186 -161 l 2,25,26
 126 -161 126 -161 93 -132 c 128,-1,27
 60 -103 60 -103 66 -54 c 2,28,-1
 96 160 l 2,29,30
 101 198 101 198 76 226 c 128,-1,31
 51 254 51 254 -3 254 c 1,32,-1
 5 313 l 1,33,34
 62 314 62 314 93.5 339.5 c 128,-1,35
 125 365 125 365 132 411 c 2,36,-1
 161 618 l 2,37,0
 168 666 168 666 210 694.5 c 128,-1,1
EndSplineSet
EndChar

StartChar: bar
Encoding: 124 124 95
Width: 261
GlyphClass: 2
Flags: W
LayerCount: 2
Fore
SplineSet
22 -161 m 1,0,-1
 161 826 l 1,1,-1
 239 826 l 1,2,-1
 100 -161 l 1,3,-1
 22 -161 l 1,0,-1
EndSplineSet
EndChar

StartChar: braceright
Encoding: 125 125 96
Width: 333
GlyphClass: 2
Flags: W
LayerCount: 2
Fore
SplineSet
151 -132.5 m 128,-1,1
 109 -161 109 -161 52 -161 c 2,2,-1
 -3 -161 l 1,3,-1
 6 -97 l 1,4,-1
 43 -97 l 2,5,6
 80 -97 80 -97 94.5 -84.5 c 128,-1,7
 109 -72 109 -72 113 -46 c 2,8,-1
 142 164 l 2,9,10
 150 216 150 216 183 243.5 c 128,-1,11
 216 271 216 271 258 275 c 0,12,13
 264 276 264 276 265 278.5 c 128,-1,14
 266 281 266 281 259 282 c 0,15,16
 217 285 217 285 192.5 311.5 c 128,-1,17
 168 338 168 338 174 394 c 2,18,-1
 204 606 l 2,19,20
 208 635 208 635 196.5 647 c 128,-1,21
 185 659 185 659 150 659 c 2,22,-1
 113 659 l 1,23,-1
 122 723 l 1,24,-1
 175 723 l 2,25,26
 235 723 235 723 268 694 c 128,-1,27
 301 665 301 665 295 616 c 2,28,-1
 265 402 l 2,29,30
 260 364 260 364 285 336 c 128,-1,31
 310 308 310 308 364 308 c 1,32,-1
 356 249 l 1,33,34
 299 248 299 248 267.5 222.5 c 128,-1,35
 236 197 236 197 229 151 c 2,36,-1
 200 -56 l 2,37,0
 193 -104 193 -104 151 -132.5 c 128,-1,1
EndSplineSet
EndChar

StartChar: asciitilde
Encoding: 126 126 97
Width: 576
GlyphClass: 2
Flags: W
LayerCount: 2
Fore
SplineSet
459.5 322 m 128,-1,1
 423 303 423 303 380 303 c 0,2,3
 352 303 352 303 331.5 310 c 128,-1,4
 311 317 311 317 283 332 c 0,5,6
 259 345 259 345 241 351 c 128,-1,7
 223 357 223 357 201 357 c 0,8,9
 167 357 167 357 140 341.5 c 128,-1,10
 113 326 113 326 83 298 c 1,11,-1
 62 354 l 1,12,13
 102 389 102 389 135.5 407.5 c 128,-1,14
 169 426 169 426 211 426 c 0,15,16
 237 426 237 426 258.5 419 c 128,-1,17
 280 412 280 412 306 398 c 0,18,19
 333 384 333 384 350 378 c 128,-1,20
 367 372 367 372 388 372 c 0,21,22
 449 372 449 372 498 431 c 1,23,-1
 521 374 l 1,24,0
 496 341 496 341 459.5 322 c 128,-1,1
EndSplineSet
EndChar

StartChar: exclamdown
Encoding: 161 161 99
Width: 257
GlyphClass: 2
Flags: W
LayerCount: 2
Fore
SplineSet
76 393 m 1,0,-1
 94 517 l 1,1,-1
 213 517 l 1,2,-1
 195 393 l 1,3,-1
 76 393 l 1,0,-1
-3 -161 m 1,4,-1
 93 325 l 1,5,-1
 160 325 l 1,6,-1
 119 -161 l 1,7,-1
 -3 -161 l 1,4,-1
EndSplineSet
EndChar

StartChar: cent
Encoding: 162 162 100
Width: 544
GlyphClass: 2
Flags: W
AnchorPoint: "Anchor-1" 243 628 basechar 0
AnchorPoint: "Anchor-0" 244 111 basechar 0
LayerCount: 2
Fore
SplineSet
408 153.5 m 128,-1,1
 359 113 359 113 294 104 c 1,2,-1
 279 0 l 1,3,-1
 206 0 l 1,4,-1
 221 104 l 1,5,6
 131 117 131 117 85.5 188 c 128,-1,7
 40 259 40 259 56 367 c 0,8,9
 71 476 71 476 136 549 c 128,-1,10
 201 622 201 622 295 635 c 1,11,-1
 308 723 l 1,12,-1
 381 723 l 1,13,-1
 368 635 l 1,14,15
 431 626 431 626 466.5 585 c 128,-1,16
 502 544 502 544 514 482 c 1,17,-1
 428 469 l 1,18,19
 404 517 404 517 383.5 537 c 128,-1,20
 363 557 363 557 325 557 c 0,21,22
 258 557 258 557 211.5 506.5 c 128,-1,23
 165 456 165 456 153 369 c 0,24,25
 141 281 141 281 173.5 229 c 128,-1,26
 206 177 206 177 273 177 c 0,27,28
 315 177 315 177 346 201.5 c 128,-1,29
 377 226 377 226 406 271 c 1,30,-1
 486 258 l 1,31,0
 457 194 457 194 408 153.5 c 128,-1,1
EndSplineSet
EndChar

StartChar: sterling
Encoding: 163 163 101
Width: 618
GlyphClass: 2
Flags: W
LayerCount: 2
Fore
SplineSet
-19 87 m 1,0,-1
 18 87 l 2,1,2
 58 87 58 87 87 119.5 c 128,-1,3
 116 152 116 152 126 218 c 0,4,5
 133 265 133 265 132 343 c 1,6,-1
 31 343 l 1,7,-1
 40 406 l 1,8,-1
 129 406 l 1,9,-1
 127 490 l 2,10,11
 126 518 126 518 129 539 c 0,12,13
 137 598 137 598 172 642 c 128,-1,14
 207 686 207 686 259.5 709.5 c 128,-1,15
 312 733 312 733 369 733 c 0,16,17
 441 733 441 733 493 699 c 128,-1,18
 545 665 545 665 562 610 c 1,19,-1
 467 579 l 1,20,21
 454 614 454 614 432 630.5 c 128,-1,22
 410 647 410 647 371 647 c 0,23,24
 322 647 322 647 287 619 c 128,-1,25
 252 591 252 591 245 541 c 0,26,27
 237 485 237 485 247 407 c 1,28,-1
 406 407 l 1,29,-1
 397 344 l 1,30,-1
 247 344 l 1,31,32
 247 299 247 299 243 267 c 0,33,34
 241 256 241 256 235 230 c 0,35,36
 217 139 217 139 157 88 c 1,37,-1
 324 88 l 2,38,39
 375 88 375 88 406.5 106 c 128,-1,40
 438 124 438 124 462 169 c 1,41,-1
 546 147 l 1,42,43
 479 0 479 0 319 0 c 2,44,-1
 -31 0 l 1,45,-1
 -19 87 l 1,0,-1
EndSplineSet
EndChar

StartChar: currency
Encoding: 164 164 102
Width: 545
GlyphClass: 2
Flags: W
LayerCount: 2
Fore
SplineSet
146 199 m 0,0,1
 139 204 139 204 132 198 c 2,2,-1
 69 142 l 1,3,-1
 29 192 l 1,4,-1
 98 252 l 1,5,6
 70 304 70 304 79 364 c 0,7,8
 87 419 87 419 124 468 c 0,9,10
 128 473 128 473 128 475 c 0,11,12
 128 476 128 476 125 482 c 2,13,-1
 78 537 l 1,14,-1
 133 585 l 1,15,-1
 186 523 l 1,16,17
 212 540 212 540 242.5 549.5 c 128,-1,18
 273 559 273 559 302 559 c 0,19,20
 361 559 361 559 403 527 c 0,21,22
 408 522 408 522 415 528 c 2,23,-1
 477 583 l 1,24,-1
 517 534 l 1,25,-1
 450 475 l 1,26,27
 478 423 478 423 469 364 c 0,28,29
 460 302 460 302 423 259 c 0,30,31
 418 254 418 254 422 248 c 2,32,-1
 470 195 l 1,33,-1
 416 146 l 1,34,-1
 365 205 l 1,35,36
 307 168 307 168 249 168 c 0,37,38
 190 168 190 168 146 199 c 0,0,1
349.5 278.5 m 128,-1,40
 389 314 389 314 396 364 c 0,41,42
 400 396 400 396 389 424 c 128,-1,43
 378 452 378 452 352.5 468.5 c 128,-1,44
 327 485 327 485 293 485 c 128,-1,45
 259 485 259 485 229 468.5 c 128,-1,46
 199 452 199 452 179 424 c 128,-1,47
 159 396 159 396 154 364 c 0,48,49
 147 314 147 314 177 278.5 c 128,-1,50
 207 243 207 243 259 243 c 0,51,39
 310 243 310 243 349.5 278.5 c 128,-1,40
EndSplineSet
EndChar

StartChar: yen
Encoding: 165 165 103
Width: 617
GlyphClass: 2
Flags: W
LayerCount: 2
Fore
SplineSet
385 340 m 1,0,-1
 524 340 l 1,1,-1
 515 278 l 1,2,-1
 363 278 l 1,3,-1
 351 192 l 1,4,-1
 503 192 l 1,5,-1
 494 130 l 1,6,-1
 342 130 l 1,7,-1
 324 0 l 1,8,-1
 207 0 l 1,9,-1
 225 129 l 1,10,-1
 73 129 l 1,11,-1
 82 191 l 1,12,-1
 234 191 l 1,13,-1
 246 278 l 1,14,-1
 94 278 l 1,15,-1
 103 340 l 1,16,-1
 232 340 l 1,17,-1
 57 723 l 1,18,-1
 190 723 l 1,19,-1
 330 400 l 1,20,-1
 562 723 l 1,21,-1
 672 723 l 1,22,-1
 385 340 l 1,0,-1
EndSplineSet
EndChar

StartChar: brokenbar
Encoding: 166 166 104
Width: 261
GlyphClass: 2
Flags: W
LayerCount: 2
Fore
SplineSet
105 424 m 1,0,-1
 161 826 l 1,1,-1
 239 826 l 1,2,-1
 183 424 l 1,3,-1
 105 424 l 1,0,-1
22 -161 m 1,4,-1
 79 241 l 1,5,-1
 157 241 l 1,6,-1
 100 -161 l 1,7,-1
 22 -161 l 1,4,-1
EndSplineSet
EndChar

StartChar: section
Encoding: 167 167 105
Width: 490
GlyphClass: 2
Flags: W
LayerCount: 2
Fore
SplineSet
66 -40.5 m 128,-1,1
 11 -8 11 -8 -8 43 c 1,2,-1
 64 78 l 1,3,4
 82 41 82 41 117 18.5 c 128,-1,5
 152 -4 152 -4 203 -4 c 0,6,7
 251 -4 251 -4 283 14 c 128,-1,8
 315 32 315 32 320 64 c 0,9,10
 324 90 324 90 305.5 110.5 c 128,-1,11
 287 131 287 131 238 152 c 2,12,-1
 159 184 l 2,13,14
 92 211 92 211 65 246.5 c 128,-1,15
 38 282 38 282 45 333 c 0,16,17
 51 378 51 378 82.5 411.5 c 128,-1,18
 114 445 114 445 160 463 c 1,19,20
 112 491 112 491 96 521.5 c 128,-1,21
 80 552 80 552 85 590 c 0,22,23
 91 630 91 630 119 663 c 128,-1,24
 147 696 147 696 193 714.5 c 128,-1,25
 239 733 239 733 296 733 c 0,26,27
 361 733 361 733 409.5 703.5 c 128,-1,28
 458 674 458 674 478 630 c 1,29,-1
 406 595 l 1,30,31
 360 664 360 664 290 664 c 0,32,33
 243 664 243 664 213.5 646.5 c 128,-1,34
 184 629 184 629 180 599 c 0,35,36
 174 556 174 556 244 525 c 2,37,-1
 321 493 l 2,38,39
 396 462 396 462 425.5 423.5 c 128,-1,40
 455 385 455 385 448 331 c 0,41,42
 436 248 436 248 343 203 c 1,43,44
 385 177 385 177 403 146 c 128,-1,45
 421 115 421 115 416 75 c 0,46,47
 407 9 407 9 347 -32 c 128,-1,48
 287 -73 287 -73 195 -73 c 0,49,0
 121 -73 121 -73 66 -40.5 c 128,-1,1
324 259 m 128,-1,51
 352 281 352 281 357 314 c 0,52,53
 361 345 361 345 346.5 366.5 c 128,-1,54
 332 388 332 388 286 407 c 2,55,-1
 237 427 l 1,56,57
 198 424 198 424 168.5 400.5 c 128,-1,58
 139 377 139 377 135 347 c 0,59,60
 131 320 131 320 145.5 302.5 c 128,-1,61
 160 285 160 285 208 265 c 2,62,-1
 263 240 l 1,63,50
 296 237 296 237 324 259 c 128,-1,51
EndSplineSet
EndChar

StartChar: dieresis
Encoding: 168 168 106
Width: 285
GlyphClass: 2
Flags: W
LayerCount: 2
Fore
SplineSet
149 610 m 1,0,-1
 53 610 l 1,1,-1
 69 723 l 1,2,-1
 165 723 l 1,3,-1
 149 610 l 1,0,-1
309 610 m 1,4,-1
 212 610 l 1,5,-1
 228 723 l 1,6,-1
 325 723 l 1,7,-1
 309 610 l 1,4,-1
EndSplineSet
EndChar

StartChar: copyright
Encoding: 169 169 107
Width: 819
GlyphClass: 2
Flags: W
LayerCount: 2
Fore
SplineSet
181 40 m 128,-1,1
 103 90 103 90 65 175 c 128,-1,2
 27 260 27 260 41 362 c 0,3,4
 55 462 55 462 117 547.5 c 128,-1,5
 179 633 179 633 271 683 c 128,-1,6
 363 733 363 733 464 733 c 128,-1,7
 565 733 565 733 643.5 683 c 128,-1,8
 722 633 722 633 760 547.5 c 128,-1,9
 798 462 798 462 784 362 c 0,10,11
 770 260 770 260 708 175 c 128,-1,12
 646 90 646 90 553.5 40 c 128,-1,13
 461 -10 461 -10 360 -10 c 128,-1,0
 259 -10 259 -10 181 40 c 128,-1,1
527 94 m 128,-1,15
 601 132 601 132 650.5 201.5 c 128,-1,16
 700 271 700 271 713 362 c 0,17,18
 726 452 726 452 695.5 522 c 128,-1,19
 665 592 665 592 601.5 630.5 c 128,-1,20
 538 669 538 669 455 669 c 0,21,22
 370 669 370 669 296 630.5 c 128,-1,23
 222 592 222 592 173 522 c 128,-1,24
 124 452 124 452 111 362 c 0,25,26
 98 271 98 271 128 201.5 c 128,-1,27
 158 132 158 132 221 94 c 128,-1,28
 284 56 284 56 369 56 c 0,29,14
 453 56 453 56 527 94 c 128,-1,15
541.5 540.5 m 128,-1,31
 578 508 578 508 595 458 c 1,32,-1
 518 443 l 1,33,34
 494 512 494 512 439 512 c 0,35,36
 390 512 390 512 354.5 473 c 128,-1,37
 319 434 319 434 309 365 c 0,38,39
 299 295 299 295 324 256 c 128,-1,40
 349 217 349 217 400 217 c 0,41,42
 468 217 468 217 517 291 c 1,43,-1
 570 273 l 1,44,45
 541 224 541 224 494 190 c 128,-1,46
 447 156 447 156 386 156 c 0,47,48
 330 156 330 156 289.5 182 c 128,-1,49
 249 208 249 208 231 255 c 128,-1,50
 213 302 213 302 222 363 c 128,-1,51
 231 424 231 424 262.5 472 c 128,-1,52
 294 520 294 520 342 546.5 c 128,-1,53
 390 573 390 573 445 573 c 0,54,30
 505 573 505 573 541.5 540.5 c 128,-1,31
EndSplineSet
EndChar

StartChar: ordfeminine
Encoding: 170 170 108
Width: 417
GlyphClass: 2
Flags: W
LayerCount: 2
Fore
SplineSet
88 420.5 m 128,-1,1
 63 445 63 445 68 487 c 0,2,3
 75 534 75 534 121.5 563 c 128,-1,4
 168 592 168 592 248 596 c 2,5,-1
 300 600 l 1,6,-1
 304 623 l 2,7,8
 308 654 308 654 291.5 668 c 128,-1,9
 275 682 275 682 244 682 c 0,10,11
 217 682 217 682 196.5 671.5 c 128,-1,12
 176 661 176 661 158 635 c 1,13,-1
 99 651 l 1,14,15
 123 691 123 691 160.5 711 c 128,-1,16
 198 731 198 731 254 731 c 0,17,18
 386 731 386 731 371 624 c 2,19,-1
 354 505 l 2,20,21
 348 465 348 465 348 437 c 2,22,-1
 350 402 l 1,23,-1
 279 402 l 1,24,-1
 277 443 l 1,25,26
 245 418 245 418 220 407 c 128,-1,27
 195 396 195 396 164 396 c 0,28,0
 113 396 113 396 88 420.5 c 128,-1,1
260 467 m 0,29,30
 272 477 272 477 279 486 c 128,-1,31
 286 495 286 495 287 505 c 2,32,-1
 294 557 l 1,33,-1
 250 555 l 2,34,35
 199 551 199 551 171 534.5 c 128,-1,36
 143 518 143 518 139 491 c 0,37,38
 136 469 136 469 151 456.5 c 128,-1,39
 166 444 166 444 194 444 c 0,40,41
 231 444 231 444 260 467 c 0,29,30
EndSplineSet
EndChar

StartChar: guillemotleft
Encoding: 171 171 109
Width: 459
GlyphClass: 2
Flags: W
LayerCount: 2
Fore
SplineSet
189 69 m 1,0,-1
 133 69 l 1,1,-1
 29 251 l 1,2,-1
 185 441 l 1,3,-1
 243 441 l 1,4,-1
 118 251 l 1,5,-1
 189 69 l 1,0,-1
369 69 m 1,6,-1
 312 69 l 1,7,-1
 208 251 l 1,8,-1
 364 441 l 1,9,-1
 422 441 l 1,10,-1
 298 251 l 1,11,-1
 369 69 l 1,6,-1
EndSplineSet
EndChar

StartChar: logicalnot
Encoding: 172 172 110
Width: 561
GlyphClass: 2
Flags: W
LayerCount: 2
Fore
SplineSet
509 403 m 1,0,-1
 477 180 l 1,1,-1
 392 180 l 1,2,-1
 413 325 l 1,3,-1
 59 324 l 1,4,-1
 69 402 l 1,5,-1
 509 403 l 1,0,-1
EndSplineSet
EndChar

StartChar: uni00AD
Encoding: 173 173 111
Width: 374
GlyphClass: 2
Flags: W
LayerCount: 2
Fore
SplineSet
310 219 m 1,0,-1
 53 218 l 1,1,-1
 64 297 l 1,2,-1
 321 298 l 1,3,-1
 310 219 l 1,0,-1
EndSplineSet
EndChar

StartChar: registered
Encoding: 174 174 112
Width: 541
GlyphClass: 2
Flags: W
LayerCount: 2
Fore
SplineSet
147.5 299 m 128,-1,1
 98 330 98 330 74.5 383 c 128,-1,2
 51 436 51 436 60 500 c 128,-1,3
 69 564 69 564 107.5 617 c 128,-1,4
 146 670 146 670 204 701.5 c 128,-1,5
 262 733 262 733 326 733 c 0,6,7
 389 733 389 733 438 701.5 c 128,-1,8
 487 670 487 670 510.5 616.5 c 128,-1,9
 534 563 534 563 525 500 c 128,-1,10
 516 437 516 437 477.5 383.5 c 128,-1,11
 439 330 439 330 381.5 299 c 128,-1,12
 324 268 324 268 261 268 c 0,13,0
 197 268 197 268 147.5 299 c 128,-1,1
404.5 366 m 128,-1,15
 461 416 461 416 473 500 c 0,16,17
 485 583 485 583 442 634 c 128,-1,18
 399 685 399 685 319 685 c 0,19,20
 237 685 237 685 180.5 634 c 128,-1,21
 124 583 124 583 112 500 c 0,22,23
 100 416 100 416 142.5 366 c 128,-1,24
 185 316 185 316 267 316 c 0,25,14
 348 316 348 316 404.5 366 c 128,-1,15
219 614 m 1,26,-1
 323 614 l 2,27,28
 362 614 362 614 381.5 598.5 c 128,-1,29
 401 583 401 583 397 555 c 0,30,31
 391 511 391 511 340 493 c 1,32,-1
 370 383 l 1,33,-1
 320 383 l 1,34,-1
 297 488 l 1,35,-1
 247 488 l 1,36,-1
 232 383 l 1,37,-1
 187 383 l 1,38,-1
 219 614 l 1,26,-1
307 524 m 2,39,40
 345 524 345 524 348 551 c 0,41,42
 352 579 352 579 311 579 c 2,43,-1
 259 579 l 1,44,-1
 252 524 l 1,45,-1
 307 524 l 2,39,40
EndSplineSet
EndChar

StartChar: macron
Encoding: 175 175 113
Width: 338
GlyphClass: 2
Flags: W
LayerCount: 2
Fore
SplineSet
365 641 m 1,0,-1
 57 641 l 1,1,-1
 67 712 l 1,2,-1
 375 712 l 1,3,-1
 365 641 l 1,0,-1
EndSplineSet
EndChar

StartChar: degree
Encoding: 176 176 114
Width: 463
GlyphClass: 2
Flags: W
LayerCount: 2
Fore
SplineSet
404.5 595 m 128,-1,1
 379 559 379 559 340 538.5 c 128,-1,2
 301 518 301 518 256 518 c 0,3,4
 187 518 187 518 148 562.5 c 128,-1,5
 109 607 109 607 119 677 c 0,6,7
 125 723 125 723 151 759.5 c 128,-1,8
 177 796 177 796 216.5 816.5 c 128,-1,9
 256 837 256 837 301 837 c 128,-1,10
 346 837 346 837 379 816.5 c 128,-1,11
 412 796 412 796 427.5 759.5 c 128,-1,12
 443 723 443 723 436 677 c 0,13,0
 430 631 430 631 404.5 595 c 128,-1,1
352 745 m 128,-1,15
 331 771 331 771 289 771 c 0,16,17
 249 771 249 771 220 745 c 128,-1,18
 191 719 191 719 185 678 c 0,19,20
 179 635 179 635 200.5 608 c 128,-1,21
 222 581 222 581 264 581 c 0,22,23
 305 581 305 581 333 607 c 128,-1,24
 361 633 361 633 367 676 c 128,-1,14
 373 719 373 719 352 745 c 128,-1,15
EndSplineSet
EndChar

StartChar: plusminus
Encoding: 177 177 115
Width: 561
GlyphClass: 2
Flags: W
LayerCount: 2
Fore
SplineSet
520 481 m 1,0,-1
 509 403 l 1,1,-1
 329 403 l 1,2,-1
 303 223 l 1,3,-1
 225 223 l 1,4,-1
 250 402 l 1,5,-1
 69 402 l 1,6,-1
 80 480 l 1,7,-1
 261 480 l 1,8,-1
 287 662 l 1,9,-1
 365 662 l 1,10,-1
 340 481 l 1,11,-1
 520 481 l 1,0,-1
32 132 m 1,12,-1
 471 132 l 1,13,-1
 460 55 l 1,14,-1
 21 54 l 1,15,-1
 32 132 l 1,12,-1
EndSplineSet
EndChar

StartChar: uni00B2
Encoding: 178 178 116
Width: 379
GlyphClass: 2
Flags: W
LayerCount: 2
Fore
SplineSet
30 437 m 1,0,-1
 195 576 l 2,1,2
 258 629 258 629 281.5 656.5 c 128,-1,3
 305 684 305 684 310 714 c 0,4,5
 315 751 315 751 292 770 c 128,-1,6
 269 789 269 789 235 789 c 0,7,8
 203 789 203 789 174 773 c 128,-1,9
 145 757 145 757 125 724 c 1,10,-1
 69 735 l 1,11,12
 91 787 91 787 136 816 c 128,-1,13
 181 845 181 845 246 845 c 0,14,15
 312 845 312 845 348.5 810.5 c 128,-1,16
 385 776 385 776 377 716 c 0,17,18
 372 678 372 678 347 645.5 c 128,-1,19
 322 613 322 613 262 560 c 2,20,-1
 123 440 l 1,21,-1
 343 440 l 1,22,-1
 335 384 l 1,23,-1
 22 384 l 1,24,-1
 30 437 l 1,0,-1
EndSplineSet
EndChar

StartChar: uni00B3
Encoding: 179 179 117
Width: 394
GlyphClass: 2
Flags: W
LayerCount: 2
Fore
SplineSet
161 821 m 128,-1,1
 210 845 210 845 272 845 c 0,2,3
 342 845 342 845 382 812 c 128,-1,4
 422 779 422 779 415 729 c 0,5,6
 405 656 405 656 314 627 c 1,7,8
 357 614 357 614 381 584.5 c 128,-1,9
 405 555 405 555 399 512 c 0,10,11
 394 473 394 473 366 442.5 c 128,-1,12
 338 412 338 412 294.5 395 c 128,-1,13
 251 378 251 378 201 378 c 0,14,15
 133 378 133 378 94 400.5 c 128,-1,16
 55 423 55 423 44 478 c 1,17,-1
 104 488 l 1,18,19
 130 432 130 432 207 432 c 0,20,21
 257 432 257 432 289.5 454 c 128,-1,22
 322 476 322 476 327 510 c 0,23,24
 332 548 332 548 304.5 570.5 c 128,-1,25
 277 593 277 593 233 593 c 2,26,-1
 172 594 l 1,27,-1
 179 647 l 1,28,-1
 230 648 l 2,29,30
 275 649 275 649 307.5 670.5 c 128,-1,31
 340 692 340 692 345 724 c 0,32,33
 349 754 349 754 325.5 773 c 128,-1,34
 302 792 302 792 263 792 c 0,35,36
 185 792 185 792 150 736 c 1,37,-1
 93 747 l 1,38,0
 112 797 112 797 161 821 c 128,-1,1
EndSplineSet
EndChar

StartChar: acute
Encoding: 180 180 118
Width: 293
GlyphClass: 2
Flags: W
LayerCount: 2
Fore
SplineSet
327 658 m 1,0,-1
 63 585 l 1,1,-1
 53 635 l 1,2,-1
 313 733 l 1,3,-1
 327 658 l 1,0,-1
EndSplineSet
EndChar

StartChar: paragraph
Encoding: 182 182 119
Width: 578
GlyphClass: 2
Flags: W
LayerCount: 2
Fore
SplineSet
487 662 m 1,0,-1
 382 -83 l 1,1,-1
 316 -83 l 1,2,-1
 421 662 l 1,3,-1
 369 662 l 1,4,-1
 264 -83 l 1,5,-1
 197 -83 l 1,6,-1
 251 298 l 1,7,8
 189 300 189 300 145.5 327.5 c 128,-1,9
 102 355 102 355 82 401 c 128,-1,10
 62 447 62 447 70 505 c 0,11,12
 78 564 78 564 111.5 613.5 c 128,-1,13
 145 663 145 663 201.5 693 c 128,-1,14
 258 723 258 723 331 723 c 2,15,-1
 557 723 l 1,16,-1
 548 662 l 1,17,-1
 487 662 l 1,0,-1
EndSplineSet
EndChar

StartChar: periodcentered
Encoding: 183 183 120
Width: 223
GlyphClass: 2
Flags: W
LayerCount: 2
Fore
SplineSet
166 306 m 1,0,-1
 45 306 l 1,1,-1
 61 423 l 1,2,-1
 182 423 l 1,3,-1
 166 306 l 1,0,-1
EndSplineSet
EndChar

StartChar: cedilla
Encoding: 184 184 121
Width: 237
GlyphClass: 2
Flags: W
LayerCount: 2
Fore
SplineSet
116 -186 m 128,-1,1
 81 -207 81 -207 35 -207 c 0,2,3
 -25 -207 -25 -207 -61 -182 c 1,4,-1
 -39 -141 l 1,5,6
 -9 -165 -9 -165 28 -165 c 0,7,8
 82 -165 82 -165 87 -129 c 0,9,10
 90 -108 90 -108 72 -97.5 c 128,-1,11
 54 -87 54 -87 12 -86 c 0,12,13
 2 -86 2 -86 6 -79 c 2,14,-1
 55 5 l 1,15,-1
 107 5 l 1,16,-1
 74 -55 l 1,17,18
 122 -57 122 -57 141 -78.5 c 128,-1,19
 160 -100 160 -100 156 -129 c 0,20,0
 151 -165 151 -165 116 -186 c 128,-1,1
EndSplineSet
EndChar

StartChar: uni00B9
Encoding: 185 185 122
Width: 297
GlyphClass: 2
Flags: W
LayerCount: 2
Fore
SplineSet
144 761 m 1,0,-1
 54 731 l 1,1,-1
 61 779 l 1,2,-1
 181 835 l 1,3,-1
 221 835 l 1,4,-1
 157 380 l 1,5,-1
 91 380 l 1,6,-1
 144 761 l 1,0,-1
EndSplineSet
EndChar

StartChar: ordmasculine
Encoding: 186 186 123
Width: 407
GlyphClass: 2
Flags: W
LayerCount: 2
Fore
SplineSet
368.5 685.5 m 128,-1,1
 405 639 405 639 394 563 c 0,2,3
 384 489 384 489 334.5 443 c 128,-1,4
 285 397 285 397 213 397 c 128,-1,5
 141 397 141 397 104.5 443 c 128,-1,6
 68 489 68 489 78 563 c 0,7,8
 89 639 89 639 139 685.5 c 128,-1,9
 189 732 189 732 260 732 c 0,10,0
 332 732 332 732 368.5 685.5 c 128,-1,1
186 651 m 128,-1,12
 160 621 160 621 153 566 c 0,13,14
 145 509 145 509 161.5 478.5 c 128,-1,15
 178 448 178 448 220 448 c 128,-1,16
 262 448 262 448 288 478.5 c 128,-1,17
 314 509 314 509 322 566 c 0,18,19
 330 621 330 621 312 651 c 128,-1,20
 294 681 294 681 253 681 c 128,-1,11
 212 681 212 681 186 651 c 128,-1,12
EndSplineSet
EndChar

StartChar: guillemotright
Encoding: 187 187 124
Width: 458
GlyphClass: 2
Flags: W
LayerCount: 2
Fore
SplineSet
65 441 m 1,0,-1
 122 441 l 1,1,-1
 224 251 l 1,2,-1
 70 69 l 1,3,-1
 14 69 l 1,4,-1
 135 251 l 1,5,-1
 65 441 l 1,0,-1
244 441 m 1,6,-1
 301 441 l 1,7,-1
 403 251 l 1,8,-1
 249 69 l 1,9,-1
 193 69 l 1,10,-1
 314 251 l 1,11,-1
 244 441 l 1,6,-1
EndSplineSet
EndChar

StartChar: onequarter
Encoding: 188 188 125
Width: 957
GlyphClass: 2
Flags: W
LayerCount: 2
Fore
SplineSet
129 657 m 1,0,-1
 39 627 l 1,1,-1
 46 675 l 1,2,-1
 166 731 l 1,3,-1
 206 731 l 1,4,-1
 142 276 l 1,5,-1
 76 276 l 1,6,-1
 129 657 l 1,0,-1
161 -4 m 1,7,-1
 96 -3 l 1,8,-1
 686 731 l 1,9,-1
 751 731 l 1,10,-1
 161 -4 l 1,7,-1
856 455 m 1,11,-1
 816 170 l 1,12,-1
 886 170 l 1,13,-1
 878 113 l 1,14,-1
 808 113 l 1,15,-1
 792 0 l 1,16,-1
 727 0 l 1,17,-1
 744 113 l 1,18,-1
 533 113 l 1,19,-1
 541 172 l 1,20,-1
 791 455 l 1,21,-1
 856 455 l 1,11,-1
751 170 m 1,22,-1
 778 362 l 1,23,-1
 608 170 l 1,24,-1
 751 170 l 1,22,-1
EndSplineSet
EndChar

StartChar: onehalf
Encoding: 189 189 126
Width: 925
GlyphClass: 2
Flags: W
LayerCount: 2
Fore
SplineSet
129 657 m 1,0,-1
 39 627 l 1,1,-1
 46 675 l 1,2,-1
 166 731 l 1,3,-1
 206 731 l 1,4,-1
 142 276 l 1,5,-1
 76 276 l 1,6,-1
 129 657 l 1,0,-1
161 -4 m 1,7,-1
 96 -3 l 1,8,-1
 686 731 l 1,9,-1
 751 731 l 1,10,-1
 161 -4 l 1,7,-1
521 53 m 1,11,-1
 687 192 l 2,12,13
 730 228 730 228 752.5 250 c 128,-1,14
 775 272 775 272 786.5 290.5 c 128,-1,15
 798 309 798 309 801 330 c 0,16,17
 806 367 806 367 783.5 386 c 128,-1,18
 761 405 761 405 728 405 c 256,19,20
 695 405 695 405 665.5 389.5 c 128,-1,21
 636 374 636 374 617 340 c 1,22,-1
 560 351 l 1,23,24
 583 403 583 403 628.5 432 c 128,-1,25
 674 461 674 461 738 461 c 0,26,27
 781 461 781 461 813 445.5 c 128,-1,28
 845 430 845 430 859.5 401 c 128,-1,29
 874 372 874 372 869 331 c 0,30,31
 865 305 865 305 852.5 282.5 c 128,-1,32
 840 260 840 260 817 236 c 128,-1,33
 794 212 794 212 753 176 c 2,34,-1
 615 56 l 1,35,-1
 835 56 l 1,36,-1
 827 0 l 1,37,-1
 514 0 l 1,38,-1
 521 53 l 1,11,-1
EndSplineSet
EndChar

StartChar: threequarters
Encoding: 190 190 127
Width: 1054
GlyphClass: 2
Flags: W
LayerCount: 2
Fore
SplineSet
146 716 m 128,-1,1
 195 740 195 740 257 740 c 0,2,3
 327 740 327 740 367 707 c 128,-1,4
 407 674 407 674 400 624 c 0,5,6
 390 551 390 551 299 522 c 1,7,8
 342 509 342 509 366 479.5 c 128,-1,9
 390 450 390 450 384 407 c 0,10,11
 379 368 379 368 351 337.5 c 128,-1,12
 323 307 323 307 279.5 290 c 128,-1,13
 236 273 236 273 186 273 c 0,14,15
 118 273 118 273 79 295.5 c 128,-1,16
 40 318 40 318 29 373 c 1,17,-1
 89 383 l 1,18,19
 115 327 115 327 192 327 c 0,20,21
 242 327 242 327 274.5 349 c 128,-1,22
 307 371 307 371 312 405 c 0,23,24
 317 443 317 443 289.5 465.5 c 128,-1,25
 262 488 262 488 218 488 c 2,26,-1
 157 489 l 1,27,-1
 164 542 l 1,28,-1
 215 543 l 2,29,30
 260 544 260 544 292.5 565.5 c 128,-1,31
 325 587 325 587 330 619 c 0,32,33
 334 649 334 649 310.5 668 c 128,-1,34
 287 687 287 687 248 687 c 0,35,36
 170 687 170 687 135 631 c 1,37,-1
 78 642 l 1,38,0
 97 692 97 692 146 716 c 128,-1,1
258 -4 m 1,39,-1
 193 -3 l 1,40,-1
 783 731 l 1,41,-1
 848 731 l 1,42,-1
 258 -4 l 1,39,-1
953 455 m 1,43,-1
 913 170 l 1,44,-1
 983 170 l 1,45,-1
 975 113 l 1,46,-1
 905 113 l 1,47,-1
 889 0 l 1,48,-1
 824 0 l 1,49,-1
 841 113 l 1,50,-1
 630 113 l 1,51,-1
 638 172 l 1,52,-1
 888 455 l 1,53,-1
 953 455 l 1,43,-1
848 170 m 1,54,-1
 875 362 l 1,55,-1
 705 170 l 1,56,-1
 848 170 l 1,54,-1
EndSplineSet
EndChar

StartChar: questiondown
Encoding: 191 191 128
Width: 520
GlyphClass: 2
Flags: W
LayerCount: 2
Fore
SplineSet
239 517 m 1,0,-1
 358 517 l 1,1,-1
 340 393 l 1,2,-1
 221 393 l 1,3,-1
 239 517 l 1,0,-1
335.5 -132 m 128,-1,5
 267 -171 267 -171 185 -171 c 0,6,7
 114 -171 114 -171 66.5 -148.5 c 128,-1,8
 19 -126 19 -126 -2 -86.5 c 128,-1,9
 -23 -47 -23 -47 -16 3 c 0,10,11
 -11 42 -11 42 7 71 c 128,-1,12
 25 100 25 100 48 120.5 c 128,-1,13
 71 141 71 141 108 168 c 0,14,15
 145 196 145 196 166.5 215.5 c 128,-1,16
 188 235 188 235 205.5 263 c 128,-1,17
 223 291 223 291 228 328 c 1,18,-1
 314 328 l 1,19,20
 307 281 307 281 288 245.5 c 128,-1,21
 269 210 269 210 245 186.5 c 128,-1,22
 221 163 221 163 183 132 c 0,23,24
 139 96 139 96 116.5 70 c 128,-1,25
 94 44 94 44 89 7 c 0,26,27
 83 -38 83 -38 112.5 -65.5 c 128,-1,28
 142 -93 142 -93 196 -93 c 0,29,30
 244 -93 244 -93 291 -65.5 c 128,-1,31
 338 -38 338 -38 359 3 c 1,32,-1
 446 -22 l 1,33,4
 404 -93 404 -93 335.5 -132 c 128,-1,5
EndSplineSet
EndChar

StartChar: Agrave
Encoding: 192 192 129
Width: 700
GlyphClass: 2
Flags: W
AnchorPoint: "Anchor-5" -46 0 basechar 0
AnchorPoint: "Anchor-4" -46 0 basechar 0
AnchorPoint: "Anchor-3" 310 723 basechar 0
AnchorPoint: "Anchor-2" 617 10 basechar 0
LayerCount: 2
Fore
SplineSet
350 723 m 1,0,-1
 463 723 l 1,1,-1
 622 0 l 1,2,-1
 519 0 l 1,3,-1
 477 192 l 1,4,-1
 188 192 l 1,5,-1
 90 0 l 1,6,-1
 -13 0 l 1,7,-1
 350 723 l 1,0,-1
463 285 m 1,8,-1
 393 623 l 1,9,-1
 226 285 l 1,10,-1
 463 285 l 1,8,-1
553 841 m 1,11,-1
 529 791 l 1,12,-1
 285 864 l 1,13,-1
 321 939 l 1,14,-1
 553 841 l 1,11,-1
EndSplineSet
EndChar

StartChar: Aacute
Encoding: 193 193 130
Width: 700
GlyphClass: 2
Flags: W
AnchorPoint: "Anchor-5" -46 0 basechar 0
AnchorPoint: "Anchor-4" -46 0 basechar 0
AnchorPoint: "Anchor-3" 310 723 basechar 0
AnchorPoint: "Anchor-2" 617 10 basechar 0
LayerCount: 2
Fore
SplineSet
350 723 m 1,0,-1
 463 723 l 1,1,-1
 622 0 l 1,2,-1
 519 0 l 1,3,-1
 477 192 l 1,4,-1
 188 192 l 1,5,-1
 90 0 l 1,6,-1
 -13 0 l 1,7,-1
 350 723 l 1,0,-1
463 285 m 1,8,-1
 393 623 l 1,9,-1
 226 285 l 1,10,-1
 463 285 l 1,8,-1
567 864 m 1,11,-1
 303 791 l 1,12,-1
 293 841 l 1,13,-1
 553 939 l 1,14,-1
 567 864 l 1,11,-1
EndSplineSet
EndChar

StartChar: Acircumflex
Encoding: 194 194 131
Width: 700
GlyphClass: 2
Flags: W
AnchorPoint: "Anchor-5" -46 0 basechar 0
AnchorPoint: "Anchor-4" -46 0 basechar 0
AnchorPoint: "Anchor-3" 310 723 basechar 0
AnchorPoint: "Anchor-2" 617 10 basechar 0
LayerCount: 2
Fore
SplineSet
350 723 m 1,0,-1
 463 723 l 1,1,-1
 622 0 l 1,2,-1
 519 0 l 1,3,-1
 477 192 l 1,4,-1
 188 192 l 1,5,-1
 90 0 l 1,6,-1
 -13 0 l 1,7,-1
 350 723 l 1,0,-1
463 285 m 1,8,-1
 393 623 l 1,9,-1
 226 285 l 1,10,-1
 463 285 l 1,8,-1
433 883 m 1,11,-1
 349 815 l 1,12,-1
 262 815 l 1,13,-1
 405 933 l 1,14,-1
 478 933 l 1,15,-1
 586 815 l 1,16,-1
 494 815 l 1,17,-1
 433 883 l 1,11,-1
EndSplineSet
EndChar

StartChar: Atilde
Encoding: 195 195 132
Width: 700
GlyphClass: 2
Flags: W
AnchorPoint: "Anchor-5" -46 0 basechar 0
AnchorPoint: "Anchor-4" -46 0 basechar 0
AnchorPoint: "Anchor-3" 310 723 basechar 0
AnchorPoint: "Anchor-2" 617 10 basechar 0
LayerCount: 2
Fore
SplineSet
350 723 m 1,0,-1
 463 723 l 1,1,-1
 622 0 l 1,2,-1
 519 0 l 1,3,-1
 477 192 l 1,4,-1
 188 192 l 1,5,-1
 90 0 l 1,6,-1
 -13 0 l 1,7,-1
 350 723 l 1,0,-1
463 285 m 1,8,-1
 393 623 l 1,9,-1
 226 285 l 1,10,-1
 463 285 l 1,8,-1
495 837 m 0,11,12
 465 837 465 837 427 851 c 0,13,14
 413 856 413 856 397.5 859.5 c 128,-1,15
 382 863 382 863 368 863 c 0,16,17
 349 863 349 863 336.5 858 c 128,-1,18
 324 853 324 853 304 842 c 0,19,20
 300 839 300 839 296 839 c 128,-1,21
 292 839 292 839 290 847 c 2,22,-1
 283 878 l 2,23,24
 282 880 282 880 283 884 c 0,25,26
 284 889 284 889 291 894 c 0,27,28
 311 909 311 909 329.5 917.5 c 128,-1,29
 348 926 348 926 372 926 c 0,30,31
 389 926 389 926 408 921.5 c 128,-1,32
 427 917 427 917 443 911 c 0,33,34
 480 898 480 898 503 898 c 0,35,36
 532 898 532 898 566 918 c 0,37,38
 570 921 570 921 574 921 c 0,39,40
 580 921 580 921 582 913 c 2,41,-1
 587 876 l 1,42,-1
 588 872 l 2,43,44
 587 867 587 867 576 860 c 0,45,46
 542 837 542 837 495 837 c 0,11,12
EndSplineSet
EndChar

StartChar: Adieresis
Encoding: 196 196 133
Width: 700
GlyphClass: 2
Flags: W
AnchorPoint: "Anchor-5" -46 0 basechar 0
AnchorPoint: "Anchor-4" -46 0 basechar 0
AnchorPoint: "Anchor-3" 310 723 basechar 0
AnchorPoint: "Anchor-2" 617 10 basechar 0
LayerCount: 2
Fore
SplineSet
350 723 m 1,0,-1
 463 723 l 1,1,-1
 622 0 l 1,2,-1
 519 0 l 1,3,-1
 477 192 l 1,4,-1
 188 192 l 1,5,-1
 90 0 l 1,6,-1
 -13 0 l 1,7,-1
 350 723 l 1,0,-1
463 285 m 1,8,-1
 393 623 l 1,9,-1
 226 285 l 1,10,-1
 463 285 l 1,8,-1
393 816 m 1,11,-1
 297 816 l 1,12,-1
 313 929 l 1,13,-1
 409 929 l 1,14,-1
 393 816 l 1,11,-1
553 816 m 1,15,-1
 456 816 l 1,16,-1
 472 929 l 1,17,-1
 569 929 l 1,18,-1
 553 816 l 1,15,-1
EndSplineSet
EndChar

StartChar: Aring
Encoding: 197 197 134
Width: 700
GlyphClass: 2
Flags: W
AnchorPoint: "Anchor-5" -46 0 basechar 0
AnchorPoint: "Anchor-4" -46 0 basechar 0
AnchorPoint: "Anchor-3" 310 723 basechar 0
AnchorPoint: "Anchor-2" 617 10 basechar 0
LayerCount: 2
Fore
SplineSet
350 723 m 1,0,-1
 463 723 l 1,1,-1
 622 0 l 1,2,-1
 519 0 l 1,3,-1
 477 192 l 1,4,-1
 188 192 l 1,5,-1
 90 0 l 1,6,-1
 -13 0 l 1,7,-1
 350 723 l 1,0,-1
463 285 m 1,8,-1
 393 623 l 1,9,-1
 226 285 l 1,10,-1
 463 285 l 1,8,-1
498.5 811 m 128,-1,12
 464 781 464 781 420 781 c 128,-1,13
 376 781 376 781 350.5 811.5 c 128,-1,14
 325 842 325 842 331 886 c 0,15,16
 337 928 337 928 371.5 957.5 c 128,-1,17
 406 987 406 987 449 987 c 0,18,19
 493 987 493 987 519 957 c 128,-1,20
 545 927 545 927 539 884 c 128,-1,11
 533 841 533 841 498.5 811 c 128,-1,12
476 922 m 128,-1,22
 463 937 463 937 441 937 c 128,-1,23
 419 937 419 937 401 922 c 128,-1,24
 383 907 383 907 380 884 c 0,25,26
 377 863 377 863 390.5 846.5 c 128,-1,27
 404 830 404 830 426 830 c 0,28,29
 447 830 447 830 465 846.5 c 128,-1,30
 483 863 483 863 486 884 c 0,31,21
 489 907 489 907 476 922 c 128,-1,22
EndSplineSet
EndChar

StartChar: AE
Encoding: 198 198 135
Width: 1024
GlyphClass: 2
Flags: W
AnchorPoint: "Anchor-5" -46 0 basechar 0
AnchorPoint: "Anchor-4" -46 0 basechar 0
AnchorPoint: "Anchor-3" 634 723 basechar 0
AnchorPoint: "Anchor-2" -46 0 basechar 0
LayerCount: 2
Fore
SplineSet
914 0 m 1,0,-1
 442 0 l 1,1,-1
 469 195 l 1,2,-1
 224 195 l 1,3,-1
 90 0 l 1,4,-1
 -13 0 l 1,5,-1
 486 723 l 1,6,-1
 1005 723 l 1,7,-1
 991 635 l 1,8,-1
 647 635 l 1,9,-1
 615 408 l 1,10,-1
 867 408 l 1,11,-1
 855 321 l 1,12,-1
 603 321 l 1,13,-1
 570 88 l 1,14,-1
 926 88 l 1,15,-1
 914 0 l 1,0,-1
533 651 m 1,16,-1
 277 285 l 1,17,-1
 482 285 l 1,18,-1
 533 651 l 1,16,-1
EndSplineSet
EndChar

StartChar: Ccedilla
Encoding: 199 199 136
Width: 689
GlyphClass: 2
Flags: W
AnchorPoint: "Anchor-5" -46 0 basechar 0
AnchorPoint: "Anchor-4" 317 0 basechar 0
AnchorPoint: "Anchor-3" 317 723 basechar 0
AnchorPoint: "Anchor-2" -46 0 basechar 0
LayerCount: 2
Fore
SplineSet
549.5 703.5 m 128,-1,1
 607 674 607 674 636 622.5 c 128,-1,2
 665 571 665 571 663 508 c 1,3,-1
 555 504 l 1,4,5
 552 569 552 569 513.5 607 c 128,-1,6
 475 645 475 645 402 645 c 0,7,8
 307 645 307 645 247.5 575 c 128,-1,9
 188 505 188 505 168 363 c 128,-1,10
 148 221 148 221 188 149.5 c 128,-1,11
 228 78 228 78 326 78 c 0,12,13
 390 78 390 78 440.5 116.5 c 128,-1,14
 491 155 491 155 514 219 c 1,15,-1
 620 212 l 1,16,17
 603 149 603 149 562.5 99 c 128,-1,18
 522 49 522 49 459 19.5 c 128,-1,19
 396 -10 396 -10 316 -10 c 0,20,21
 219 -10 219 -10 154.5 35.5 c 128,-1,22
 90 81 90 81 64.5 165.5 c 128,-1,23
 39 250 39 250 55 364 c 128,-1,24
 71 478 71 478 119.5 561 c 128,-1,25
 168 644 168 644 243.5 688.5 c 128,-1,26
 319 733 319 733 415 733 c 0,27,0
 492 733 492 733 549.5 703.5 c 128,-1,1
356 -186 m 128,-1,29
 321 -207 321 -207 275 -207 c 0,30,31
 215 -207 215 -207 179 -182 c 1,32,-1
 201 -141 l 1,33,34
 231 -165 231 -165 268 -165 c 0,35,36
 322 -165 322 -165 327 -129 c 0,37,38
 330 -108 330 -108 312 -97.5 c 128,-1,39
 294 -87 294 -87 252 -86 c 0,40,41
 242 -86 242 -86 246 -79 c 2,42,-1
 295 5 l 1,43,-1
 347 5 l 1,44,-1
 314 -55 l 1,45,46
 362 -57 362 -57 381 -78.5 c 128,-1,47
 400 -100 400 -100 396 -129 c 0,48,28
 391 -165 391 -165 356 -186 c 128,-1,29
EndSplineSet
EndChar

StartChar: Egrave
Encoding: 200 200 137
Width: 625
GlyphClass: 2
Flags: W
AnchorPoint: "Anchor-5" -46 0 basechar 0
AnchorPoint: "Anchor-4" 296 0 basechar 0
AnchorPoint: "Anchor-3" 285 723 basechar 0
AnchorPoint: "Anchor-2" 511 10 basechar 0
LayerCount: 2
Fore
SplineSet
147 723 m 1,0,-1
 610 723 l 1,1,-1
 596 634 l 1,2,-1
 236 634 l 1,3,-1
 204 409 l 1,4,-1
 527 409 l 1,5,-1
 515 321 l 1,6,-1
 192 321 l 1,7,-1
 160 91 l 1,8,-1
 530 90 l 1,9,-1
 517 0 l 1,10,-1
 45 0 l 1,11,-1
 147 723 l 1,0,-1
528 841 m 1,12,-1
 504 791 l 1,13,-1
 260 864 l 1,14,-1
 296 939 l 1,15,-1
 528 841 l 1,12,-1
EndSplineSet
EndChar

StartChar: Eacute
Encoding: 201 201 138
Width: 625
GlyphClass: 2
Flags: W
AnchorPoint: "Anchor-5" -46 0 basechar 0
AnchorPoint: "Anchor-4" 296 0 basechar 0
AnchorPoint: "Anchor-3" 285 723 basechar 0
AnchorPoint: "Anchor-2" 511 10 basechar 0
LayerCount: 2
Fore
SplineSet
147 723 m 1,0,-1
 610 723 l 1,1,-1
 596 634 l 1,2,-1
 236 634 l 1,3,-1
 204 409 l 1,4,-1
 527 409 l 1,5,-1
 515 321 l 1,6,-1
 192 321 l 1,7,-1
 160 91 l 1,8,-1
 530 90 l 1,9,-1
 517 0 l 1,10,-1
 45 0 l 1,11,-1
 147 723 l 1,0,-1
542 864 m 1,12,-1
 278 791 l 1,13,-1
 268 841 l 1,14,-1
 528 939 l 1,15,-1
 542 864 l 1,12,-1
EndSplineSet
EndChar

StartChar: Ecircumflex
Encoding: 202 202 139
Width: 625
GlyphClass: 2
Flags: W
AnchorPoint: "Anchor-5" -46 0 basechar 0
AnchorPoint: "Anchor-4" 296 0 basechar 0
AnchorPoint: "Anchor-3" 285 723 basechar 0
AnchorPoint: "Anchor-2" 511 10 basechar 0
LayerCount: 2
Fore
SplineSet
147 723 m 1,0,-1
 610 723 l 1,1,-1
 596 634 l 1,2,-1
 236 634 l 1,3,-1
 204 409 l 1,4,-1
 527 409 l 1,5,-1
 515 321 l 1,6,-1
 192 321 l 1,7,-1
 160 91 l 1,8,-1
 530 90 l 1,9,-1
 517 0 l 1,10,-1
 45 0 l 1,11,-1
 147 723 l 1,0,-1
408 883 m 1,12,-1
 324 815 l 1,13,-1
 237 815 l 1,14,-1
 380 933 l 1,15,-1
 453 933 l 1,16,-1
 561 815 l 1,17,-1
 469 815 l 1,18,-1
 408 883 l 1,12,-1
EndSplineSet
EndChar

StartChar: Edieresis
Encoding: 203 203 140
Width: 625
GlyphClass: 2
Flags: W
AnchorPoint: "Anchor-5" -46 0 basechar 0
AnchorPoint: "Anchor-4" 296 0 basechar 0
AnchorPoint: "Anchor-3" 285 723 basechar 0
AnchorPoint: "Anchor-2" 511 10 basechar 0
LayerCount: 2
Fore
SplineSet
147 723 m 1,0,-1
 610 723 l 1,1,-1
 596 634 l 1,2,-1
 236 634 l 1,3,-1
 204 409 l 1,4,-1
 527 409 l 1,5,-1
 515 321 l 1,6,-1
 192 321 l 1,7,-1
 160 91 l 1,8,-1
 530 90 l 1,9,-1
 517 0 l 1,10,-1
 45 0 l 1,11,-1
 147 723 l 1,0,-1
368 816 m 1,12,-1
 272 816 l 1,13,-1
 288 929 l 1,14,-1
 384 929 l 1,15,-1
 368 816 l 1,12,-1
528 816 m 1,16,-1
 431 816 l 1,17,-1
 447 929 l 1,18,-1
 544 929 l 1,19,-1
 528 816 l 1,16,-1
EndSplineSet
EndChar

StartChar: Igrave
Encoding: 204 204 141
Width: 283
GlyphClass: 2
Flags: W
AnchorPoint: "Anchor-5" -46 0 basechar 0
AnchorPoint: "Anchor-4" 101 0 basechar 0
AnchorPoint: "Anchor-3" 99 723 basechar 0
AnchorPoint: "Anchor-2" 133 7 basechar 0
LayerCount: 2
Fore
SplineSet
249 723 m 1,0,-1
 147 0 l 1,1,-1
 45 0 l 1,2,-1
 147 723 l 1,3,-1
 249 723 l 1,0,-1
342 841 m 1,4,-1
 318 791 l 1,5,-1
 74 864 l 1,6,-1
 110 939 l 1,7,-1
 342 841 l 1,4,-1
EndSplineSet
EndChar

StartChar: Iacute
Encoding: 205 205 142
Width: 283
GlyphClass: 2
Flags: W
AnchorPoint: "Anchor-5" -46 0 basechar 0
AnchorPoint: "Anchor-4" 101 0 basechar 0
AnchorPoint: "Anchor-3" 99 723 basechar 0
AnchorPoint: "Anchor-2" 133 7 basechar 0
LayerCount: 2
Fore
SplineSet
249 723 m 1,0,-1
 147 0 l 1,1,-1
 45 0 l 1,2,-1
 147 723 l 1,3,-1
 249 723 l 1,0,-1
356 864 m 1,4,-1
 92 791 l 1,5,-1
 82 841 l 1,6,-1
 342 939 l 1,7,-1
 356 864 l 1,4,-1
EndSplineSet
EndChar

StartChar: Icircumflex
Encoding: 206 206 143
Width: 283
GlyphClass: 2
Flags: W
AnchorPoint: "Anchor-5" -46 0 basechar 0
AnchorPoint: "Anchor-4" 101 0 basechar 0
AnchorPoint: "Anchor-3" 99 723 basechar 0
AnchorPoint: "Anchor-2" 133 7 basechar 0
LayerCount: 2
Fore
SplineSet
249 723 m 1,0,-1
 147 0 l 1,1,-1
 45 0 l 1,2,-1
 147 723 l 1,3,-1
 249 723 l 1,0,-1
222 883 m 1,4,-1
 138 815 l 1,5,-1
 51 815 l 1,6,-1
 194 933 l 1,7,-1
 267 933 l 1,8,-1
 375 815 l 1,9,-1
 283 815 l 1,10,-1
 222 883 l 1,4,-1
EndSplineSet
EndChar

StartChar: Idieresis
Encoding: 207 207 144
Width: 283
GlyphClass: 2
Flags: W
AnchorPoint: "Anchor-5" -46 0 basechar 0
AnchorPoint: "Anchor-4" 101 0 basechar 0
AnchorPoint: "Anchor-3" 99 723 basechar 0
AnchorPoint: "Anchor-2" 133 7 basechar 0
LayerCount: 2
Fore
SplineSet
249 723 m 1,0,-1
 147 0 l 1,1,-1
 45 0 l 1,2,-1
 147 723 l 1,3,-1
 249 723 l 1,0,-1
182 816 m 1,4,-1
 86 816 l 1,5,-1
 102 929 l 1,6,-1
 198 929 l 1,7,-1
 182 816 l 1,4,-1
342 816 m 1,8,-1
 245 816 l 1,9,-1
 261 929 l 1,10,-1
 358 929 l 1,11,-1
 342 816 l 1,8,-1
EndSplineSet
EndChar

StartChar: Eth
Encoding: 208 208 145
Width: 705
GlyphClass: 2
Flags: W
AnchorPoint: "Anchor-5" -46 0 basechar 0
AnchorPoint: "Anchor-4" -46 0 basechar 0
AnchorPoint: "Anchor-3" 309 723 basechar 0
AnchorPoint: "Anchor-2" -46 0 basechar 0
LayerCount: 2
Fore
SplineSet
608 629.5 m 128,-1,1
 686 540 686 540 661 366 c 0,2,3
 610 0 610 0 226 0 c 2,4,-1
 58 0 l 1,5,-1
 103 320 l 1,6,-1
 48 320 l 2,7,8
 39 320 39 320 35.5 324 c 128,-1,9
 32 328 32 328 33 336 c 2,10,-1
 40 386 l 2,11,12
 42 400 42 400 54 400 c 2,13,-1
 114 400 l 1,14,-1
 160 723 l 1,15,16
 275 723 275 723 335 722 c 0,17,0
 530 719 530 719 608 629.5 c 128,-1,1
453 152.5 m 128,-1,19
 534 218 534 218 554 365 c 0,20,21
 575 511 575 511 515 574 c 128,-1,22
 455 637 455 637 320 637 c 2,23,-1
 252 637 l 1,24,-1
 218 400 l 1,25,-1
 371 400 l 2,26,27
 382 400 382 400 381 388 c 2,28,-1
 374 338 l 2,29,30
 373 328 373 328 367 324 c 128,-1,31
 361 320 361 320 350 320 c 2,32,-1
 207 320 l 1,33,-1
 174 87 l 1,34,-1
 238 87 l 2,35,18
 372 87 372 87 453 152.5 c 128,-1,19
EndSplineSet
EndChar

StartChar: Ntilde
Encoding: 209 209 146
Width: 755
GlyphClass: 2
Flags: W
AnchorPoint: "Anchor-5" -46 0 basechar 0
AnchorPoint: "Anchor-4" 317 0 basechar 0
AnchorPoint: "Anchor-3" 340 723 basechar 0
AnchorPoint: "Anchor-2" -46 0 basechar 0
LayerCount: 2
Fore
SplineSet
720 723 m 1,0,-1
 618 0 l 1,1,-1
 527 0 l 1,2,-1
 225 557 l 1,3,-1
 147 0 l 1,4,-1
 45 0 l 1,5,-1
 147 723 l 1,6,-1
 245 723 l 1,7,-1
 541 176 l 1,8,-1
 618 723 l 1,9,-1
 720 723 l 1,0,-1
525 837 m 0,10,11
 495 837 495 837 457 851 c 0,12,13
 443 856 443 856 427.5 859.5 c 128,-1,14
 412 863 412 863 398 863 c 0,15,16
 379 863 379 863 366.5 858 c 128,-1,17
 354 853 354 853 334 842 c 0,18,19
 330 839 330 839 326 839 c 128,-1,20
 322 839 322 839 320 847 c 2,21,-1
 313 878 l 2,22,23
 312 880 312 880 313 884 c 0,24,25
 314 889 314 889 321 894 c 0,26,27
 341 909 341 909 359.5 917.5 c 128,-1,28
 378 926 378 926 402 926 c 0,29,30
 419 926 419 926 438 921.5 c 128,-1,31
 457 917 457 917 473 911 c 0,32,33
 510 898 510 898 533 898 c 0,34,35
 562 898 562 898 596 918 c 0,36,37
 600 921 600 921 604 921 c 0,38,39
 610 921 610 921 612 913 c 2,40,-1
 617 876 l 1,41,-1
 618 872 l 2,42,43
 617 867 617 867 606 860 c 0,44,45
 572 837 572 837 525 837 c 0,10,11
EndSplineSet
EndChar

StartChar: Ograve
Encoding: 210 210 147
Width: 733
GlyphClass: 2
Flags: W
AnchorPoint: "Anchor-5" -46 0 basechar 0
AnchorPoint: "Anchor-4" 323 0 basechar 0
AnchorPoint: "Anchor-3" 322 723 basechar 0
AnchorPoint: "Anchor-2" 400 9 basechar 0
LayerCount: 2
Fore
SplineSet
157 33.5 m 128,-1,1
 92 77 92 77 65 160 c 128,-1,2
 38 243 38 243 54 359 c 0,3,4
 70 476 70 476 121.5 560.5 c 128,-1,5
 173 645 173 645 250.5 689 c 128,-1,6
 328 733 328 733 425 733 c 0,7,8
 521 733 521 733 586 689 c 128,-1,9
 651 645 651 645 677.5 561 c 128,-1,10
 704 477 704 477 688 360 c 0,11,12
 672 244 672 244 622 161 c 128,-1,13
 572 78 572 78 495 34 c 128,-1,14
 418 -10 418 -10 320 -10 c 128,-1,0
 222 -10 222 -10 157 33.5 c 128,-1,1
575 359 m 0,15,16
 595 504 595 504 553 574.5 c 128,-1,17
 511 645 511 645 413 645 c 0,18,19
 314 645 314 645 251 574 c 128,-1,20
 188 503 188 503 167 359 c 0,21,22
 147 216 147 216 191 147 c 128,-1,23
 235 78 235 78 334 78 c 0,24,25
 536 78 536 78 575 359 c 0,15,16
565 841 m 1,26,-1
 541 791 l 1,27,-1
 297 864 l 1,28,-1
 333 939 l 1,29,-1
 565 841 l 1,26,-1
EndSplineSet
EndChar

StartChar: Oacute
Encoding: 211 211 148
Width: 733
GlyphClass: 2
Flags: W
AnchorPoint: "Anchor-5" -46 0 basechar 0
AnchorPoint: "Anchor-4" 323 0 basechar 0
AnchorPoint: "Anchor-3" 322 723 basechar 0
AnchorPoint: "Anchor-2" 400 9 basechar 0
LayerCount: 2
Fore
SplineSet
157 33.5 m 128,-1,1
 92 77 92 77 65 160 c 128,-1,2
 38 243 38 243 54 359 c 0,3,4
 70 476 70 476 121.5 560.5 c 128,-1,5
 173 645 173 645 250.5 689 c 128,-1,6
 328 733 328 733 425 733 c 0,7,8
 521 733 521 733 586 689 c 128,-1,9
 651 645 651 645 677.5 561 c 128,-1,10
 704 477 704 477 688 360 c 0,11,12
 672 244 672 244 622 161 c 128,-1,13
 572 78 572 78 495 34 c 128,-1,14
 418 -10 418 -10 320 -10 c 128,-1,0
 222 -10 222 -10 157 33.5 c 128,-1,1
575 359 m 0,15,16
 595 504 595 504 553 574.5 c 128,-1,17
 511 645 511 645 413 645 c 0,18,19
 314 645 314 645 251 574 c 128,-1,20
 188 503 188 503 167 359 c 0,21,22
 147 216 147 216 191 147 c 128,-1,23
 235 78 235 78 334 78 c 0,24,25
 536 78 536 78 575 359 c 0,15,16
579 864 m 1,26,-1
 315 791 l 1,27,-1
 305 841 l 1,28,-1
 565 939 l 1,29,-1
 579 864 l 1,26,-1
EndSplineSet
EndChar

StartChar: Ocircumflex
Encoding: 212 212 149
Width: 733
GlyphClass: 2
Flags: W
AnchorPoint: "Anchor-5" -46 0 basechar 0
AnchorPoint: "Anchor-4" 323 0 basechar 0
AnchorPoint: "Anchor-3" 322 723 basechar 0
AnchorPoint: "Anchor-2" 400 9 basechar 0
LayerCount: 2
Fore
SplineSet
157 33.5 m 128,-1,1
 92 77 92 77 65 160 c 128,-1,2
 38 243 38 243 54 359 c 0,3,4
 70 476 70 476 121.5 560.5 c 128,-1,5
 173 645 173 645 250.5 689 c 128,-1,6
 328 733 328 733 425 733 c 0,7,8
 521 733 521 733 586 689 c 128,-1,9
 651 645 651 645 677.5 561 c 128,-1,10
 704 477 704 477 688 360 c 0,11,12
 672 244 672 244 622 161 c 128,-1,13
 572 78 572 78 495 34 c 128,-1,14
 418 -10 418 -10 320 -10 c 128,-1,0
 222 -10 222 -10 157 33.5 c 128,-1,1
575 359 m 0,15,16
 595 504 595 504 553 574.5 c 128,-1,17
 511 645 511 645 413 645 c 0,18,19
 314 645 314 645 251 574 c 128,-1,20
 188 503 188 503 167 359 c 0,21,22
 147 216 147 216 191 147 c 128,-1,23
 235 78 235 78 334 78 c 0,24,25
 536 78 536 78 575 359 c 0,15,16
445 883 m 1,26,-1
 361 815 l 1,27,-1
 274 815 l 1,28,-1
 417 933 l 1,29,-1
 490 933 l 1,30,-1
 598 815 l 1,31,-1
 506 815 l 1,32,-1
 445 883 l 1,26,-1
EndSplineSet
EndChar

StartChar: Otilde
Encoding: 213 213 150
Width: 733
GlyphClass: 2
Flags: W
AnchorPoint: "Anchor-5" -46 0 basechar 0
AnchorPoint: "Anchor-4" 323 0 basechar 0
AnchorPoint: "Anchor-3" 322 723 basechar 0
AnchorPoint: "Anchor-2" 400 9 basechar 0
LayerCount: 2
Fore
SplineSet
157 33.5 m 128,-1,1
 92 77 92 77 65 160 c 128,-1,2
 38 243 38 243 54 359 c 0,3,4
 70 476 70 476 121.5 560.5 c 128,-1,5
 173 645 173 645 250.5 689 c 128,-1,6
 328 733 328 733 425 733 c 0,7,8
 521 733 521 733 586 689 c 128,-1,9
 651 645 651 645 677.5 561 c 128,-1,10
 704 477 704 477 688 360 c 0,11,12
 672 244 672 244 622 161 c 128,-1,13
 572 78 572 78 495 34 c 128,-1,14
 418 -10 418 -10 320 -10 c 128,-1,0
 222 -10 222 -10 157 33.5 c 128,-1,1
575 359 m 0,15,16
 595 504 595 504 553 574.5 c 128,-1,17
 511 645 511 645 413 645 c 0,18,19
 314 645 314 645 251 574 c 128,-1,20
 188 503 188 503 167 359 c 0,21,22
 147 216 147 216 191 147 c 128,-1,23
 235 78 235 78 334 78 c 0,24,25
 536 78 536 78 575 359 c 0,15,16
507 837 m 0,26,27
 477 837 477 837 439 851 c 0,28,29
 425 856 425 856 409.5 859.5 c 128,-1,30
 394 863 394 863 380 863 c 0,31,32
 361 863 361 863 348.5 858 c 128,-1,33
 336 853 336 853 316 842 c 0,34,35
 312 839 312 839 308 839 c 128,-1,36
 304 839 304 839 302 847 c 2,37,-1
 295 878 l 2,38,39
 294 880 294 880 295 884 c 0,40,41
 296 889 296 889 303 894 c 0,42,43
 323 909 323 909 341.5 917.5 c 128,-1,44
 360 926 360 926 384 926 c 0,45,46
 401 926 401 926 420 921.5 c 128,-1,47
 439 917 439 917 455 911 c 0,48,49
 492 898 492 898 515 898 c 0,50,51
 544 898 544 898 578 918 c 0,52,53
 582 921 582 921 586 921 c 0,54,55
 592 921 592 921 594 913 c 2,56,-1
 599 876 l 1,57,-1
 600 872 l 2,58,59
 599 867 599 867 588 860 c 0,60,61
 554 837 554 837 507 837 c 0,26,27
EndSplineSet
EndChar

StartChar: Odieresis
Encoding: 214 214 151
Width: 733
GlyphClass: 2
Flags: W
AnchorPoint: "Anchor-5" -46 0 basechar 0
AnchorPoint: "Anchor-4" 323 0 basechar 0
AnchorPoint: "Anchor-3" 322 723 basechar 0
AnchorPoint: "Anchor-2" 400 9 basechar 0
LayerCount: 2
Fore
SplineSet
157 33.5 m 128,-1,1
 92 77 92 77 65 160 c 128,-1,2
 38 243 38 243 54 359 c 0,3,4
 70 476 70 476 121.5 560.5 c 128,-1,5
 173 645 173 645 250.5 689 c 128,-1,6
 328 733 328 733 425 733 c 0,7,8
 521 733 521 733 586 689 c 128,-1,9
 651 645 651 645 677.5 561 c 128,-1,10
 704 477 704 477 688 360 c 0,11,12
 672 244 672 244 622 161 c 128,-1,13
 572 78 572 78 495 34 c 128,-1,14
 418 -10 418 -10 320 -10 c 128,-1,0
 222 -10 222 -10 157 33.5 c 128,-1,1
575 359 m 0,15,16
 595 504 595 504 553 574.5 c 128,-1,17
 511 645 511 645 413 645 c 0,18,19
 314 645 314 645 251 574 c 128,-1,20
 188 503 188 503 167 359 c 0,21,22
 147 216 147 216 191 147 c 128,-1,23
 235 78 235 78 334 78 c 0,24,25
 536 78 536 78 575 359 c 0,15,16
405 816 m 1,26,-1
 309 816 l 1,27,-1
 325 929 l 1,28,-1
 421 929 l 1,29,-1
 405 816 l 1,26,-1
565 816 m 1,30,-1
 468 816 l 1,31,-1
 484 929 l 1,32,-1
 581 929 l 1,33,-1
 565 816 l 1,30,-1
EndSplineSet
EndChar

StartChar: multiply
Encoding: 215 215 152
Width: 547
GlyphClass: 2
Flags: W
LayerCount: 2
Fore
SplineSet
331 364 m 1,0,-1
 466 208 l 1,1,-1
 402 152 l 1,2,-1
 268 308 l 1,3,-1
 90 152 l 1,4,-1
 43 208 l 1,5,-1
 220 364 l 1,6,-1
 86 520 l 1,7,-1
 149 575 l 1,8,-1
 284 419 l 1,9,-1
 462 576 l 1,10,-1
 510 521 l 1,11,-1
 331 364 l 1,0,-1
EndSplineSet
EndChar

StartChar: Oslash
Encoding: 216 216 153
Width: 731
GlyphClass: 2
Flags: W
AnchorPoint: "Anchor-5" -46 0 basechar 0
AnchorPoint: "Anchor-4" -46 0 basechar 0
AnchorPoint: "Anchor-3" 318 723 basechar 0
AnchorPoint: "Anchor-2" -46 0 basechar 0
LayerCount: 2
Fore
SplineSet
757 693 m 1,0,-1
 755 693 l 2,1,2
 761 690 761 690 760 684 c 0,3,4
 759 679 759 679 755 676 c 2,5,-1
 664 589 l 1,6,7
 704 497 704 497 685 360 c 0,8,9
 669 244 669 244 619 161 c 128,-1,10
 569 78 569 78 491.5 34 c 128,-1,11
 414 -10 414 -10 317 -10 c 0,12,13
 180 -10 180 -10 111 72 c 1,14,-1
 36 1 l 2,15,16
 28 -7 28 -7 21 -7 c 128,-1,17
 14 -7 14 -7 8 0 c 2,18,-1
 -13 25 l 2,19,20
 -21 34 -21 34 -21 39 c 0,21,22
 -20 43 -20 43 -14 48 c 2,23,-1
 72 131 l 1,24,25
 32 221 32 221 51 359 c 0,26,27
 67 476 67 476 118 560.5 c 128,-1,28
 169 645 169 645 246.5 689 c 128,-1,29
 324 733 324 733 421 733 c 0,30,31
 557 733 557 733 626 649 c 1,32,-1
 707 724 l 2,33,34
 715 731 715 731 719 731 c 128,-1,35
 723 731 723 731 726 727 c 2,36,-1
 757 693 l 1,0,-1
175 224 m 1,37,-1
 542 575 l 1,38,39
 505 647 505 647 407 647 c 128,-1,40
 309 647 309 647 251 576.5 c 128,-1,41
 193 506 193 506 172 359 c 0,42,43
 161 279 161 279 175 224 c 1,37,-1
556 496 m 1,44,-1
 190 145 l 1,45,46
 229 77 229 77 328 77 c 0,47,48
 426 77 426 77 482 145 c 128,-1,49
 538 213 538 213 558 359 c 0,50,51
 570 442 570 442 556 496 c 1,44,-1
EndSplineSet
EndChar

StartChar: Ugrave
Encoding: 217 217 154
Width: 719
GlyphClass: 2
Flags: W
AnchorPoint: "Anchor-5" -46 0 basechar 0
AnchorPoint: "Anchor-4" -46 0 basechar 0
AnchorPoint: "Anchor-3" 308 723 basechar 0
AnchorPoint: "Anchor-2" 387 10 basechar 0
LayerCount: 2
Fore
SplineSet
525.5 57.5 m 128,-1,1
 451 -10 451 -10 312 -10 c 0,2,3
 172 -10 172 -10 117.5 59 c 128,-1,4
 63 128 63 128 82 263 c 2,5,-1
 147 723 l 1,6,-1
 252 723 l 1,7,-1
 185 250 l 2,8,9
 173 165 173 165 209 122 c 128,-1,10
 245 79 245 79 324 79 c 0,11,12
 404 79 404 79 453 121.5 c 128,-1,13
 502 164 502 164 514 250 c 2,14,-1
 581 723 l 1,15,-1
 684 723 l 1,16,-1
 618 254 l 2,17,0
 600 125 600 125 525.5 57.5 c 128,-1,1
551 841 m 1,18,-1
 527 791 l 1,19,-1
 283 864 l 1,20,-1
 319 939 l 1,21,-1
 551 841 l 1,18,-1
EndSplineSet
EndChar

StartChar: Uacute
Encoding: 218 218 155
Width: 719
GlyphClass: 2
Flags: W
AnchorPoint: "Anchor-5" -46 0 basechar 0
AnchorPoint: "Anchor-4" -46 0 basechar 0
AnchorPoint: "Anchor-3" 308 723 basechar 0
AnchorPoint: "Anchor-2" 387 10 basechar 0
LayerCount: 2
Fore
SplineSet
525.5 57.5 m 128,-1,1
 451 -10 451 -10 312 -10 c 0,2,3
 172 -10 172 -10 117.5 59 c 128,-1,4
 63 128 63 128 82 263 c 2,5,-1
 147 723 l 1,6,-1
 252 723 l 1,7,-1
 185 250 l 2,8,9
 173 165 173 165 209 122 c 128,-1,10
 245 79 245 79 324 79 c 0,11,12
 404 79 404 79 453 121.5 c 128,-1,13
 502 164 502 164 514 250 c 2,14,-1
 581 723 l 1,15,-1
 684 723 l 1,16,-1
 618 254 l 2,17,0
 600 125 600 125 525.5 57.5 c 128,-1,1
565 864 m 1,18,-1
 301 791 l 1,19,-1
 291 841 l 1,20,-1
 551 939 l 1,21,-1
 565 864 l 1,18,-1
EndSplineSet
EndChar

StartChar: Ucircumflex
Encoding: 219 219 156
Width: 719
GlyphClass: 2
Flags: W
AnchorPoint: "Anchor-5" -46 0 basechar 0
AnchorPoint: "Anchor-4" -46 0 basechar 0
AnchorPoint: "Anchor-3" 308 723 basechar 0
AnchorPoint: "Anchor-2" 387 10 basechar 0
LayerCount: 2
Fore
SplineSet
525.5 57.5 m 128,-1,1
 451 -10 451 -10 312 -10 c 0,2,3
 172 -10 172 -10 117.5 59 c 128,-1,4
 63 128 63 128 82 263 c 2,5,-1
 147 723 l 1,6,-1
 252 723 l 1,7,-1
 185 250 l 2,8,9
 173 165 173 165 209 122 c 128,-1,10
 245 79 245 79 324 79 c 0,11,12
 404 79 404 79 453 121.5 c 128,-1,13
 502 164 502 164 514 250 c 2,14,-1
 581 723 l 1,15,-1
 684 723 l 1,16,-1
 618 254 l 2,17,0
 600 125 600 125 525.5 57.5 c 128,-1,1
431 883 m 1,18,-1
 347 815 l 1,19,-1
 260 815 l 1,20,-1
 403 933 l 1,21,-1
 476 933 l 1,22,-1
 584 815 l 1,23,-1
 492 815 l 1,24,-1
 431 883 l 1,18,-1
EndSplineSet
EndChar

StartChar: Udieresis
Encoding: 220 220 157
Width: 719
GlyphClass: 2
Flags: W
AnchorPoint: "Anchor-5" -46 0 basechar 0
AnchorPoint: "Anchor-4" -46 0 basechar 0
AnchorPoint: "Anchor-3" 308 723 basechar 0
AnchorPoint: "Anchor-2" 387 10 basechar 0
LayerCount: 2
Fore
SplineSet
525.5 57.5 m 128,-1,1
 451 -10 451 -10 312 -10 c 0,2,3
 172 -10 172 -10 117.5 59 c 128,-1,4
 63 128 63 128 82 263 c 2,5,-1
 147 723 l 1,6,-1
 252 723 l 1,7,-1
 185 250 l 2,8,9
 173 165 173 165 209 122 c 128,-1,10
 245 79 245 79 324 79 c 0,11,12
 404 79 404 79 453 121.5 c 128,-1,13
 502 164 502 164 514 250 c 2,14,-1
 581 723 l 1,15,-1
 684 723 l 1,16,-1
 618 254 l 2,17,0
 600 125 600 125 525.5 57.5 c 128,-1,1
391 816 m 1,18,-1
 295 816 l 1,19,-1
 311 929 l 1,20,-1
 407 929 l 1,21,-1
 391 816 l 1,18,-1
551 816 m 1,22,-1
 454 816 l 1,23,-1
 470 929 l 1,24,-1
 567 929 l 1,25,-1
 551 816 l 1,22,-1
EndSplineSet
EndChar

StartChar: Yacute
Encoding: 221 221 158
Width: 608
GlyphClass: 2
Flags: W
AnchorPoint: "Anchor-5" -46 0 basechar 0
AnchorPoint: "Anchor-4" -46 0 basechar 0
AnchorPoint: "Anchor-3" 266 723 basechar 0
AnchorPoint: "Anchor-2" -46 0 basechar 0
LayerCount: 2
Fore
SplineSet
353 307 m 1,0,-1
 310 0 l 1,1,-1
 208 0 l 1,2,-1
 251 308 l 1,3,-1
 62 723 l 1,4,-1
 174 723 l 1,5,-1
 315 398 l 1,6,-1
 546 723 l 1,7,-1
 658 723 l 1,8,-1
 353 307 l 1,0,-1
523 864 m 1,9,-1
 259 791 l 1,10,-1
 249 841 l 1,11,-1
 509 939 l 1,12,-1
 523 864 l 1,9,-1
EndSplineSet
EndChar

StartChar: Thorn
Encoding: 222 222 159
Width: 673
GlyphClass: 2
Flags: W
LayerCount: 2
Fore
SplineSet
556 215 m 128,-1,1
 478 161 478 161 359 161 c 2,2,-1
 184 161 l 1,3,-1
 161 0 l 1,4,-1
 45 0 l 1,5,-1
 147 723 l 1,6,-1
 263 723 l 1,7,-1
 242 576 l 1,8,-1
 403 576 l 2,9,10
 526 576 526 576 594 524.5 c 128,-1,11
 662 473 662 473 648 373 c 0,12,0
 634 269 634 269 556 215 c 128,-1,1
498.5 461.5 m 128,-1,14
 460 490 460 490 385 490 c 2,15,-1
 230 490 l 1,16,-1
 196 248 l 1,17,-1
 357 248 l 2,18,19
 430 248 430 248 475 279.5 c 128,-1,20
 520 311 520 311 529 374 c 0,21,13
 537 433 537 433 498.5 461.5 c 128,-1,14
EndSplineSet
EndChar

StartChar: germandbls
Encoding: 223 223 160
Width: 611
GlyphClass: 2
Flags: W
LayerCount: 2
Fore
SplineSet
505.5 684 m 128,-1,1
 545 645 545 645 536 583 c 0,2,3
 529 531 529 531 496 502.5 c 128,-1,4
 463 474 463 474 395 444 c 0,5,6
 363 429 363 429 352 420 c 128,-1,7
 341 411 341 411 339 396 c 128,-1,8
 337 381 337 381 346 374 c 128,-1,9
 355 367 355 367 382 358 c 0,10,11
 441 333 441 333 474.5 314.5 c 128,-1,12
 508 296 508 296 530.5 259 c 128,-1,13
 553 222 553 222 545 163 c 0,14,15
 533 81 533 81 471.5 35.5 c 128,-1,16
 410 -10 410 -10 321 -10 c 0,17,18
 283 -10 283 -10 247.5 -1 c 128,-1,19
 212 8 212 8 189 24 c 1,20,-1
 234 91 l 1,21,22
 256 76 256 76 276 68.5 c 128,-1,23
 296 61 296 61 325 61 c 0,24,25
 376 61 376 61 409.5 85 c 128,-1,26
 443 109 443 109 449 152 c 0,27,28
 453 183 453 183 441 202.5 c 128,-1,29
 429 222 429 222 407 233.5 c 128,-1,30
 385 245 385 245 347 260 c 0,31,32
 300 278 300 278 274.5 303.5 c 128,-1,33
 249 329 249 329 256 376 c 0,34,35
 261 411 261 411 284 436 c 128,-1,36
 307 461 307 461 351 486 c 0,37,38
 359 491 359 491 383.5 506 c 128,-1,39
 408 521 408 521 422.5 539 c 128,-1,40
 437 557 437 557 441 580 c 0,41,42
 446 613 446 613 424 632.5 c 128,-1,43
 402 652 402 652 358 652 c 0,44,45
 302 652 302 652 264 618 c 128,-1,46
 226 584 226 584 217 522 c 2,47,-1
 144 0 l 1,48,-1
 44 0 l 1,49,-1
 104 430 l 1,50,-1
 38 430 l 1,51,-1
 49 504 l 1,52,-1
 114 504 l 1,53,54
 130 602 130 602 197 662.5 c 128,-1,55
 264 723 264 723 375 723 c 0,56,0
 466 723 466 723 505.5 684 c 128,-1,1
EndSplineSet
EndChar

StartChar: agrave
Encoding: 224 224 161
Width: 562
GlyphClass: 2
Flags: W
AnchorPoint: "Anchor-5" -46 0 basechar 0
AnchorPoint: "Anchor-4" -46 0 basechar 0
AnchorPoint: "Anchor-3" 235 517 basechar 0
AnchorPoint: "Anchor-2" 425 12 basechar 0
LayerCount: 2
Fore
SplineSet
370 0 m 1,0,-1
 378 49 l 1,1,2
 337 18 337 18 299.5 4 c 128,-1,3
 262 -10 262 -10 221 -10 c 0,4,5
 155 -10 155 -10 109.5 22 c 128,-1,6
 64 54 64 54 44 116 c 128,-1,7
 24 178 24 178 36 265 c 0,8,9
 48 351 48 351 85 409.5 c 128,-1,10
 122 468 122 468 174 497.5 c 128,-1,11
 226 527 226 527 287 527 c 0,12,13
 342 527 342 527 375 506 c 128,-1,14
 408 485 408 485 436 455 c 1,15,-1
 445 517 l 1,16,-1
 547 517 l 1,17,-1
 472 0 l 1,18,-1
 370 0 l 1,0,-1
394 167 m 1,19,-1
 416 318 l 2,20,21
 424 374 424 374 394.5 413.5 c 128,-1,22
 365 453 365 453 309 453 c 0,23,24
 248 453 248 453 201 405 c 128,-1,25
 154 357 154 357 141 264 c 128,-1,26
 128 171 128 171 161.5 117 c 128,-1,27
 195 63 195 63 259 63 c 0,28,29
 334 63 334 63 394 167 c 1,19,-1
449 635 m 1,30,-1
 425 585 l 1,31,-1
 181 658 l 1,32,-1
 217 733 l 1,33,-1
 449 635 l 1,30,-1
EndSplineSet
EndChar

StartChar: aacute
Encoding: 225 225 162
Width: 562
GlyphClass: 2
Flags: W
AnchorPoint: "Anchor-5" -46 0 basechar 0
AnchorPoint: "Anchor-4" -46 0 basechar 0
AnchorPoint: "Anchor-3" 235 517 basechar 0
AnchorPoint: "Anchor-2" 425 12 basechar 0
LayerCount: 2
Fore
SplineSet
370 0 m 1,0,-1
 378 49 l 1,1,2
 337 18 337 18 299.5 4 c 128,-1,3
 262 -10 262 -10 221 -10 c 0,4,5
 155 -10 155 -10 109.5 22 c 128,-1,6
 64 54 64 54 44 116 c 128,-1,7
 24 178 24 178 36 265 c 0,8,9
 48 351 48 351 85 409.5 c 128,-1,10
 122 468 122 468 174 497.5 c 128,-1,11
 226 527 226 527 287 527 c 0,12,13
 342 527 342 527 375 506 c 128,-1,14
 408 485 408 485 436 455 c 1,15,-1
 445 517 l 1,16,-1
 547 517 l 1,17,-1
 472 0 l 1,18,-1
 370 0 l 1,0,-1
394 167 m 1,19,-1
 416 318 l 2,20,21
 424 374 424 374 394.5 413.5 c 128,-1,22
 365 453 365 453 309 453 c 0,23,24
 248 453 248 453 201 405 c 128,-1,25
 154 357 154 357 141 264 c 128,-1,26
 128 171 128 171 161.5 117 c 128,-1,27
 195 63 195 63 259 63 c 0,28,29
 334 63 334 63 394 167 c 1,19,-1
463 658 m 1,30,-1
 199 585 l 1,31,-1
 189 635 l 1,32,-1
 449 733 l 1,33,-1
 463 658 l 1,30,-1
EndSplineSet
EndChar

StartChar: acircumflex
Encoding: 226 226 163
Width: 562
GlyphClass: 2
Flags: W
AnchorPoint: "Anchor-5" -46 0 basechar 0
AnchorPoint: "Anchor-4" -46 0 basechar 0
AnchorPoint: "Anchor-3" 235 517 basechar 0
AnchorPoint: "Anchor-2" 425 12 basechar 0
LayerCount: 2
Fore
SplineSet
370 0 m 1,0,-1
 378 49 l 1,1,2
 337 18 337 18 299.5 4 c 128,-1,3
 262 -10 262 -10 221 -10 c 0,4,5
 155 -10 155 -10 109.5 22 c 128,-1,6
 64 54 64 54 44 116 c 128,-1,7
 24 178 24 178 36 265 c 0,8,9
 48 351 48 351 85 409.5 c 128,-1,10
 122 468 122 468 174 497.5 c 128,-1,11
 226 527 226 527 287 527 c 0,12,13
 342 527 342 527 375 506 c 128,-1,14
 408 485 408 485 436 455 c 1,15,-1
 445 517 l 1,16,-1
 547 517 l 1,17,-1
 472 0 l 1,18,-1
 370 0 l 1,0,-1
394 167 m 1,19,-1
 416 318 l 2,20,21
 424 374 424 374 394.5 413.5 c 128,-1,22
 365 453 365 453 309 453 c 0,23,24
 248 453 248 453 201 405 c 128,-1,25
 154 357 154 357 141 264 c 128,-1,26
 128 171 128 171 161.5 117 c 128,-1,27
 195 63 195 63 259 63 c 0,28,29
 334 63 334 63 394 167 c 1,19,-1
329 677 m 1,30,-1
 245 609 l 1,31,-1
 158 609 l 1,32,-1
 301 727 l 1,33,-1
 374 727 l 1,34,-1
 482 609 l 1,35,-1
 390 609 l 1,36,-1
 329 677 l 1,30,-1
EndSplineSet
EndChar

StartChar: atilde
Encoding: 227 227 164
Width: 562
GlyphClass: 2
Flags: W
AnchorPoint: "Anchor-5" -46 0 basechar 0
AnchorPoint: "Anchor-4" -46 0 basechar 0
AnchorPoint: "Anchor-3" 235 517 basechar 0
AnchorPoint: "Anchor-2" 425 12 basechar 0
LayerCount: 2
Fore
SplineSet
370 0 m 1,0,-1
 378 49 l 1,1,2
 337 18 337 18 299.5 4 c 128,-1,3
 262 -10 262 -10 221 -10 c 0,4,5
 155 -10 155 -10 109.5 22 c 128,-1,6
 64 54 64 54 44 116 c 128,-1,7
 24 178 24 178 36 265 c 0,8,9
 48 351 48 351 85 409.5 c 128,-1,10
 122 468 122 468 174 497.5 c 128,-1,11
 226 527 226 527 287 527 c 0,12,13
 342 527 342 527 375 506 c 128,-1,14
 408 485 408 485 436 455 c 1,15,-1
 445 517 l 1,16,-1
 547 517 l 1,17,-1
 472 0 l 1,18,-1
 370 0 l 1,0,-1
394 167 m 1,19,-1
 416 318 l 2,20,21
 424 374 424 374 394.5 413.5 c 128,-1,22
 365 453 365 453 309 453 c 0,23,24
 248 453 248 453 201 405 c 128,-1,25
 154 357 154 357 141 264 c 128,-1,26
 128 171 128 171 161.5 117 c 128,-1,27
 195 63 195 63 259 63 c 0,28,29
 334 63 334 63 394 167 c 1,19,-1
391 631 m 0,30,31
 361 631 361 631 323 645 c 0,32,33
 309 650 309 650 293.5 653.5 c 128,-1,34
 278 657 278 657 264 657 c 0,35,36
 245 657 245 657 232.5 652 c 128,-1,37
 220 647 220 647 200 636 c 0,38,39
 196 633 196 633 192 633 c 128,-1,40
 188 633 188 633 186 641 c 2,41,-1
 179 672 l 2,42,43
 178 674 178 674 179 678 c 0,44,45
 180 683 180 683 187 688 c 0,46,47
 207 703 207 703 225.5 711.5 c 128,-1,48
 244 720 244 720 268 720 c 0,49,50
 285 720 285 720 304 715.5 c 128,-1,51
 323 711 323 711 339 705 c 0,52,53
 376 692 376 692 399 692 c 0,54,55
 428 692 428 692 462 712 c 0,56,57
 466 715 466 715 470 715 c 0,58,59
 476 715 476 715 478 707 c 2,60,-1
 483 670 l 1,61,-1
 484 666 l 2,62,63
 483 661 483 661 472 654 c 0,64,65
 438 631 438 631 391 631 c 0,30,31
EndSplineSet
EndChar

StartChar: adieresis
Encoding: 228 228 165
Width: 562
GlyphClass: 2
Flags: W
AnchorPoint: "Anchor-5" -46 0 basechar 0
AnchorPoint: "Anchor-4" -46 0 basechar 0
AnchorPoint: "Anchor-3" 235 517 basechar 0
AnchorPoint: "Anchor-2" 425 12 basechar 0
LayerCount: 2
Fore
SplineSet
370 0 m 1,0,-1
 378 49 l 1,1,2
 337 18 337 18 299.5 4 c 128,-1,3
 262 -10 262 -10 221 -10 c 0,4,5
 155 -10 155 -10 109.5 22 c 128,-1,6
 64 54 64 54 44 116 c 128,-1,7
 24 178 24 178 36 265 c 0,8,9
 48 351 48 351 85 409.5 c 128,-1,10
 122 468 122 468 174 497.5 c 128,-1,11
 226 527 226 527 287 527 c 0,12,13
 342 527 342 527 375 506 c 128,-1,14
 408 485 408 485 436 455 c 1,15,-1
 445 517 l 1,16,-1
 547 517 l 1,17,-1
 472 0 l 1,18,-1
 370 0 l 1,0,-1
394 167 m 1,19,-1
 416 318 l 2,20,21
 424 374 424 374 394.5 413.5 c 128,-1,22
 365 453 365 453 309 453 c 0,23,24
 248 453 248 453 201 405 c 128,-1,25
 154 357 154 357 141 264 c 128,-1,26
 128 171 128 171 161.5 117 c 128,-1,27
 195 63 195 63 259 63 c 0,28,29
 334 63 334 63 394 167 c 1,19,-1
289 610 m 1,30,-1
 193 610 l 1,31,-1
 209 723 l 1,32,-1
 305 723 l 1,33,-1
 289 610 l 1,30,-1
449 610 m 1,34,-1
 352 610 l 1,35,-1
 368 723 l 1,36,-1
 465 723 l 1,37,-1
 449 610 l 1,34,-1
EndSplineSet
EndChar

StartChar: aring
Encoding: 229 229 166
Width: 562
GlyphClass: 2
Flags: W
AnchorPoint: "Anchor-5" -46 0 basechar 0
AnchorPoint: "Anchor-4" -46 0 basechar 0
AnchorPoint: "Anchor-3" 235 517 basechar 0
AnchorPoint: "Anchor-2" 425 12 basechar 0
LayerCount: 2
Fore
SplineSet
370 0 m 1,0,-1
 378 49 l 1,1,2
 337 18 337 18 299.5 4 c 128,-1,3
 262 -10 262 -10 221 -10 c 0,4,5
 155 -10 155 -10 109.5 22 c 128,-1,6
 64 54 64 54 44 116 c 128,-1,7
 24 178 24 178 36 265 c 0,8,9
 48 351 48 351 85 409.5 c 128,-1,10
 122 468 122 468 174 497.5 c 128,-1,11
 226 527 226 527 287 527 c 0,12,13
 342 527 342 527 375 506 c 128,-1,14
 408 485 408 485 436 455 c 1,15,-1
 445 517 l 1,16,-1
 547 517 l 1,17,-1
 472 0 l 1,18,-1
 370 0 l 1,0,-1
394 167 m 1,19,-1
 416 318 l 2,20,21
 424 374 424 374 394.5 413.5 c 128,-1,22
 365 453 365 453 309 453 c 0,23,24
 248 453 248 453 201 405 c 128,-1,25
 154 357 154 357 141 264 c 128,-1,26
 128 171 128 171 161.5 117 c 128,-1,27
 195 63 195 63 259 63 c 0,28,29
 334 63 334 63 394 167 c 1,19,-1
394.5 605 m 128,-1,31
 360 575 360 575 316 575 c 128,-1,32
 272 575 272 575 246.5 605.5 c 128,-1,33
 221 636 221 636 227 680 c 0,34,35
 233 722 233 722 267.5 751.5 c 128,-1,36
 302 781 302 781 345 781 c 0,37,38
 389 781 389 781 415 751 c 128,-1,39
 441 721 441 721 435 678 c 128,-1,30
 429 635 429 635 394.5 605 c 128,-1,31
372 716 m 128,-1,41
 359 731 359 731 337 731 c 128,-1,42
 315 731 315 731 297 716 c 128,-1,43
 279 701 279 701 276 678 c 0,44,45
 273 657 273 657 286.5 640.5 c 128,-1,46
 300 624 300 624 322 624 c 0,47,48
 343 624 343 624 361 640.5 c 128,-1,49
 379 657 379 657 382 678 c 0,50,40
 385 701 385 701 372 716 c 128,-1,41
EndSplineSet
EndChar

StartChar: ae
Encoding: 230 230 167
Width: 921
GlyphClass: 2
Flags: W
AnchorPoint: "Anchor-5" -46 0 basechar 0
AnchorPoint: "Anchor-4" -46 0 basechar 0
AnchorPoint: "Anchor-3" 408 517 basechar 0
AnchorPoint: "Anchor-2" -46 0 basechar 0
LayerCount: 2
Fore
SplineSet
487.5 152.5 m 128,-1,1
 503 113 503 113 535.5 88.5 c 128,-1,2
 568 64 568 64 610 64 c 0,3,4
 662 64 662 64 698.5 85.5 c 128,-1,5
 735 107 735 107 774 148 c 1,6,-1
 836 115 l 1,7,8
 742 -10 742 -10 588 -10 c 0,9,10
 518 -10 518 -10 474.5 18.5 c 128,-1,11
 431 47 431 47 402 90 c 0,12,13
 399 96 399 96 395 90 c 0,14,15
 347 44 347 44 293.5 17 c 128,-1,16
 240 -10 240 -10 164 -10 c 0,17,18
 86 -10 86 -10 48 29 c 128,-1,19
 10 68 10 68 19 135 c 0,20,21
 30 211 30 211 99.5 256 c 128,-1,22
 169 301 169 301 295 309 c 2,23,-1
 388 316 l 1,24,-1
 394 354 l 2,25,26
 401 403 401 403 376 430 c 128,-1,27
 351 457 351 457 296 457 c 0,28,29
 215 457 215 457 152 375 c 1,30,-1
 69 401 l 1,31,32
 110 463 110 463 169.5 495 c 128,-1,33
 229 527 229 527 312 527 c 0,34,35
 447 527 447 527 476 442 c 1,36,37
 512 484 512 484 560 505.5 c 128,-1,38
 608 527 608 527 664 527 c 0,39,40
 735 527 735 527 784.5 493 c 128,-1,41
 834 459 834 459 855 393.5 c 128,-1,42
 876 328 876 328 863 238 c 1,43,-1
 478 237 l 1,44,0
 472 192 472 192 487.5 152.5 c 128,-1,1
546.5 415 m 128,-1,46
 499 372 499 372 489 301 c 1,47,-1
 771 300 l 1,48,49
 777 341 777 341 765 377 c 128,-1,50
 753 413 753 413 724.5 435.5 c 128,-1,51
 696 458 696 458 655 458 c 0,52,45
 594 458 594 458 546.5 415 c 128,-1,46
303 250 m 2,53,54
 224 244 224 244 176.5 216.5 c 128,-1,55
 129 189 129 189 122 142 c 0,56,57
 117 104 117 104 139 81.5 c 128,-1,58
 161 59 161 59 206 59 c 0,59,60
 244 59 244 59 280 73.5 c 128,-1,61
 316 88 316 88 339.5 112.5 c 128,-1,62
 363 137 363 137 367 166 c 2,63,-1
 380 255 l 1,64,-1
 303 250 l 2,53,54
EndSplineSet
EndChar

StartChar: ccedilla
Encoding: 231 231 168
Width: 537
GlyphClass: 2
Flags: W
AnchorPoint: "Anchor-5" -46 0 basechar 0
AnchorPoint: "Anchor-4" 239 0 basechar 0
AnchorPoint: "Anchor-3" 238 517 basechar 0
AnchorPoint: "Anchor-2" -46 0 basechar 0
LayerCount: 2
Fore
SplineSet
435.5 484.5 m 128,-1,1
 480 442 480 442 493 371 c 1,2,-1
 407 358 l 1,3,4
 383 406 383 406 363 426 c 128,-1,5
 343 446 343 446 305 446 c 0,6,7
 238 446 238 446 191 395.5 c 128,-1,8
 144 345 144 345 132 258 c 0,9,10
 120 170 120 170 152.5 118 c 128,-1,11
 185 66 185 66 252 66 c 0,12,13
 294 66 294 66 325 90.5 c 128,-1,14
 356 115 356 115 385 160 c 1,15,-1
 466 147 l 1,16,17
 433 75 433 75 374 32.5 c 128,-1,18
 315 -10 315 -10 237 -10 c 0,19,20
 166 -10 166 -10 116.5 23.5 c 128,-1,21
 67 57 67 57 45.5 117.5 c 128,-1,22
 24 178 24 178 35 256 c 0,23,24
 46 335 46 335 84.5 396.5 c 128,-1,25
 123 458 123 458 182 492.5 c 128,-1,26
 241 527 241 527 312 527 c 0,27,0
 391 527 391 527 435.5 484.5 c 128,-1,1
278 -186 m 128,-1,29
 243 -207 243 -207 197 -207 c 0,30,31
 137 -207 137 -207 101 -182 c 1,32,-1
 123 -141 l 1,33,34
 153 -165 153 -165 190 -165 c 0,35,36
 244 -165 244 -165 249 -129 c 0,37,38
 252 -108 252 -108 234 -97.5 c 128,-1,39
 216 -87 216 -87 174 -86 c 0,40,41
 164 -86 164 -86 168 -79 c 2,42,-1
 217 5 l 1,43,-1
 269 5 l 1,44,-1
 236 -55 l 1,45,46
 284 -57 284 -57 303 -78.5 c 128,-1,47
 322 -100 322 -100 318 -129 c 0,48,28
 313 -165 313 -165 278 -186 c 128,-1,29
EndSplineSet
EndChar

StartChar: egrave
Encoding: 232 232 169
Width: 558
GlyphClass: 2
Flags: W
AnchorPoint: "Anchor-5" -46 0 basechar 0
AnchorPoint: "Anchor-4" 234 0 basechar 0
AnchorPoint: "Anchor-3" 238 517 basechar 0
AnchorPoint: "Anchor-2" 346 21 basechar 0
LayerCount: 2
Fore
SplineSet
156 114.5 m 128,-1,1
 187 68 187 68 255 68 c 0,2,3
 350 68 350 68 388 144 c 1,4,-1
 479 134 l 1,5,6
 454 68 454 68 389 29 c 128,-1,7
 324 -10 324 -10 246 -10 c 0,8,9
 173 -10 173 -10 121 21.5 c 128,-1,10
 69 53 69 53 46 113 c 128,-1,11
 23 173 23 173 35 253 c 0,12,13
 46 334 46 334 83 396 c 128,-1,14
 120 458 120 458 179 492.5 c 128,-1,15
 238 527 238 527 312 527 c 0,16,17
 421 527 421 527 471 458 c 128,-1,18
 521 389 521 389 504 270 c 2,19,-1
 499 234 l 1,20,-1
 135 234 l 1,21,0
 125 161 125 161 156 114.5 c 128,-1,1
411 302 m 1,22,23
 420 368 420 368 392 409.5 c 128,-1,24
 364 451 364 451 300 451 c 0,25,26
 257 451 257 451 223.5 429.5 c 128,-1,27
 190 408 190 408 170 374 c 128,-1,28
 150 340 150 340 144 302 c 1,29,-1
 411 302 l 1,22,23
452 635 m 1,30,-1
 428 585 l 1,31,-1
 184 658 l 1,32,-1
 220 733 l 1,33,-1
 452 635 l 1,30,-1
EndSplineSet
EndChar

StartChar: eacute
Encoding: 233 233 170
Width: 558
GlyphClass: 2
Flags: W
AnchorPoint: "Anchor-5" -46 0 basechar 0
AnchorPoint: "Anchor-4" 234 0 basechar 0
AnchorPoint: "Anchor-3" 238 517 basechar 0
AnchorPoint: "Anchor-2" 346 21 basechar 0
LayerCount: 2
Fore
SplineSet
156 114.5 m 128,-1,1
 187 68 187 68 255 68 c 0,2,3
 350 68 350 68 388 144 c 1,4,-1
 479 134 l 1,5,6
 454 68 454 68 389 29 c 128,-1,7
 324 -10 324 -10 246 -10 c 0,8,9
 173 -10 173 -10 121 21.5 c 128,-1,10
 69 53 69 53 46 113 c 128,-1,11
 23 173 23 173 35 253 c 0,12,13
 46 334 46 334 83 396 c 128,-1,14
 120 458 120 458 179 492.5 c 128,-1,15
 238 527 238 527 312 527 c 0,16,17
 421 527 421 527 471 458 c 128,-1,18
 521 389 521 389 504 270 c 2,19,-1
 499 234 l 1,20,-1
 135 234 l 1,21,0
 125 161 125 161 156 114.5 c 128,-1,1
411 302 m 1,22,23
 420 368 420 368 392 409.5 c 128,-1,24
 364 451 364 451 300 451 c 0,25,26
 257 451 257 451 223.5 429.5 c 128,-1,27
 190 408 190 408 170 374 c 128,-1,28
 150 340 150 340 144 302 c 1,29,-1
 411 302 l 1,22,23
466 658 m 1,30,-1
 202 585 l 1,31,-1
 192 635 l 1,32,-1
 452 733 l 1,33,-1
 466 658 l 1,30,-1
EndSplineSet
EndChar

StartChar: ecircumflex
Encoding: 234 234 171
Width: 558
GlyphClass: 2
Flags: W
AnchorPoint: "Anchor-5" -46 0 basechar 0
AnchorPoint: "Anchor-4" 234 0 basechar 0
AnchorPoint: "Anchor-3" 238 517 basechar 0
AnchorPoint: "Anchor-2" 346 21 basechar 0
LayerCount: 2
Fore
SplineSet
156 114.5 m 128,-1,1
 187 68 187 68 255 68 c 0,2,3
 350 68 350 68 388 144 c 1,4,-1
 479 134 l 1,5,6
 454 68 454 68 389 29 c 128,-1,7
 324 -10 324 -10 246 -10 c 0,8,9
 173 -10 173 -10 121 21.5 c 128,-1,10
 69 53 69 53 46 113 c 128,-1,11
 23 173 23 173 35 253 c 0,12,13
 46 334 46 334 83 396 c 128,-1,14
 120 458 120 458 179 492.5 c 128,-1,15
 238 527 238 527 312 527 c 0,16,17
 421 527 421 527 471 458 c 128,-1,18
 521 389 521 389 504 270 c 2,19,-1
 499 234 l 1,20,-1
 135 234 l 1,21,0
 125 161 125 161 156 114.5 c 128,-1,1
411 302 m 1,22,23
 420 368 420 368 392 409.5 c 128,-1,24
 364 451 364 451 300 451 c 0,25,26
 257 451 257 451 223.5 429.5 c 128,-1,27
 190 408 190 408 170 374 c 128,-1,28
 150 340 150 340 144 302 c 1,29,-1
 411 302 l 1,22,23
332 677 m 1,30,-1
 248 609 l 1,31,-1
 161 609 l 1,32,-1
 304 727 l 1,33,-1
 377 727 l 1,34,-1
 485 609 l 1,35,-1
 393 609 l 1,36,-1
 332 677 l 1,30,-1
EndSplineSet
EndChar

StartChar: edieresis
Encoding: 235 235 172
Width: 558
GlyphClass: 2
Flags: W
AnchorPoint: "Anchor-5" -46 0 basechar 0
AnchorPoint: "Anchor-4" 234 0 basechar 0
AnchorPoint: "Anchor-3" 238 517 basechar 0
AnchorPoint: "Anchor-2" 346 21 basechar 0
LayerCount: 2
Fore
SplineSet
156 114.5 m 128,-1,1
 187 68 187 68 255 68 c 0,2,3
 350 68 350 68 388 144 c 1,4,-1
 479 134 l 1,5,6
 454 68 454 68 389 29 c 128,-1,7
 324 -10 324 -10 246 -10 c 0,8,9
 173 -10 173 -10 121 21.5 c 128,-1,10
 69 53 69 53 46 113 c 128,-1,11
 23 173 23 173 35 253 c 0,12,13
 46 334 46 334 83 396 c 128,-1,14
 120 458 120 458 179 492.5 c 128,-1,15
 238 527 238 527 312 527 c 0,16,17
 421 527 421 527 471 458 c 128,-1,18
 521 389 521 389 504 270 c 2,19,-1
 499 234 l 1,20,-1
 135 234 l 1,21,0
 125 161 125 161 156 114.5 c 128,-1,1
411 302 m 1,22,23
 420 368 420 368 392 409.5 c 128,-1,24
 364 451 364 451 300 451 c 0,25,26
 257 451 257 451 223.5 429.5 c 128,-1,27
 190 408 190 408 170 374 c 128,-1,28
 150 340 150 340 144 302 c 1,29,-1
 411 302 l 1,22,23
292 610 m 1,30,-1
 196 610 l 1,31,-1
 212 723 l 1,32,-1
 308 723 l 1,33,-1
 292 610 l 1,30,-1
452 610 m 1,34,-1
 355 610 l 1,35,-1
 371 723 l 1,36,-1
 468 723 l 1,37,-1
 452 610 l 1,34,-1
EndSplineSet
EndChar

StartChar: igrave
Encoding: 236 236 173
Width: 255
GlyphClass: 2
Flags: W
AnchorPoint: "Anchor-5" -46 0 basechar 0
AnchorPoint: "Anchor-4" -46 0 basechar 0
AnchorPoint: "Anchor-3" 83 517 basechar 0
AnchorPoint: "Anchor-2" 116 11 basechar 0
LayerCount: 2
Fore
SplineSet
133 0 m 1,0,-1
 30 0 l 1,1,-1
 103 517 l 1,2,-1
 206 517 l 1,3,-1
 133 0 l 1,0,-1
297 635 m 1,4,-1
 273 585 l 1,5,-1
 29 658 l 1,6,-1
 65 733 l 1,7,-1
 297 635 l 1,4,-1
EndSplineSet
EndChar

StartChar: iacute
Encoding: 237 237 174
Width: 255
GlyphClass: 2
Flags: W
AnchorPoint: "Anchor-5" -46 0 basechar 0
AnchorPoint: "Anchor-4" -46 0 basechar 0
AnchorPoint: "Anchor-3" 83 517 basechar 0
AnchorPoint: "Anchor-2" 116 11 basechar 0
LayerCount: 2
Fore
SplineSet
133 0 m 1,0,-1
 30 0 l 1,1,-1
 103 517 l 1,2,-1
 206 517 l 1,3,-1
 133 0 l 1,0,-1
311 658 m 1,4,-1
 47 585 l 1,5,-1
 37 635 l 1,6,-1
 297 733 l 1,7,-1
 311 658 l 1,4,-1
EndSplineSet
EndChar

StartChar: icircumflex
Encoding: 238 238 175
Width: 255
GlyphClass: 2
Flags: W
AnchorPoint: "Anchor-5" -46 0 basechar 0
AnchorPoint: "Anchor-4" -46 0 basechar 0
AnchorPoint: "Anchor-3" 83 517 basechar 0
AnchorPoint: "Anchor-2" 116 11 basechar 0
LayerCount: 2
Fore
SplineSet
133 0 m 1,0,-1
 30 0 l 1,1,-1
 103 517 l 1,2,-1
 206 517 l 1,3,-1
 133 0 l 1,0,-1
177 677 m 1,4,-1
 93 609 l 1,5,-1
 6 609 l 1,6,-1
 149 727 l 1,7,-1
 222 727 l 1,8,-1
 330 609 l 1,9,-1
 238 609 l 1,10,-1
 177 677 l 1,4,-1
EndSplineSet
EndChar

StartChar: idieresis
Encoding: 239 239 176
Width: 255
GlyphClass: 2
Flags: W
AnchorPoint: "Anchor-5" -46 0 basechar 0
AnchorPoint: "Anchor-4" -46 0 basechar 0
AnchorPoint: "Anchor-3" 83 517 basechar 0
AnchorPoint: "Anchor-2" 116 11 basechar 0
LayerCount: 2
Fore
SplineSet
133 0 m 1,0,-1
 30 0 l 1,1,-1
 103 517 l 1,2,-1
 206 517 l 1,3,-1
 133 0 l 1,0,-1
137 610 m 1,4,-1
 41 610 l 1,5,-1
 57 723 l 1,6,-1
 153 723 l 1,7,-1
 137 610 l 1,4,-1
297 610 m 1,8,-1
 200 610 l 1,9,-1
 216 723 l 1,10,-1
 313 723 l 1,11,-1
 297 610 l 1,8,-1
EndSplineSet
EndChar

StartChar: eth
Encoding: 240 240 177
Width: 593
GlyphClass: 2
Flags: W
LayerCount: 2
Fore
SplineSet
487.5 118 m 128,-1,1
 448 57 448 57 386.5 23.5 c 128,-1,2
 325 -10 325 -10 248 -10 c 0,3,4
 175 -10 175 -10 122.5 23 c 128,-1,5
 70 56 70 56 46.5 114.5 c 128,-1,6
 23 173 23 173 34 246 c 0,7,8
 45 321 45 321 85 380.5 c 128,-1,9
 125 440 125 440 185.5 473.5 c 128,-1,10
 246 507 246 507 316 507 c 0,11,12
 379 507 379 507 412 469 c 1,13,14
 385 551 385 551 308 609 c 1,15,-1
 150 527 l 1,16,-1
 132 567 l 1,17,-1
 267 636 l 1,18,19
 227 661 227 661 164 686 c 1,20,-1
 233 734 l 1,21,22
 294 713 294 713 352 681 c 1,23,-1
 458 736 l 1,24,-1
 475 695 l 1,25,-1
 393 652 l 1,26,27
 485 582 485 582 520.5 482 c 128,-1,28
 556 382 556 382 539 260 c 0,29,0
 527 179 527 179 487.5 118 c 128,-1,1
373.5 114 m 128,-1,31
 420 165 420 165 432 249 c 0,32,33
 444 332 444 332 411 384 c 128,-1,34
 378 436 378 436 312 436 c 128,-1,35
 246 436 246 436 198.5 384 c 128,-1,36
 151 332 151 332 139 249 c 128,-1,37
 127 166 127 166 160.5 114.5 c 128,-1,38
 194 63 194 63 261 63 c 0,39,30
 327 63 327 63 373.5 114 c 128,-1,31
EndSplineSet
EndChar

StartChar: ntilde
Encoding: 241 241 178
Width: 593
GlyphClass: 2
Flags: W
AnchorPoint: "Anchor-5" -46 0 basechar 0
AnchorPoint: "Anchor-4" 251 0 basechar 0
AnchorPoint: "Anchor-3" 257 517 basechar 0
AnchorPoint: "Anchor-2" -46 0 basechar 0
LayerCount: 2
Fore
SplineSet
103 517 m 1,0,-1
 203 517 l 1,1,-1
 193 446 l 1,2,3
 257 524 257 524 364 524 c 0,4,5
 414 524 414 524 452 502.5 c 128,-1,6
 490 481 490 481 508.5 439.5 c 128,-1,7
 527 398 527 398 519 341 c 2,8,-1
 471 0 l 1,9,-1
 368 0 l 1,10,-1
 414 330 l 2,11,12
 421 382 421 382 396 411.5 c 128,-1,13
 371 441 371 441 322 441 c 0,14,15
 268 441 268 441 228 416 c 128,-1,16
 188 391 188 391 181 345 c 2,17,-1
 133 0 l 1,18,-1
 30 0 l 1,19,-1
 103 517 l 1,0,-1
413 631 m 0,20,21
 383 631 383 631 345 645 c 0,22,23
 331 650 331 650 315.5 653.5 c 128,-1,24
 300 657 300 657 286 657 c 0,25,26
 267 657 267 657 254.5 652 c 128,-1,27
 242 647 242 647 222 636 c 0,28,29
 218 633 218 633 214 633 c 128,-1,30
 210 633 210 633 208 641 c 2,31,-1
 201 672 l 2,32,33
 200 674 200 674 201 678 c 0,34,35
 202 683 202 683 209 688 c 0,36,37
 229 703 229 703 247.5 711.5 c 128,-1,38
 266 720 266 720 290 720 c 0,39,40
 307 720 307 720 326 715.5 c 128,-1,41
 345 711 345 711 361 705 c 0,42,43
 398 692 398 692 421 692 c 0,44,45
 450 692 450 692 484 712 c 0,46,47
 488 715 488 715 492 715 c 0,48,49
 498 715 498 715 500 707 c 2,50,-1
 505 670 l 1,51,-1
 506 666 l 2,52,53
 505 661 505 661 494 654 c 0,54,55
 460 631 460 631 413 631 c 0,20,21
EndSplineSet
EndChar

StartChar: ograve
Encoding: 242 242 179
Width: 568
GlyphClass: 2
Flags: W
AnchorPoint: "Anchor-5" -46 0 basechar 0
AnchorPoint: "Anchor-4" 237 0 basechar 0
AnchorPoint: "Anchor-3" 240 517 basechar 0
AnchorPoint: "Anchor-2" 306 10 basechar 0
LayerCount: 2
Fore
SplineSet
113.5 23.5 m 128,-1,1
 64 57 64 57 44 117 c 128,-1,2
 24 177 24 177 35 255 c 0,3,4
 46 335 46 335 84 396.5 c 128,-1,5
 122 458 122 458 181.5 492.5 c 128,-1,6
 241 527 241 527 313 527 c 0,7,8
 387 527 387 527 435.5 492.5 c 128,-1,9
 484 458 484 458 504 396.5 c 128,-1,10
 524 335 524 335 513 256 c 0,11,12
 502 178 502 178 465 117.5 c 128,-1,13
 428 57 428 57 369.5 23.5 c 128,-1,14
 311 -10 311 -10 237 -10 c 128,-1,0
 163 -10 163 -10 113.5 23.5 c 128,-1,1
359.5 122 m 128,-1,16
 401 175 401 175 412 259 c 0,17,18
 424 343 424 343 397.5 395.5 c 128,-1,19
 371 448 371 448 302 448 c 128,-1,20
 233 448 233 448 191 395.5 c 128,-1,21
 149 343 149 343 137 259 c 128,-1,22
 125 175 125 175 152.5 122 c 128,-1,23
 180 69 180 69 250 69 c 0,24,15
 318 69 318 69 359.5 122 c 128,-1,16
454 635 m 1,25,-1
 430 585 l 1,26,-1
 186 658 l 1,27,-1
 222 733 l 1,28,-1
 454 635 l 1,25,-1
EndSplineSet
EndChar

StartChar: oacute
Encoding: 243 243 180
Width: 568
GlyphClass: 2
Flags: W
AnchorPoint: "Anchor-5" -46 0 basechar 0
AnchorPoint: "Anchor-4" 237 0 basechar 0
AnchorPoint: "Anchor-3" 240 517 basechar 0
AnchorPoint: "Anchor-2" 306 10 basechar 0
LayerCount: 2
Fore
SplineSet
113.5 23.5 m 128,-1,1
 64 57 64 57 44 117 c 128,-1,2
 24 177 24 177 35 255 c 0,3,4
 46 335 46 335 84 396.5 c 128,-1,5
 122 458 122 458 181.5 492.5 c 128,-1,6
 241 527 241 527 313 527 c 0,7,8
 387 527 387 527 435.5 492.5 c 128,-1,9
 484 458 484 458 504 396.5 c 128,-1,10
 524 335 524 335 513 256 c 0,11,12
 502 178 502 178 465 117.5 c 128,-1,13
 428 57 428 57 369.5 23.5 c 128,-1,14
 311 -10 311 -10 237 -10 c 128,-1,0
 163 -10 163 -10 113.5 23.5 c 128,-1,1
359.5 122 m 128,-1,16
 401 175 401 175 412 259 c 0,17,18
 424 343 424 343 397.5 395.5 c 128,-1,19
 371 448 371 448 302 448 c 128,-1,20
 233 448 233 448 191 395.5 c 128,-1,21
 149 343 149 343 137 259 c 128,-1,22
 125 175 125 175 152.5 122 c 128,-1,23
 180 69 180 69 250 69 c 0,24,15
 318 69 318 69 359.5 122 c 128,-1,16
468 658 m 1,25,-1
 204 585 l 1,26,-1
 194 635 l 1,27,-1
 454 733 l 1,28,-1
 468 658 l 1,25,-1
EndSplineSet
EndChar

StartChar: ocircumflex
Encoding: 244 244 181
Width: 568
GlyphClass: 2
Flags: W
AnchorPoint: "Anchor-5" -46 0 basechar 0
AnchorPoint: "Anchor-4" 237 0 basechar 0
AnchorPoint: "Anchor-3" 240 517 basechar 0
AnchorPoint: "Anchor-2" 306 10 basechar 0
LayerCount: 2
Fore
SplineSet
113.5 23.5 m 128,-1,1
 64 57 64 57 44 117 c 128,-1,2
 24 177 24 177 35 255 c 0,3,4
 46 335 46 335 84 396.5 c 128,-1,5
 122 458 122 458 181.5 492.5 c 128,-1,6
 241 527 241 527 313 527 c 0,7,8
 387 527 387 527 435.5 492.5 c 128,-1,9
 484 458 484 458 504 396.5 c 128,-1,10
 524 335 524 335 513 256 c 0,11,12
 502 178 502 178 465 117.5 c 128,-1,13
 428 57 428 57 369.5 23.5 c 128,-1,14
 311 -10 311 -10 237 -10 c 128,-1,0
 163 -10 163 -10 113.5 23.5 c 128,-1,1
359.5 122 m 128,-1,16
 401 175 401 175 412 259 c 0,17,18
 424 343 424 343 397.5 395.5 c 128,-1,19
 371 448 371 448 302 448 c 128,-1,20
 233 448 233 448 191 395.5 c 128,-1,21
 149 343 149 343 137 259 c 128,-1,22
 125 175 125 175 152.5 122 c 128,-1,23
 180 69 180 69 250 69 c 0,24,15
 318 69 318 69 359.5 122 c 128,-1,16
334 677 m 1,25,-1
 250 609 l 1,26,-1
 163 609 l 1,27,-1
 306 727 l 1,28,-1
 379 727 l 1,29,-1
 487 609 l 1,30,-1
 395 609 l 1,31,-1
 334 677 l 1,25,-1
EndSplineSet
EndChar

StartChar: otilde
Encoding: 245 245 182
Width: 568
GlyphClass: 2
Flags: W
AnchorPoint: "Anchor-5" -46 0 basechar 0
AnchorPoint: "Anchor-4" 237 0 basechar 0
AnchorPoint: "Anchor-3" 240 517 basechar 0
AnchorPoint: "Anchor-2" 306 10 basechar 0
LayerCount: 2
Fore
SplineSet
113.5 23.5 m 128,-1,1
 64 57 64 57 44 117 c 128,-1,2
 24 177 24 177 35 255 c 0,3,4
 46 335 46 335 84 396.5 c 128,-1,5
 122 458 122 458 181.5 492.5 c 128,-1,6
 241 527 241 527 313 527 c 0,7,8
 387 527 387 527 435.5 492.5 c 128,-1,9
 484 458 484 458 504 396.5 c 128,-1,10
 524 335 524 335 513 256 c 0,11,12
 502 178 502 178 465 117.5 c 128,-1,13
 428 57 428 57 369.5 23.5 c 128,-1,14
 311 -10 311 -10 237 -10 c 128,-1,0
 163 -10 163 -10 113.5 23.5 c 128,-1,1
359.5 122 m 128,-1,16
 401 175 401 175 412 259 c 0,17,18
 424 343 424 343 397.5 395.5 c 128,-1,19
 371 448 371 448 302 448 c 128,-1,20
 233 448 233 448 191 395.5 c 128,-1,21
 149 343 149 343 137 259 c 128,-1,22
 125 175 125 175 152.5 122 c 128,-1,23
 180 69 180 69 250 69 c 0,24,15
 318 69 318 69 359.5 122 c 128,-1,16
396 631 m 0,25,26
 366 631 366 631 328 645 c 0,27,28
 314 650 314 650 298.5 653.5 c 128,-1,29
 283 657 283 657 269 657 c 0,30,31
 250 657 250 657 237.5 652 c 128,-1,32
 225 647 225 647 205 636 c 0,33,34
 201 633 201 633 197 633 c 128,-1,35
 193 633 193 633 191 641 c 2,36,-1
 184 672 l 2,37,38
 183 674 183 674 184 678 c 0,39,40
 185 683 185 683 192 688 c 0,41,42
 212 703 212 703 230.5 711.5 c 128,-1,43
 249 720 249 720 273 720 c 0,44,45
 290 720 290 720 309 715.5 c 128,-1,46
 328 711 328 711 344 705 c 0,47,48
 381 692 381 692 404 692 c 0,49,50
 433 692 433 692 467 712 c 0,51,52
 471 715 471 715 475 715 c 0,53,54
 481 715 481 715 483 707 c 2,55,-1
 488 670 l 1,56,-1
 489 666 l 2,57,58
 488 661 488 661 477 654 c 0,59,60
 443 631 443 631 396 631 c 0,25,26
EndSplineSet
EndChar

StartChar: odieresis
Encoding: 246 246 183
Width: 568
GlyphClass: 2
Flags: W
AnchorPoint: "Anchor-5" -46 0 basechar 0
AnchorPoint: "Anchor-4" 237 0 basechar 0
AnchorPoint: "Anchor-3" 240 517 basechar 0
AnchorPoint: "Anchor-2" 306 10 basechar 0
LayerCount: 2
Fore
SplineSet
113.5 23.5 m 128,-1,1
 64 57 64 57 44 117 c 128,-1,2
 24 177 24 177 35 255 c 0,3,4
 46 335 46 335 84 396.5 c 128,-1,5
 122 458 122 458 181.5 492.5 c 128,-1,6
 241 527 241 527 313 527 c 0,7,8
 387 527 387 527 435.5 492.5 c 128,-1,9
 484 458 484 458 504 396.5 c 128,-1,10
 524 335 524 335 513 256 c 0,11,12
 502 178 502 178 465 117.5 c 128,-1,13
 428 57 428 57 369.5 23.5 c 128,-1,14
 311 -10 311 -10 237 -10 c 128,-1,0
 163 -10 163 -10 113.5 23.5 c 128,-1,1
359.5 122 m 128,-1,16
 401 175 401 175 412 259 c 0,17,18
 424 343 424 343 397.5 395.5 c 128,-1,19
 371 448 371 448 302 448 c 128,-1,20
 233 448 233 448 191 395.5 c 128,-1,21
 149 343 149 343 137 259 c 128,-1,22
 125 175 125 175 152.5 122 c 128,-1,23
 180 69 180 69 250 69 c 0,24,15
 318 69 318 69 359.5 122 c 128,-1,16
294 610 m 1,25,-1
 198 610 l 1,26,-1
 214 723 l 1,27,-1
 310 723 l 1,28,-1
 294 610 l 1,25,-1
454 610 m 1,29,-1
 357 610 l 1,30,-1
 373 723 l 1,31,-1
 470 723 l 1,32,-1
 454 610 l 1,29,-1
EndSplineSet
EndChar

StartChar: divide
Encoding: 247 247 184
Width: 562
GlyphClass: 2
Flags: W
LayerCount: 2
Fore
SplineSet
363 484 m 1,0,-1
 240 484 l 1,1,-1
 257 603 l 1,2,-1
 380 603 l 1,3,-1
 363 484 l 1,0,-1
498 325 m 1,4,-1
 59 324 l 1,5,-1
 69 402 l 1,6,-1
 509 403 l 1,7,-1
 498 325 l 1,4,-1
313 125 m 1,8,-1
 190 125 l 1,9,-1
 206 243 l 1,10,-1
 329 243 l 1,11,-1
 313 125 l 1,8,-1
EndSplineSet
EndChar

StartChar: oslash
Encoding: 248 248 185
Width: 582
GlyphClass: 2
Flags: W
AnchorPoint: "Anchor-5" -46 0 basechar 0
AnchorPoint: "Anchor-4" 240 0 basechar 0
AnchorPoint: "Anchor-3" 243 517 basechar 0
AnchorPoint: "Anchor-2" 309 10 basechar 0
LayerCount: 2
Fore
SplineSet
502 412 m 1,0,1
 529 345 529 345 516 256 c 0,2,3
 505 178 505 178 468 117.5 c 128,-1,4
 431 57 431 57 372.5 23.5 c 128,-1,5
 314 -10 314 -10 240 -10 c 0,6,7
 137 -10 137 -10 81 55 c 1,8,-1
 9 -6 l 1,9,-1
 -25 36 l 1,10,-1
 53 102 l 1,11,12
 25 167 25 167 38 255 c 0,13,14
 49 335 49 335 87 396.5 c 128,-1,15
 125 458 125 458 184.5 492.5 c 128,-1,16
 244 527 244 527 316 527 c 0,17,18
 421 527 421 527 475 459 c 1,19,-1
 548 521 l 1,20,-1
 581 480 l 1,21,-1
 502 412 l 1,0,1
140 175 m 1,22,-1
 401 396 l 1,23,24
 371 448 371 448 305 448 c 0,25,26
 236 448 236 448 194 395.5 c 128,-1,27
 152 343 152 343 140 259 c 0,28,29
 134 209 134 209 140 175 c 1,22,-1
417 340 m 1,30,-1
 157 120 l 1,31,32
 187 69 187 69 253 69 c 0,33,34
 321 69 321 69 362.5 122 c 128,-1,35
 404 175 404 175 415 259 c 0,36,37
 422 306 422 306 417 340 c 1,30,-1
EndSplineSet
EndChar

StartChar: ugrave
Encoding: 249 249 186
Width: 593
GlyphClass: 2
Flags: W
AnchorPoint: "Anchor-5" -46 0 basechar 0
AnchorPoint: "Anchor-4" 250 0 basechar 0
AnchorPoint: "Anchor-3" 243 517 basechar 0
AnchorPoint: "Anchor-2" 453 11 basechar 0
LayerCount: 2
Fore
SplineSet
135.5 9.5 m 128,-1,1
 93 28 93 28 69 67 c 128,-1,2
 45 106 45 106 53 165 c 2,3,-1
 103 518 l 1,4,-1
 206 518 l 1,5,-1
 158 176 l 2,6,7
 150 122 150 122 181 95.5 c 128,-1,8
 212 69 212 69 258 69 c 0,9,10
 308 69 308 69 346.5 98.5 c 128,-1,11
 385 128 385 128 393 181 c 2,12,-1
 441 518 l 1,13,-1
 544 518 l 1,14,-1
 469 1 l 1,15,-1
 389 1 l 1,16,-1
 395 79 l 1,17,18
 372 43 372 43 322.5 17 c 128,-1,19
 273 -9 273 -9 225 -9 c 0,20,0
 178 -9 178 -9 135.5 9.5 c 128,-1,1
457 635 m 1,21,-1
 433 585 l 1,22,-1
 189 658 l 1,23,-1
 225 733 l 1,24,-1
 457 635 l 1,21,-1
EndSplineSet
EndChar

StartChar: uacute
Encoding: 250 250 187
Width: 593
GlyphClass: 2
Flags: W
AnchorPoint: "Anchor-5" -46 0 basechar 0
AnchorPoint: "Anchor-4" 250 0 basechar 0
AnchorPoint: "Anchor-3" 243 517 basechar 0
AnchorPoint: "Anchor-2" 453 11 basechar 0
LayerCount: 2
Fore
SplineSet
135.5 9.5 m 128,-1,1
 93 28 93 28 69 67 c 128,-1,2
 45 106 45 106 53 165 c 2,3,-1
 103 518 l 1,4,-1
 206 518 l 1,5,-1
 158 176 l 2,6,7
 150 122 150 122 181 95.5 c 128,-1,8
 212 69 212 69 258 69 c 0,9,10
 308 69 308 69 346.5 98.5 c 128,-1,11
 385 128 385 128 393 181 c 2,12,-1
 441 518 l 1,13,-1
 544 518 l 1,14,-1
 469 1 l 1,15,-1
 389 1 l 1,16,-1
 395 79 l 1,17,18
 372 43 372 43 322.5 17 c 128,-1,19
 273 -9 273 -9 225 -9 c 0,20,0
 178 -9 178 -9 135.5 9.5 c 128,-1,1
471 658 m 1,21,-1
 207 585 l 1,22,-1
 197 635 l 1,23,-1
 457 733 l 1,24,-1
 471 658 l 1,21,-1
EndSplineSet
EndChar

StartChar: ucircumflex
Encoding: 251 251 188
Width: 593
GlyphClass: 2
Flags: W
AnchorPoint: "Anchor-5" -46 0 basechar 0
AnchorPoint: "Anchor-4" 250 0 basechar 0
AnchorPoint: "Anchor-3" 243 517 basechar 0
AnchorPoint: "Anchor-2" 453 11 basechar 0
LayerCount: 2
Fore
SplineSet
135.5 9.5 m 128,-1,1
 93 28 93 28 69 67 c 128,-1,2
 45 106 45 106 53 165 c 2,3,-1
 103 518 l 1,4,-1
 206 518 l 1,5,-1
 158 176 l 2,6,7
 150 122 150 122 181 95.5 c 128,-1,8
 212 69 212 69 258 69 c 0,9,10
 308 69 308 69 346.5 98.5 c 128,-1,11
 385 128 385 128 393 181 c 2,12,-1
 441 518 l 1,13,-1
 544 518 l 1,14,-1
 469 1 l 1,15,-1
 389 1 l 1,16,-1
 395 79 l 1,17,18
 372 43 372 43 322.5 17 c 128,-1,19
 273 -9 273 -9 225 -9 c 0,20,0
 178 -9 178 -9 135.5 9.5 c 128,-1,1
337 677 m 1,21,-1
 253 609 l 1,22,-1
 166 609 l 1,23,-1
 309 727 l 1,24,-1
 382 727 l 1,25,-1
 490 609 l 1,26,-1
 398 609 l 1,27,-1
 337 677 l 1,21,-1
EndSplineSet
EndChar

StartChar: udieresis
Encoding: 252 252 189
Width: 593
GlyphClass: 2
Flags: W
AnchorPoint: "Anchor-5" -46 0 basechar 0
AnchorPoint: "Anchor-4" 250 0 basechar 0
AnchorPoint: "Anchor-3" 243 517 basechar 0
AnchorPoint: "Anchor-2" 453 11 basechar 0
LayerCount: 2
Fore
SplineSet
135.5 9.5 m 128,-1,1
 93 28 93 28 69 67 c 128,-1,2
 45 106 45 106 53 165 c 2,3,-1
 103 518 l 1,4,-1
 206 518 l 1,5,-1
 158 176 l 2,6,7
 150 122 150 122 181 95.5 c 128,-1,8
 212 69 212 69 258 69 c 0,9,10
 308 69 308 69 346.5 98.5 c 128,-1,11
 385 128 385 128 393 181 c 2,12,-1
 441 518 l 1,13,-1
 544 518 l 1,14,-1
 469 1 l 1,15,-1
 389 1 l 1,16,-1
 395 79 l 1,17,18
 372 43 372 43 322.5 17 c 128,-1,19
 273 -9 273 -9 225 -9 c 0,20,0
 178 -9 178 -9 135.5 9.5 c 128,-1,1
297 610 m 1,21,-1
 201 610 l 1,22,-1
 217 723 l 1,23,-1
 313 723 l 1,24,-1
 297 610 l 1,21,-1
457 610 m 1,25,-1
 360 610 l 1,26,-1
 376 723 l 1,27,-1
 473 723 l 1,28,-1
 457 610 l 1,25,-1
EndSplineSet
EndChar

StartChar: yacute
Encoding: 253 253 190
Width: 537
GlyphClass: 2
Flags: W
AnchorPoint: "Anchor-5" -46 0 basechar 0
AnchorPoint: "Anchor-4" -46 0 basechar 0
AnchorPoint: "Anchor-3" 234 517 basechar 0
AnchorPoint: "Anchor-2" -46 0 basechar 0
LayerCount: 2
Fore
SplineSet
14.5 -162 m 128,-1,1
 -3 -159 -3 -159 -11 -155.5 c 128,-1,2
 -19 -152 -19 -152 -21 -151 c 2,3,-1
 -12 -85 l 1,4,-1
 41 -87 l 2,5,6
 93 -89 93 -89 117 -73 c 128,-1,7
 141 -57 141 -57 156 -31 c 2,8,-1
 178 14 l 1,9,-1
 47 517 l 1,10,-1
 150 517 l 1,11,-1
 242 129 l 1,12,-1
 444 517 l 1,13,-1
 544 517 l 1,14,-1
 251 -32 l 2,15,16
 209 -107 209 -107 164 -136 c 128,-1,17
 119 -165 119 -165 60 -165 c 0,18,0
 32 -165 32 -165 14.5 -162 c 128,-1,1
462 658 m 1,19,-1
 198 585 l 1,20,-1
 188 635 l 1,21,-1
 448 733 l 1,22,-1
 462 658 l 1,19,-1
EndSplineSet
EndChar

StartChar: thorn
Encoding: 254 254 191
Width: 595
GlyphClass: 2
Flags: W
LayerCount: 2
Fore
SplineSet
195 447 m 1,0,1
 232 482 232 482 270 504.5 c 128,-1,2
 308 527 308 527 368 527 c 128,-1,3
 428 527 428 527 471.5 498 c 128,-1,4
 515 469 515 469 534 410 c 128,-1,5
 553 351 553 351 541 265 c 0,6,7
 529 177 529 177 493 115.5 c 128,-1,8
 457 54 457 54 403 22 c 128,-1,9
 349 -10 349 -10 284 -10 c 0,10,11
 204 -10 204 -10 153 39 c 0,12,13
 147 46 147 46 143 46 c 128,-1,14
 139 46 139 46 138 33 c 2,15,-1
 110 -161 l 1,16,-1
 7 -161 l 1,17,-1
 132 723 l 1,18,-1
 234 723 l 1,19,-1
 195 447 l 1,0,1
261 60 m 0,20,21
 328 60 328 60 375.5 112 c 128,-1,22
 423 164 423 164 437 265 c 0,23,24
 451 363 451 363 418 410 c 128,-1,25
 385 457 385 457 321 457 c 0,26,27
 286 457 286 457 255.5 441.5 c 128,-1,28
 225 426 225 426 205.5 402.5 c 128,-1,29
 186 379 186 379 183 355 c 2,30,-1
 150 120 l 1,31,32
 198 60 198 60 261 60 c 0,20,21
EndSplineSet
EndChar

StartChar: ydieresis
Encoding: 255 255 192
Width: 537
GlyphClass: 2
Flags: W
AnchorPoint: "Anchor-5" -46 0 basechar 0
AnchorPoint: "Anchor-4" -46 0 basechar 0
AnchorPoint: "Anchor-3" 234 517 basechar 0
AnchorPoint: "Anchor-2" -46 0 basechar 0
LayerCount: 2
Fore
SplineSet
14.5 -162 m 128,-1,1
 -3 -159 -3 -159 -11 -155.5 c 128,-1,2
 -19 -152 -19 -152 -21 -151 c 2,3,-1
 -12 -85 l 1,4,-1
 41 -87 l 2,5,6
 93 -89 93 -89 117 -73 c 128,-1,7
 141 -57 141 -57 156 -31 c 2,8,-1
 178 14 l 1,9,-1
 47 517 l 1,10,-1
 150 517 l 1,11,-1
 242 129 l 1,12,-1
 444 517 l 1,13,-1
 544 517 l 1,14,-1
 251 -32 l 2,15,16
 209 -107 209 -107 164 -136 c 128,-1,17
 119 -165 119 -165 60 -165 c 0,18,0
 32 -165 32 -165 14.5 -162 c 128,-1,1
288 610 m 1,19,-1
 192 610 l 1,20,-1
 208 723 l 1,21,-1
 304 723 l 1,22,-1
 288 610 l 1,19,-1
448 610 m 1,23,-1
 351 610 l 1,24,-1
 367 723 l 1,25,-1
 464 723 l 1,26,-1
 448 610 l 1,23,-1
EndSplineSet
EndChar

StartChar: Amacron
Encoding: 256 256 193
Width: 700
GlyphClass: 2
Flags: W
AnchorPoint: "Anchor-5" -46 0 basechar 0
AnchorPoint: "Anchor-4" -46 0 basechar 0
AnchorPoint: "Anchor-3" 310 723 basechar 0
AnchorPoint: "Anchor-2" 617 10 basechar 0
LayerCount: 2
Fore
SplineSet
350 723 m 1,0,-1
 463 723 l 1,1,-1
 622 0 l 1,2,-1
 519 0 l 1,3,-1
 477 192 l 1,4,-1
 188 192 l 1,5,-1
 90 0 l 1,6,-1
 -13 0 l 1,7,-1
 350 723 l 1,0,-1
463 285 m 1,8,-1
 393 623 l 1,9,-1
 226 285 l 1,10,-1
 463 285 l 1,8,-1
583 847 m 1,11,-1
 275 847 l 1,12,-1
 285 918 l 1,13,-1
 593 918 l 1,14,-1
 583 847 l 1,11,-1
EndSplineSet
EndChar

StartChar: amacron
Encoding: 257 257 194
Width: 562
GlyphClass: 2
Flags: W
AnchorPoint: "Anchor-5" -46 0 basechar 0
AnchorPoint: "Anchor-4" -46 0 basechar 0
AnchorPoint: "Anchor-3" 235 517 basechar 0
AnchorPoint: "Anchor-2" 425 12 basechar 0
LayerCount: 2
Fore
SplineSet
370 0 m 1,0,-1
 378 49 l 1,1,2
 337 18 337 18 299.5 4 c 128,-1,3
 262 -10 262 -10 221 -10 c 0,4,5
 155 -10 155 -10 109.5 22 c 128,-1,6
 64 54 64 54 44 116 c 128,-1,7
 24 178 24 178 36 265 c 0,8,9
 48 351 48 351 85 409.5 c 128,-1,10
 122 468 122 468 174 497.5 c 128,-1,11
 226 527 226 527 287 527 c 0,12,13
 342 527 342 527 375 506 c 128,-1,14
 408 485 408 485 436 455 c 1,15,-1
 445 517 l 1,16,-1
 547 517 l 1,17,-1
 472 0 l 1,18,-1
 370 0 l 1,0,-1
394 167 m 1,19,-1
 416 318 l 2,20,21
 424 374 424 374 394.5 413.5 c 128,-1,22
 365 453 365 453 309 453 c 0,23,24
 248 453 248 453 201 405 c 128,-1,25
 154 357 154 357 141 264 c 128,-1,26
 128 171 128 171 161.5 117 c 128,-1,27
 195 63 195 63 259 63 c 0,28,29
 334 63 334 63 394 167 c 1,19,-1
479 641 m 1,30,-1
 171 641 l 1,31,-1
 181 712 l 1,32,-1
 489 712 l 1,33,-1
 479 641 l 1,30,-1
EndSplineSet
EndChar

StartChar: Abreve
Encoding: 258 258 195
Width: 700
GlyphClass: 2
Flags: W
AnchorPoint: "Anchor-5" -46 0 basechar 0
AnchorPoint: "Anchor-4" -46 0 basechar 0
AnchorPoint: "Anchor-3" 310 723 basechar 0
AnchorPoint: "Anchor-2" 617 10 basechar 0
LayerCount: 2
Fore
SplineSet
350 723 m 1,0,-1
 463 723 l 1,1,-1
 622 0 l 1,2,-1
 519 0 l 1,3,-1
 477 192 l 1,4,-1
 188 192 l 1,5,-1
 90 0 l 1,6,-1
 -13 0 l 1,7,-1
 350 723 l 1,0,-1
463 285 m 1,8,-1
 393 623 l 1,9,-1
 226 285 l 1,10,-1
 463 285 l 1,8,-1
530.5 849 m 128,-1,12
 484 817 484 817 425 817 c 0,13,14
 365 817 365 817 328.5 848 c 128,-1,15
 292 879 292 879 286 929 c 1,16,-1
 356 929 l 1,17,18
 380 876 380 876 433 876 c 0,19,20
 461 876 461 876 485.5 891.5 c 128,-1,21
 510 907 510 907 525 929 c 1,22,-1
 597 929 l 1,23,11
 577 881 577 881 530.5 849 c 128,-1,12
EndSplineSet
EndChar

StartChar: abreve
Encoding: 259 259 196
Width: 562
GlyphClass: 2
Flags: W
AnchorPoint: "Anchor-5" -46 0 basechar 0
AnchorPoint: "Anchor-4" -46 0 basechar 0
AnchorPoint: "Anchor-3" 235 517 basechar 0
AnchorPoint: "Anchor-2" 425 12 basechar 0
LayerCount: 2
Fore
SplineSet
370 0 m 1,0,-1
 378 49 l 1,1,2
 337 18 337 18 299.5 4 c 128,-1,3
 262 -10 262 -10 221 -10 c 0,4,5
 155 -10 155 -10 109.5 22 c 128,-1,6
 64 54 64 54 44 116 c 128,-1,7
 24 178 24 178 36 265 c 0,8,9
 48 351 48 351 85 409.5 c 128,-1,10
 122 468 122 468 174 497.5 c 128,-1,11
 226 527 226 527 287 527 c 0,12,13
 342 527 342 527 375 506 c 128,-1,14
 408 485 408 485 436 455 c 1,15,-1
 445 517 l 1,16,-1
 547 517 l 1,17,-1
 472 0 l 1,18,-1
 370 0 l 1,0,-1
394 167 m 1,19,-1
 416 318 l 2,20,21
 424 374 424 374 394.5 413.5 c 128,-1,22
 365 453 365 453 309 453 c 0,23,24
 248 453 248 453 201 405 c 128,-1,25
 154 357 154 357 141 264 c 128,-1,26
 128 171 128 171 161.5 117 c 128,-1,27
 195 63 195 63 259 63 c 0,28,29
 334 63 334 63 394 167 c 1,19,-1
426.5 643 m 128,-1,31
 380 611 380 611 321 611 c 0,32,33
 261 611 261 611 224.5 642 c 128,-1,34
 188 673 188 673 182 723 c 1,35,-1
 252 723 l 1,36,37
 276 670 276 670 329 670 c 0,38,39
 357 670 357 670 381.5 685.5 c 128,-1,40
 406 701 406 701 421 723 c 1,41,-1
 493 723 l 1,42,30
 473 675 473 675 426.5 643 c 128,-1,31
EndSplineSet
EndChar

StartChar: Aogonek
Encoding: 260 260 197
Width: 700
GlyphClass: 2
Flags: W
AnchorPoint: "Anchor-5" -46 0 basechar 0
AnchorPoint: "Anchor-4" -46 0 basechar 0
AnchorPoint: "Anchor-3" 310 723 basechar 0
AnchorPoint: "Anchor-2" 617 10 basechar 0
LayerCount: 2
Fore
SplineSet
350 723 m 1,0,-1
 463 723 l 1,1,-1
 622 0 l 1,2,-1
 519 0 l 1,3,-1
 477 192 l 1,4,-1
 188 192 l 1,5,-1
 90 0 l 1,6,-1
 -13 0 l 1,7,-1
 350 723 l 1,0,-1
463 285 m 1,8,-1
 393 623 l 1,9,-1
 226 285 l 1,10,-1
 463 285 l 1,8,-1
471.5 -33 m 128,-1,12
 497 -10 497 -10 556 8 c 1,13,-1
 630 3 l 1,14,15
 575 -18 575 -18 550.5 -36.5 c 128,-1,16
 526 -55 526 -55 523 -78 c 0,17,18
 520 -96 520 -96 529.5 -105 c 128,-1,19
 539 -114 539 -114 562 -114 c 0,20,21
 594 -114 594 -114 624 -100 c 0,22,23
 627 -98 627 -98 631 -98 c 0,24,25
 636 -98 636 -98 635 -106 c 2,26,-1
 631 -138 l 2,27,28
 630 -146 630 -146 622 -150 c 0,29,30
 608 -157 608 -157 583 -162 c 128,-1,31
 558 -167 558 -167 532 -167 c 0,32,33
 483 -167 483 -167 460 -146 c 128,-1,34
 437 -125 437 -125 442 -88 c 0,35,11
 446 -56 446 -56 471.5 -33 c 128,-1,12
EndSplineSet
EndChar

StartChar: aogonek
Encoding: 261 261 198
Width: 562
GlyphClass: 2
Flags: W
AnchorPoint: "Anchor-5" -46 0 basechar 0
AnchorPoint: "Anchor-4" -46 0 basechar 0
AnchorPoint: "Anchor-3" 235 517 basechar 0
AnchorPoint: "Anchor-2" 425 12 basechar 0
LayerCount: 2
Fore
SplineSet
370 0 m 1,0,-1
 378 49 l 1,1,2
 337 18 337 18 299.5 4 c 128,-1,3
 262 -10 262 -10 221 -10 c 0,4,5
 155 -10 155 -10 109.5 22 c 128,-1,6
 64 54 64 54 44 116 c 128,-1,7
 24 178 24 178 36 265 c 0,8,9
 48 351 48 351 85 409.5 c 128,-1,10
 122 468 122 468 174 497.5 c 128,-1,11
 226 527 226 527 287 527 c 0,12,13
 342 527 342 527 375 506 c 128,-1,14
 408 485 408 485 436 455 c 1,15,-1
 445 517 l 1,16,-1
 547 517 l 1,17,-1
 472 0 l 1,18,-1
 370 0 l 1,0,-1
394 167 m 1,19,-1
 416 318 l 2,20,21
 424 374 424 374 394.5 413.5 c 128,-1,22
 365 453 365 453 309 453 c 0,23,24
 248 453 248 453 201 405 c 128,-1,25
 154 357 154 357 141 264 c 128,-1,26
 128 171 128 171 161.5 117 c 128,-1,27
 195 63 195 63 259 63 c 0,28,29
 334 63 334 63 394 167 c 1,19,-1
279.5 -31 m 128,-1,31
 305 -8 305 -8 364 10 c 1,32,-1
 438 5 l 1,33,34
 383 -16 383 -16 358.5 -34.5 c 128,-1,35
 334 -53 334 -53 331 -76 c 0,36,37
 328 -94 328 -94 337.5 -103 c 128,-1,38
 347 -112 347 -112 370 -112 c 0,39,40
 402 -112 402 -112 432 -98 c 0,41,42
 435 -96 435 -96 439 -96 c 0,43,44
 444 -96 444 -96 443 -104 c 2,45,-1
 439 -136 l 2,46,47
 438 -144 438 -144 430 -148 c 0,48,49
 416 -155 416 -155 391 -160 c 128,-1,50
 366 -165 366 -165 340 -165 c 0,51,52
 291 -165 291 -165 268 -144 c 128,-1,53
 245 -123 245 -123 250 -86 c 0,54,30
 254 -54 254 -54 279.5 -31 c 128,-1,31
EndSplineSet
EndChar

StartChar: Cacute
Encoding: 262 262 199
Width: 689
GlyphClass: 2
Flags: W
AnchorPoint: "Anchor-5" -46 0 basechar 0
AnchorPoint: "Anchor-4" 317 0 basechar 0
AnchorPoint: "Anchor-3" 317 723 basechar 0
AnchorPoint: "Anchor-2" -46 0 basechar 0
LayerCount: 2
Fore
SplineSet
549.5 703.5 m 128,-1,1
 607 674 607 674 636 622.5 c 128,-1,2
 665 571 665 571 663 508 c 1,3,-1
 555 504 l 1,4,5
 552 569 552 569 513.5 607 c 128,-1,6
 475 645 475 645 402 645 c 0,7,8
 307 645 307 645 247.5 575 c 128,-1,9
 188 505 188 505 168 363 c 128,-1,10
 148 221 148 221 188 149.5 c 128,-1,11
 228 78 228 78 326 78 c 0,12,13
 390 78 390 78 440.5 116.5 c 128,-1,14
 491 155 491 155 514 219 c 1,15,-1
 620 212 l 1,16,17
 603 149 603 149 562.5 99 c 128,-1,18
 522 49 522 49 459 19.5 c 128,-1,19
 396 -10 396 -10 316 -10 c 0,20,21
 219 -10 219 -10 154.5 35.5 c 128,-1,22
 90 81 90 81 64.5 165.5 c 128,-1,23
 39 250 39 250 55 364 c 128,-1,24
 71 478 71 478 119.5 561 c 128,-1,25
 168 644 168 644 243.5 688.5 c 128,-1,26
 319 733 319 733 415 733 c 0,27,0
 492 733 492 733 549.5 703.5 c 128,-1,1
574 864 m 1,28,-1
 310 791 l 1,29,-1
 300 841 l 1,30,-1
 560 939 l 1,31,-1
 574 864 l 1,28,-1
EndSplineSet
EndChar

StartChar: cacute
Encoding: 263 263 200
Width: 537
GlyphClass: 2
Flags: W
AnchorPoint: "Anchor-5" -46 0 basechar 0
AnchorPoint: "Anchor-4" 239 0 basechar 0
AnchorPoint: "Anchor-3" 238 517 basechar 0
AnchorPoint: "Anchor-2" -46 0 basechar 0
LayerCount: 2
Fore
SplineSet
435.5 484.5 m 128,-1,1
 480 442 480 442 493 371 c 1,2,-1
 407 358 l 1,3,4
 383 406 383 406 363 426 c 128,-1,5
 343 446 343 446 305 446 c 0,6,7
 238 446 238 446 191 395.5 c 128,-1,8
 144 345 144 345 132 258 c 0,9,10
 120 170 120 170 152.5 118 c 128,-1,11
 185 66 185 66 252 66 c 0,12,13
 294 66 294 66 325 90.5 c 128,-1,14
 356 115 356 115 385 160 c 1,15,-1
 466 147 l 1,16,17
 433 75 433 75 374 32.5 c 128,-1,18
 315 -10 315 -10 237 -10 c 0,19,20
 166 -10 166 -10 116.5 23.5 c 128,-1,21
 67 57 67 57 45.5 117.5 c 128,-1,22
 24 178 24 178 35 256 c 0,23,24
 46 335 46 335 84.5 396.5 c 128,-1,25
 123 458 123 458 182 492.5 c 128,-1,26
 241 527 241 527 312 527 c 0,27,0
 391 527 391 527 435.5 484.5 c 128,-1,1
466 658 m 1,28,-1
 202 585 l 1,29,-1
 192 635 l 1,30,-1
 452 733 l 1,31,-1
 466 658 l 1,28,-1
EndSplineSet
EndChar

StartChar: Ccircumflex
Encoding: 264 264 201
Width: 689
GlyphClass: 2
Flags: W
AnchorPoint: "Anchor-5" -46 0 basechar 0
AnchorPoint: "Anchor-4" 317 0 basechar 0
AnchorPoint: "Anchor-3" 317 723 basechar 0
AnchorPoint: "Anchor-2" -46 0 basechar 0
LayerCount: 2
Fore
SplineSet
549.5 703.5 m 128,-1,1
 607 674 607 674 636 622.5 c 128,-1,2
 665 571 665 571 663 508 c 1,3,-1
 555 504 l 1,4,5
 552 569 552 569 513.5 607 c 128,-1,6
 475 645 475 645 402 645 c 0,7,8
 307 645 307 645 247.5 575 c 128,-1,9
 188 505 188 505 168 363 c 128,-1,10
 148 221 148 221 188 149.5 c 128,-1,11
 228 78 228 78 326 78 c 0,12,13
 390 78 390 78 440.5 116.5 c 128,-1,14
 491 155 491 155 514 219 c 1,15,-1
 620 212 l 1,16,17
 603 149 603 149 562.5 99 c 128,-1,18
 522 49 522 49 459 19.5 c 128,-1,19
 396 -10 396 -10 316 -10 c 0,20,21
 219 -10 219 -10 154.5 35.5 c 128,-1,22
 90 81 90 81 64.5 165.5 c 128,-1,23
 39 250 39 250 55 364 c 128,-1,24
 71 478 71 478 119.5 561 c 128,-1,25
 168 644 168 644 243.5 688.5 c 128,-1,26
 319 733 319 733 415 733 c 0,27,0
 492 733 492 733 549.5 703.5 c 128,-1,1
440 883 m 1,28,-1
 356 815 l 1,29,-1
 269 815 l 1,30,-1
 412 933 l 1,31,-1
 485 933 l 1,32,-1
 593 815 l 1,33,-1
 501 815 l 1,34,-1
 440 883 l 1,28,-1
EndSplineSet
EndChar

StartChar: ccircumflex
Encoding: 265 265 202
Width: 537
GlyphClass: 2
Flags: W
AnchorPoint: "Anchor-5" -46 0 basechar 0
AnchorPoint: "Anchor-4" 239 0 basechar 0
AnchorPoint: "Anchor-3" 238 517 basechar 0
AnchorPoint: "Anchor-2" -46 0 basechar 0
LayerCount: 2
Fore
SplineSet
435.5 484.5 m 128,-1,1
 480 442 480 442 493 371 c 1,2,-1
 407 358 l 1,3,4
 383 406 383 406 363 426 c 128,-1,5
 343 446 343 446 305 446 c 0,6,7
 238 446 238 446 191 395.5 c 128,-1,8
 144 345 144 345 132 258 c 0,9,10
 120 170 120 170 152.5 118 c 128,-1,11
 185 66 185 66 252 66 c 0,12,13
 294 66 294 66 325 90.5 c 128,-1,14
 356 115 356 115 385 160 c 1,15,-1
 466 147 l 1,16,17
 433 75 433 75 374 32.5 c 128,-1,18
 315 -10 315 -10 237 -10 c 0,19,20
 166 -10 166 -10 116.5 23.5 c 128,-1,21
 67 57 67 57 45.5 117.5 c 128,-1,22
 24 178 24 178 35 256 c 0,23,24
 46 335 46 335 84.5 396.5 c 128,-1,25
 123 458 123 458 182 492.5 c 128,-1,26
 241 527 241 527 312 527 c 0,27,0
 391 527 391 527 435.5 484.5 c 128,-1,1
332 677 m 1,28,-1
 248 609 l 1,29,-1
 161 609 l 1,30,-1
 304 727 l 1,31,-1
 377 727 l 1,32,-1
 485 609 l 1,33,-1
 393 609 l 1,34,-1
 332 677 l 1,28,-1
EndSplineSet
EndChar

StartChar: Cdotaccent
Encoding: 266 266 203
Width: 689
GlyphClass: 2
Flags: W
AnchorPoint: "Anchor-5" -46 0 basechar 0
AnchorPoint: "Anchor-4" 317 0 basechar 0
AnchorPoint: "Anchor-3" 317 723 basechar 0
AnchorPoint: "Anchor-2" -46 0 basechar 0
LayerCount: 2
Fore
SplineSet
549.5 703.5 m 128,-1,1
 607 674 607 674 636 622.5 c 128,-1,2
 665 571 665 571 663 508 c 1,3,-1
 555 504 l 1,4,5
 552 569 552 569 513.5 607 c 128,-1,6
 475 645 475 645 402 645 c 0,7,8
 307 645 307 645 247.5 575 c 128,-1,9
 188 505 188 505 168 363 c 128,-1,10
 148 221 148 221 188 149.5 c 128,-1,11
 228 78 228 78 326 78 c 0,12,13
 390 78 390 78 440.5 116.5 c 128,-1,14
 491 155 491 155 514 219 c 1,15,-1
 620 212 l 1,16,17
 603 149 603 149 562.5 99 c 128,-1,18
 522 49 522 49 459 19.5 c 128,-1,19
 396 -10 396 -10 316 -10 c 0,20,21
 219 -10 219 -10 154.5 35.5 c 128,-1,22
 90 81 90 81 64.5 165.5 c 128,-1,23
 39 250 39 250 55 364 c 128,-1,24
 71 478 71 478 119.5 561 c 128,-1,25
 168 644 168 644 243.5 688.5 c 128,-1,26
 319 733 319 733 415 733 c 0,27,0
 492 733 492 733 549.5 703.5 c 128,-1,1
485 806 m 1,28,-1
 377 806 l 1,29,-1
 395 929 l 1,30,-1
 503 929 l 1,31,-1
 485 806 l 1,28,-1
EndSplineSet
EndChar

StartChar: cdotaccent
Encoding: 267 267 204
Width: 537
GlyphClass: 2
Flags: W
AnchorPoint: "Anchor-5" -46 0 basechar 0
AnchorPoint: "Anchor-4" 239 0 basechar 0
AnchorPoint: "Anchor-3" 238 517 basechar 0
AnchorPoint: "Anchor-2" -46 0 basechar 0
LayerCount: 2
Fore
SplineSet
435.5 484.5 m 128,-1,1
 480 442 480 442 493 371 c 1,2,-1
 407 358 l 1,3,4
 383 406 383 406 363 426 c 128,-1,5
 343 446 343 446 305 446 c 0,6,7
 238 446 238 446 191 395.5 c 128,-1,8
 144 345 144 345 132 258 c 0,9,10
 120 170 120 170 152.5 118 c 128,-1,11
 185 66 185 66 252 66 c 0,12,13
 294 66 294 66 325 90.5 c 128,-1,14
 356 115 356 115 385 160 c 1,15,-1
 466 147 l 1,16,17
 433 75 433 75 374 32.5 c 128,-1,18
 315 -10 315 -10 237 -10 c 0,19,20
 166 -10 166 -10 116.5 23.5 c 128,-1,21
 67 57 67 57 45.5 117.5 c 128,-1,22
 24 178 24 178 35 256 c 0,23,24
 46 335 46 335 84.5 396.5 c 128,-1,25
 123 458 123 458 182 492.5 c 128,-1,26
 241 527 241 527 312 527 c 0,27,0
 391 527 391 527 435.5 484.5 c 128,-1,1
377 600 m 1,28,-1
 269 600 l 1,29,-1
 287 723 l 1,30,-1
 395 723 l 1,31,-1
 377 600 l 1,28,-1
EndSplineSet
EndChar

StartChar: Ccaron
Encoding: 268 268 205
Width: 689
GlyphClass: 2
Flags: W
AnchorPoint: "Anchor-5" -46 0 basechar 0
AnchorPoint: "Anchor-4" 317 0 basechar 0
AnchorPoint: "Anchor-3" 317 723 basechar 0
AnchorPoint: "Anchor-2" -46 0 basechar 0
LayerCount: 2
Fore
SplineSet
549.5 703.5 m 128,-1,1
 607 674 607 674 636 622.5 c 128,-1,2
 665 571 665 571 663 508 c 1,3,-1
 555 504 l 1,4,5
 552 569 552 569 513.5 607 c 128,-1,6
 475 645 475 645 402 645 c 0,7,8
 307 645 307 645 247.5 575 c 128,-1,9
 188 505 188 505 168 363 c 128,-1,10
 148 221 148 221 188 149.5 c 128,-1,11
 228 78 228 78 326 78 c 0,12,13
 390 78 390 78 440.5 116.5 c 128,-1,14
 491 155 491 155 514 219 c 1,15,-1
 620 212 l 1,16,17
 603 149 603 149 562.5 99 c 128,-1,18
 522 49 522 49 459 19.5 c 128,-1,19
 396 -10 396 -10 316 -10 c 0,20,21
 219 -10 219 -10 154.5 35.5 c 128,-1,22
 90 81 90 81 64.5 165.5 c 128,-1,23
 39 250 39 250 55 364 c 128,-1,24
 71 478 71 478 119.5 561 c 128,-1,25
 168 644 168 644 243.5 688.5 c 128,-1,26
 319 733 319 733 415 733 c 0,27,0
 492 733 492 733 549.5 703.5 c 128,-1,1
609 929 m 1,28,-1
 468 810 l 1,29,-1
 395 810 l 1,30,-1
 285 929 l 1,31,-1
 372 929 l 1,32,-1
 437 860 l 1,33,-1
 517 929 l 1,34,-1
 609 929 l 1,28,-1
EndSplineSet
EndChar

StartChar: ccaron
Encoding: 269 269 206
Width: 537
GlyphClass: 2
Flags: W
AnchorPoint: "Anchor-5" -46 0 basechar 0
AnchorPoint: "Anchor-4" 239 0 basechar 0
AnchorPoint: "Anchor-3" 238 517 basechar 0
AnchorPoint: "Anchor-2" -46 0 basechar 0
LayerCount: 2
Fore
SplineSet
435.5 484.5 m 128,-1,1
 480 442 480 442 493 371 c 1,2,-1
 407 358 l 1,3,4
 383 406 383 406 363 426 c 128,-1,5
 343 446 343 446 305 446 c 0,6,7
 238 446 238 446 191 395.5 c 128,-1,8
 144 345 144 345 132 258 c 0,9,10
 120 170 120 170 152.5 118 c 128,-1,11
 185 66 185 66 252 66 c 0,12,13
 294 66 294 66 325 90.5 c 128,-1,14
 356 115 356 115 385 160 c 1,15,-1
 466 147 l 1,16,17
 433 75 433 75 374 32.5 c 128,-1,18
 315 -10 315 -10 237 -10 c 0,19,20
 166 -10 166 -10 116.5 23.5 c 128,-1,21
 67 57 67 57 45.5 117.5 c 128,-1,22
 24 178 24 178 35 256 c 0,23,24
 46 335 46 335 84.5 396.5 c 128,-1,25
 123 458 123 458 182 492.5 c 128,-1,26
 241 527 241 527 312 527 c 0,27,0
 391 527 391 527 435.5 484.5 c 128,-1,1
501 723 m 1,28,-1
 360 604 l 1,29,-1
 287 604 l 1,30,-1
 177 723 l 1,31,-1
 264 723 l 1,32,-1
 329 654 l 1,33,-1
 409 723 l 1,34,-1
 501 723 l 1,28,-1
EndSplineSet
EndChar

StartChar: Dcaron
Encoding: 270 270 207
Width: 693
GlyphClass: 2
Flags: W
AnchorPoint: "Anchor-5" -46 0 basechar 0
AnchorPoint: "Anchor-4" -46 0 basechar 0
AnchorPoint: "Anchor-3" 296 723 basechar 0
AnchorPoint: "Anchor-2" -46 0 basechar 0
LayerCount: 2
Fore
SplineSet
322 722 m 0,0,1
 517 719 517 719 595 629.5 c 128,-1,2
 673 540 673 540 648 366 c 0,3,4
 597 0 597 0 213 0 c 2,5,-1
 45 0 l 1,6,-1
 147 723 l 1,7,8
 261 723 261 723 322 722 c 0,0,1
161 87 m 1,9,-1
 225 87 l 2,10,11
 359 87 359 87 440 152.5 c 128,-1,12
 521 218 521 218 541 365 c 0,13,14
 562 511 562 511 502 574 c 128,-1,15
 442 637 442 637 307 637 c 2,16,-1
 239 637 l 1,17,-1
 161 87 l 1,9,-1
588 929 m 1,18,-1
 447 810 l 1,19,-1
 374 810 l 1,20,-1
 264 929 l 1,21,-1
 351 929 l 1,22,-1
 416 860 l 1,23,-1
 496 929 l 1,24,-1
 588 929 l 1,18,-1
EndSplineSet
EndChar

StartChar: dcaron
Encoding: 271 271 208
Width: 589
GlyphClass: 2
Flags: W
AnchorPoint: "Anchor-5" 545 639 basechar 0
AnchorPoint: "Anchor-4" 243 0 basechar 0
AnchorPoint: "Anchor-3" -46 0 basechar 0
AnchorPoint: "Anchor-2" -46 0 basechar 0
LayerCount: 2
Fore
SplineSet
65 59 m 128,-1,1
 17 128 17 128 35 254 c 0,2,3
 53 379 53 379 119.5 453 c 128,-1,4
 186 527 186 527 287 527 c 0,5,6
 376 527 376 527 429 461 c 1,7,-1
 468 743 l 1,8,-1
 571 743 l 1,9,-1
 467 0 l 1,10,-1
 389 0 l 1,11,-1
 392 73 l 1,12,13
 366 42 366 42 320.5 16 c 128,-1,14
 275 -10 275 -10 213 -10 c 0,15,0
 113 -10 113 -10 65 59 c 128,-1,1
313 85 m 128,-1,17
 345 103 345 103 366 133 c 128,-1,18
 387 163 387 163 392 196 c 2,19,-1
 415 362 l 1,20,21
 386 449 386 449 303 449 c 0,22,23
 238 449 238 449 193.5 400.5 c 128,-1,24
 149 352 149 352 136 257 c 0,25,26
 123 161 123 161 153.5 114 c 128,-1,27
 184 67 184 67 245 67 c 0,28,16
 281 67 281 67 313 85 c 128,-1,17
530.5 444 m 128,-1,30
 529 447 529 447 530 451 c 2,31,-1
 570 522 l 1,32,-1
 573 530 l 2,33,34
 574 535 574 535 567 536 c 2,35,-1
 559 537 l 2,36,37
 553 538 553 538 551 540 c 128,-1,38
 549 542 549 542 550 548 c 2,39,-1
 561 629 l 2,40,41
 562 639 562 639 572 639 c 2,42,-1
 635 639 l 2,43,44
 643 639 643 639 641 631 c 2,45,-1
 628 537 l 1,46,-1
 626 531 l 1,47,-1
 581 451 l 2,48,49
 578 445 578 445 573.5 443 c 128,-1,50
 569 441 569 441 560 441 c 2,51,-1
 536 441 l 2,52,29
 532 441 532 441 530.5 444 c 128,-1,30
EndSplineSet
EndChar

StartChar: Dcroat
Encoding: 272 272 209
Width: 705
GlyphClass: 2
Flags: W
AnchorPoint: "Anchor-5" -46 0 basechar 0
AnchorPoint: "Anchor-4" -46 0 basechar 0
AnchorPoint: "Anchor-3" 309 723 basechar 0
AnchorPoint: "Anchor-2" -46 0 basechar 0
LayerCount: 2
Fore
SplineSet
608 629.5 m 128,-1,1
 686 540 686 540 661 366 c 0,2,3
 610 0 610 0 226 0 c 2,4,-1
 58 0 l 1,5,-1
 103 320 l 1,6,-1
 48 320 l 2,7,8
 39 320 39 320 35.5 324 c 128,-1,9
 32 328 32 328 33 336 c 2,10,-1
 40 386 l 2,11,12
 42 400 42 400 54 400 c 2,13,-1
 114 400 l 1,14,-1
 160 723 l 1,15,16
 275 723 275 723 335 722 c 0,17,0
 530 719 530 719 608 629.5 c 128,-1,1
453 152.5 m 128,-1,19
 534 218 534 218 554 365 c 0,20,21
 575 511 575 511 515 574 c 128,-1,22
 455 637 455 637 320 637 c 2,23,-1
 252 637 l 1,24,-1
 218 400 l 1,25,-1
 371 400 l 2,26,27
 382 400 382 400 381 388 c 2,28,-1
 374 338 l 2,29,30
 373 328 373 328 367 324 c 128,-1,31
 361 320 361 320 350 320 c 2,32,-1
 207 320 l 1,33,-1
 174 87 l 1,34,-1
 238 87 l 2,35,18
 372 87 372 87 453 152.5 c 128,-1,19
EndSplineSet
EndChar

StartChar: dcroat
Encoding: 273 273 210
Width: 602
GlyphClass: 2
Flags: W
AnchorPoint: "Anchor-5" 545 639 basechar 0
AnchorPoint: "Anchor-4" 243 0 basechar 0
AnchorPoint: "Anchor-3" -46 0 basechar 0
AnchorPoint: "Anchor-2" -46 0 basechar 0
LayerCount: 2
Fore
SplineSet
612 593 m 1,0,-1
 550 593 l 1,1,-1
 467 0 l 1,2,-1
 389 0 l 1,3,-1
 392 73 l 1,4,5
 366 42 366 42 320.5 16 c 128,-1,6
 275 -10 275 -10 213 -10 c 0,7,8
 113 -10 113 -10 65 59 c 128,-1,9
 17 128 17 128 35 254 c 0,10,11
 53 379 53 379 119.5 453 c 128,-1,12
 186 527 186 527 287 527 c 0,13,14
 376 527 376 527 429 461 c 1,15,-1
 447 593 l 1,16,-1
 298 593 l 1,17,-1
 307 655 l 1,18,-1
 456 655 l 1,19,-1
 468 743 l 1,20,-1
 571 743 l 1,21,-1
 559 655 l 1,22,-1
 621 655 l 1,23,-1
 612 593 l 1,0,-1
415 362 m 1,24,25
 386 449 386 449 303 449 c 0,26,27
 238 449 238 449 193.5 400.5 c 128,-1,28
 149 352 149 352 136 257 c 0,29,30
 123 161 123 161 153.5 114 c 128,-1,31
 184 67 184 67 245 67 c 0,32,33
 281 67 281 67 313 85 c 128,-1,34
 345 103 345 103 366 133 c 128,-1,35
 387 163 387 163 392 196 c 2,36,-1
 415 362 l 1,24,25
EndSplineSet
EndChar

StartChar: Emacron
Encoding: 274 274 211
Width: 625
GlyphClass: 2
Flags: W
AnchorPoint: "Anchor-5" -46 0 basechar 0
AnchorPoint: "Anchor-4" 296 0 basechar 0
AnchorPoint: "Anchor-3" 285 723 basechar 0
AnchorPoint: "Anchor-2" 511 10 basechar 0
LayerCount: 2
Fore
SplineSet
147 723 m 1,0,-1
 610 723 l 1,1,-1
 596 634 l 1,2,-1
 236 634 l 1,3,-1
 204 409 l 1,4,-1
 527 409 l 1,5,-1
 515 321 l 1,6,-1
 192 321 l 1,7,-1
 160 91 l 1,8,-1
 530 90 l 1,9,-1
 517 0 l 1,10,-1
 45 0 l 1,11,-1
 147 723 l 1,0,-1
558 847 m 1,12,-1
 250 847 l 1,13,-1
 260 918 l 1,14,-1
 568 918 l 1,15,-1
 558 847 l 1,12,-1
EndSplineSet
EndChar

StartChar: emacron
Encoding: 275 275 212
Width: 558
GlyphClass: 2
Flags: W
AnchorPoint: "Anchor-5" -46 0 basechar 0
AnchorPoint: "Anchor-4" 234 0 basechar 0
AnchorPoint: "Anchor-3" 238 517 basechar 0
AnchorPoint: "Anchor-2" 346 21 basechar 0
LayerCount: 2
Fore
SplineSet
156 114.5 m 128,-1,1
 187 68 187 68 255 68 c 0,2,3
 350 68 350 68 388 144 c 1,4,-1
 479 134 l 1,5,6
 454 68 454 68 389 29 c 128,-1,7
 324 -10 324 -10 246 -10 c 0,8,9
 173 -10 173 -10 121 21.5 c 128,-1,10
 69 53 69 53 46 113 c 128,-1,11
 23 173 23 173 35 253 c 0,12,13
 46 334 46 334 83 396 c 128,-1,14
 120 458 120 458 179 492.5 c 128,-1,15
 238 527 238 527 312 527 c 0,16,17
 421 527 421 527 471 458 c 128,-1,18
 521 389 521 389 504 270 c 2,19,-1
 499 234 l 1,20,-1
 135 234 l 1,21,0
 125 161 125 161 156 114.5 c 128,-1,1
411 302 m 1,22,23
 420 368 420 368 392 409.5 c 128,-1,24
 364 451 364 451 300 451 c 0,25,26
 257 451 257 451 223.5 429.5 c 128,-1,27
 190 408 190 408 170 374 c 128,-1,28
 150 340 150 340 144 302 c 1,29,-1
 411 302 l 1,22,23
482 641 m 1,30,-1
 174 641 l 1,31,-1
 184 712 l 1,32,-1
 492 712 l 1,33,-1
 482 641 l 1,30,-1
EndSplineSet
EndChar

StartChar: Ebreve
Encoding: 276 276 213
Width: 625
GlyphClass: 2
Flags: W
AnchorPoint: "Anchor-5" -46 0 basechar 0
AnchorPoint: "Anchor-4" 296 0 basechar 0
AnchorPoint: "Anchor-3" 285 723 basechar 0
AnchorPoint: "Anchor-2" 511 10 basechar 0
LayerCount: 2
Fore
SplineSet
147 723 m 1,0,-1
 610 723 l 1,1,-1
 596 634 l 1,2,-1
 236 634 l 1,3,-1
 204 409 l 1,4,-1
 527 409 l 1,5,-1
 515 321 l 1,6,-1
 192 321 l 1,7,-1
 160 91 l 1,8,-1
 530 90 l 1,9,-1
 517 0 l 1,10,-1
 45 0 l 1,11,-1
 147 723 l 1,0,-1
505.5 849 m 128,-1,13
 459 817 459 817 400 817 c 0,14,15
 340 817 340 817 303.5 848 c 128,-1,16
 267 879 267 879 261 929 c 1,17,-1
 331 929 l 1,18,19
 355 876 355 876 408 876 c 0,20,21
 436 876 436 876 460.5 891.5 c 128,-1,22
 485 907 485 907 500 929 c 1,23,-1
 572 929 l 1,24,12
 552 881 552 881 505.5 849 c 128,-1,13
EndSplineSet
EndChar

StartChar: ebreve
Encoding: 277 277 214
Width: 558
GlyphClass: 2
Flags: W
AnchorPoint: "Anchor-5" -46 0 basechar 0
AnchorPoint: "Anchor-4" 234 0 basechar 0
AnchorPoint: "Anchor-3" 238 517 basechar 0
AnchorPoint: "Anchor-2" 346 21 basechar 0
LayerCount: 2
Fore
SplineSet
156 114.5 m 128,-1,1
 187 68 187 68 255 68 c 0,2,3
 350 68 350 68 388 144 c 1,4,-1
 479 134 l 1,5,6
 454 68 454 68 389 29 c 128,-1,7
 324 -10 324 -10 246 -10 c 0,8,9
 173 -10 173 -10 121 21.5 c 128,-1,10
 69 53 69 53 46 113 c 128,-1,11
 23 173 23 173 35 253 c 0,12,13
 46 334 46 334 83 396 c 128,-1,14
 120 458 120 458 179 492.5 c 128,-1,15
 238 527 238 527 312 527 c 0,16,17
 421 527 421 527 471 458 c 128,-1,18
 521 389 521 389 504 270 c 2,19,-1
 499 234 l 1,20,-1
 135 234 l 1,21,0
 125 161 125 161 156 114.5 c 128,-1,1
411 302 m 1,22,23
 420 368 420 368 392 409.5 c 128,-1,24
 364 451 364 451 300 451 c 0,25,26
 257 451 257 451 223.5 429.5 c 128,-1,27
 190 408 190 408 170 374 c 128,-1,28
 150 340 150 340 144 302 c 1,29,-1
 411 302 l 1,22,23
429.5 643 m 128,-1,31
 383 611 383 611 324 611 c 0,32,33
 264 611 264 611 227.5 642 c 128,-1,34
 191 673 191 673 185 723 c 1,35,-1
 255 723 l 1,36,37
 279 670 279 670 332 670 c 0,38,39
 360 670 360 670 384.5 685.5 c 128,-1,40
 409 701 409 701 424 723 c 1,41,-1
 496 723 l 1,42,30
 476 675 476 675 429.5 643 c 128,-1,31
EndSplineSet
EndChar

StartChar: Edotaccent
Encoding: 278 278 215
Width: 625
GlyphClass: 2
Flags: W
AnchorPoint: "Anchor-5" -46 0 basechar 0
AnchorPoint: "Anchor-4" 296 0 basechar 0
AnchorPoint: "Anchor-3" 285 723 basechar 0
AnchorPoint: "Anchor-2" 511 10 basechar 0
LayerCount: 2
Fore
SplineSet
147 723 m 1,0,-1
 610 723 l 1,1,-1
 596 634 l 1,2,-1
 236 634 l 1,3,-1
 204 409 l 1,4,-1
 527 409 l 1,5,-1
 515 321 l 1,6,-1
 192 321 l 1,7,-1
 160 91 l 1,8,-1
 530 90 l 1,9,-1
 517 0 l 1,10,-1
 45 0 l 1,11,-1
 147 723 l 1,0,-1
453 806 m 1,12,-1
 345 806 l 1,13,-1
 363 929 l 1,14,-1
 471 929 l 1,15,-1
 453 806 l 1,12,-1
EndSplineSet
EndChar

StartChar: edotaccent
Encoding: 279 279 216
Width: 558
GlyphClass: 2
Flags: W
AnchorPoint: "Anchor-5" -46 0 basechar 0
AnchorPoint: "Anchor-4" 234 0 basechar 0
AnchorPoint: "Anchor-3" 238 517 basechar 0
AnchorPoint: "Anchor-2" 346 21 basechar 0
LayerCount: 2
Fore
SplineSet
156 114.5 m 128,-1,1
 187 68 187 68 255 68 c 0,2,3
 350 68 350 68 388 144 c 1,4,-1
 479 134 l 1,5,6
 454 68 454 68 389 29 c 128,-1,7
 324 -10 324 -10 246 -10 c 0,8,9
 173 -10 173 -10 121 21.5 c 128,-1,10
 69 53 69 53 46 113 c 128,-1,11
 23 173 23 173 35 253 c 0,12,13
 46 334 46 334 83 396 c 128,-1,14
 120 458 120 458 179 492.5 c 128,-1,15
 238 527 238 527 312 527 c 0,16,17
 421 527 421 527 471 458 c 128,-1,18
 521 389 521 389 504 270 c 2,19,-1
 499 234 l 1,20,-1
 135 234 l 1,21,0
 125 161 125 161 156 114.5 c 128,-1,1
411 302 m 1,22,23
 420 368 420 368 392 409.5 c 128,-1,24
 364 451 364 451 300 451 c 0,25,26
 257 451 257 451 223.5 429.5 c 128,-1,27
 190 408 190 408 170 374 c 128,-1,28
 150 340 150 340 144 302 c 1,29,-1
 411 302 l 1,22,23
377 600 m 1,30,-1
 269 600 l 1,31,-1
 287 723 l 1,32,-1
 395 723 l 1,33,-1
 377 600 l 1,30,-1
EndSplineSet
EndChar

StartChar: Eogonek
Encoding: 280 280 217
Width: 625
GlyphClass: 2
Flags: W
AnchorPoint: "Anchor-5" -46 0 basechar 0
AnchorPoint: "Anchor-4" 296 0 basechar 0
AnchorPoint: "Anchor-3" 285 723 basechar 0
AnchorPoint: "Anchor-2" 511 10 basechar 0
LayerCount: 2
Fore
SplineSet
147 723 m 1,0,-1
 610 723 l 1,1,-1
 596 634 l 1,2,-1
 236 634 l 1,3,-1
 204 409 l 1,4,-1
 527 409 l 1,5,-1
 515 321 l 1,6,-1
 192 321 l 1,7,-1
 160 91 l 1,8,-1
 530 90 l 1,9,-1
 517 0 l 1,10,-1
 45 0 l 1,11,-1
 147 723 l 1,0,-1
365.5 -33 m 128,-1,13
 391 -10 391 -10 450 8 c 1,14,-1
 524 3 l 1,15,16
 469 -18 469 -18 444.5 -36.5 c 128,-1,17
 420 -55 420 -55 417 -78 c 0,18,19
 414 -96 414 -96 423.5 -105 c 128,-1,20
 433 -114 433 -114 456 -114 c 0,21,22
 488 -114 488 -114 518 -100 c 0,23,24
 521 -98 521 -98 525 -98 c 0,25,26
 530 -98 530 -98 529 -106 c 2,27,-1
 525 -138 l 2,28,29
 524 -146 524 -146 516 -150 c 0,30,31
 502 -157 502 -157 477 -162 c 128,-1,32
 452 -167 452 -167 426 -167 c 0,33,34
 377 -167 377 -167 354 -146 c 128,-1,35
 331 -125 331 -125 336 -88 c 0,36,12
 340 -56 340 -56 365.5 -33 c 128,-1,13
EndSplineSet
EndChar

StartChar: eogonek
Encoding: 281 281 218
Width: 558
GlyphClass: 2
Flags: W
AnchorPoint: "Anchor-5" -46 0 basechar 0
AnchorPoint: "Anchor-4" 234 0 basechar 0
AnchorPoint: "Anchor-3" 238 517 basechar 0
AnchorPoint: "Anchor-2" 346 21 basechar 0
LayerCount: 2
Fore
SplineSet
156 114.5 m 128,-1,1
 187 68 187 68 255 68 c 0,2,3
 350 68 350 68 388 144 c 1,4,-1
 479 134 l 1,5,6
 454 68 454 68 389 29 c 128,-1,7
 324 -10 324 -10 246 -10 c 0,8,9
 173 -10 173 -10 121 21.5 c 128,-1,10
 69 53 69 53 46 113 c 128,-1,11
 23 173 23 173 35 253 c 0,12,13
 46 334 46 334 83 396 c 128,-1,14
 120 458 120 458 179 492.5 c 128,-1,15
 238 527 238 527 312 527 c 0,16,17
 421 527 421 527 471 458 c 128,-1,18
 521 389 521 389 504 270 c 2,19,-1
 499 234 l 1,20,-1
 135 234 l 1,21,0
 125 161 125 161 156 114.5 c 128,-1,1
411 302 m 1,22,23
 420 368 420 368 392 409.5 c 128,-1,24
 364 451 364 451 300 451 c 0,25,26
 257 451 257 451 223.5 429.5 c 128,-1,27
 190 408 190 408 170 374 c 128,-1,28
 150 340 150 340 144 302 c 1,29,-1
 411 302 l 1,22,23
201.5 -22 m 128,-1,31
 227 1 227 1 286 19 c 1,32,-1
 360 14 l 1,33,34
 305 -7 305 -7 280.5 -25.5 c 128,-1,35
 256 -44 256 -44 253 -67 c 0,36,37
 250 -85 250 -85 259.5 -94 c 128,-1,38
 269 -103 269 -103 292 -103 c 0,39,40
 324 -103 324 -103 354 -89 c 0,41,42
 357 -87 357 -87 361 -87 c 0,43,44
 366 -87 366 -87 365 -95 c 2,45,-1
 361 -127 l 2,46,47
 360 -135 360 -135 352 -139 c 0,48,49
 338 -146 338 -146 313 -151 c 128,-1,50
 288 -156 288 -156 262 -156 c 0,51,52
 213 -156 213 -156 190 -135 c 128,-1,53
 167 -114 167 -114 172 -77 c 0,54,30
 176 -45 176 -45 201.5 -22 c 128,-1,31
EndSplineSet
EndChar

StartChar: Ecaron
Encoding: 282 282 219
Width: 625
GlyphClass: 2
Flags: W
AnchorPoint: "Anchor-5" -46 0 basechar 0
AnchorPoint: "Anchor-4" 296 0 basechar 0
AnchorPoint: "Anchor-3" 285 723 basechar 0
AnchorPoint: "Anchor-2" 511 10 basechar 0
LayerCount: 2
Fore
SplineSet
147 723 m 1,0,-1
 610 723 l 1,1,-1
 596 634 l 1,2,-1
 236 634 l 1,3,-1
 204 409 l 1,4,-1
 527 409 l 1,5,-1
 515 321 l 1,6,-1
 192 321 l 1,7,-1
 160 91 l 1,8,-1
 530 90 l 1,9,-1
 517 0 l 1,10,-1
 45 0 l 1,11,-1
 147 723 l 1,0,-1
577 929 m 1,12,-1
 436 810 l 1,13,-1
 363 810 l 1,14,-1
 253 929 l 1,15,-1
 340 929 l 1,16,-1
 405 860 l 1,17,-1
 485 929 l 1,18,-1
 577 929 l 1,12,-1
EndSplineSet
EndChar

StartChar: ecaron
Encoding: 283 283 220
Width: 558
GlyphClass: 2
Flags: W
AnchorPoint: "Anchor-5" -46 0 basechar 0
AnchorPoint: "Anchor-4" 234 0 basechar 0
AnchorPoint: "Anchor-3" 238 517 basechar 0
AnchorPoint: "Anchor-2" 346 21 basechar 0
LayerCount: 2
Fore
SplineSet
156 114.5 m 128,-1,1
 187 68 187 68 255 68 c 0,2,3
 350 68 350 68 388 144 c 1,4,-1
 479 134 l 1,5,6
 454 68 454 68 389 29 c 128,-1,7
 324 -10 324 -10 246 -10 c 0,8,9
 173 -10 173 -10 121 21.5 c 128,-1,10
 69 53 69 53 46 113 c 128,-1,11
 23 173 23 173 35 253 c 0,12,13
 46 334 46 334 83 396 c 128,-1,14
 120 458 120 458 179 492.5 c 128,-1,15
 238 527 238 527 312 527 c 0,16,17
 421 527 421 527 471 458 c 128,-1,18
 521 389 521 389 504 270 c 2,19,-1
 499 234 l 1,20,-1
 135 234 l 1,21,0
 125 161 125 161 156 114.5 c 128,-1,1
411 302 m 1,22,23
 420 368 420 368 392 409.5 c 128,-1,24
 364 451 364 451 300 451 c 0,25,26
 257 451 257 451 223.5 429.5 c 128,-1,27
 190 408 190 408 170 374 c 128,-1,28
 150 340 150 340 144 302 c 1,29,-1
 411 302 l 1,22,23
501 723 m 1,30,-1
 360 604 l 1,31,-1
 287 604 l 1,32,-1
 177 723 l 1,33,-1
 264 723 l 1,34,-1
 329 654 l 1,35,-1
 409 723 l 1,36,-1
 501 723 l 1,30,-1
EndSplineSet
EndChar

StartChar: Gcircumflex
Encoding: 284 284 221
Width: 732
GlyphClass: 2
Flags: W
AnchorPoint: "Anchor-5" -46 0 basechar 0
AnchorPoint: "Anchor-4" 319 0 basechar 0
AnchorPoint: "Anchor-3" 316 723 basechar 0
AnchorPoint: "Anchor-2" -46 0 basechar 0
LayerCount: 2
Fore
SplineSet
154 35 m 128,-1,1
 90 80 90 80 64.5 163 c 128,-1,2
 39 246 39 246 54 359 c 0,3,4
 70 474 70 474 121 558.5 c 128,-1,5
 172 643 172 643 250 688 c 128,-1,6
 328 733 328 733 423 733 c 0,7,8
 496 733 496 733 553.5 702 c 128,-1,9
 611 671 611 671 641.5 619.5 c 128,-1,10
 672 568 672 568 667 510 c 1,11,-1
 557 505 l 1,12,13
 553 565 553 565 513 604 c 128,-1,14
 473 643 473 643 408 643 c 0,15,16
 313 643 313 643 249 572 c 128,-1,17
 185 501 185 501 166 365 c 0,18,19
 146 221 146 221 192 151.5 c 128,-1,20
 238 82 238 82 333 82 c 0,21,22
 387 82 387 82 428.5 106 c 128,-1,23
 470 130 470 130 496.5 166.5 c 128,-1,24
 523 203 523 203 531 240 c 2,25,-1
 542 301 l 1,26,-1
 371 301 l 1,27,-1
 382 375 l 1,28,-1
 660 374 l 1,29,-1
 607 0 l 1,30,-1
 531 0 l 1,31,-1
 546 107 l 1,32,33
 458 -10 458 -10 313 -10 c 0,34,0
 218 -10 218 -10 154 35 c 128,-1,1
439 883 m 1,35,-1
 355 815 l 1,36,-1
 268 815 l 1,37,-1
 411 933 l 1,38,-1
 484 933 l 1,39,-1
 592 815 l 1,40,-1
 500 815 l 1,41,-1
 439 883 l 1,35,-1
EndSplineSet
EndChar

StartChar: gcircumflex
Encoding: 285 285 222
Width: 609
GlyphClass: 2
Flags: W
AnchorPoint: "Anchor-5" -46 0 basechar 0
AnchorPoint: "Anchor-4" -46 0 basechar 0
AnchorPoint: "Anchor-3" 253 517 basechar 0
AnchorPoint: "Anchor-2" -46 0 basechar 0
LayerCount: 2
Fore
SplineSet
36 -134.5 m 128,-1,1
 -27 -98 -27 -98 -18 -37 c 0,2,3
 -12 3 -12 3 16.5 26 c 128,-1,4
 45 49 45 49 68 59.5 c 128,-1,5
 91 70 91 70 95 73 c 1,6,7
 92 75 92 75 78 83.5 c 128,-1,8
 64 92 64 92 55.5 106.5 c 128,-1,9
 47 121 47 121 50 140 c 0,10,11
 54 166 54 166 81 186.5 c 128,-1,12
 108 207 108 207 154 217 c 1,13,14
 63 265 63 265 77 362 c 0,15,16
 88 438 88 438 157.5 481.5 c 128,-1,17
 227 525 227 525 329 525 c 0,18,19
 378 525 378 525 411 514 c 128,-1,20
 444 503 444 503 472 481 c 1,21,22
 495 491 495 491 536 506 c 2,23,-1
 614 537 l 1,24,-1
 602 446 l 1,25,-1
 509 429 l 1,26,27
 513 415 513 415 515.5 395 c 128,-1,28
 518 375 518 375 516 362 c 0,29,30
 510 317 510 317 480 279.5 c 128,-1,31
 450 242 450 242 397.5 219.5 c 128,-1,32
 345 197 345 197 274 197 c 2,33,-1
 239 198 l 2,34,35
 194 197 194 197 172.5 188 c 128,-1,36
 151 179 151 179 149 166 c 0,37,38
 147 152 147 152 167 147 c 128,-1,39
 187 142 187 142 242 138 c 2,40,-1
 353 131 l 2,41,42
 439 126 439 126 476.5 88.5 c 128,-1,43
 514 51 514 51 506 -10 c 0,44,45
 495 -85 495 -85 421.5 -128 c 128,-1,46
 348 -171 348 -171 225 -171 c 0,47,0
 99 -171 99 -171 36 -134.5 c 128,-1,1
377 286.5 m 128,-1,49
 411 312 411 312 418 360 c 0,50,51
 425 409 425 409 397.5 436.5 c 128,-1,52
 370 464 370 464 314 464 c 128,-1,53
 258 464 258 464 222 436 c 128,-1,54
 186 408 186 408 180 360 c 0,55,56
 173 313 173 313 201 287 c 128,-1,57
 229 261 229 261 286 261 c 128,-1,48
 343 261 343 261 377 286.5 c 128,-1,49
361.5 -88 m 128,-1,59
 398 -68 398 -68 404 -26 c 0,60,61
 413 38 413 38 323 44 c 2,62,-1
 184 53 l 2,63,64
 164 54 164 54 142 44 c 128,-1,65
 120 34 120 34 104 15.5 c 128,-1,66
 88 -3 88 -3 84 -25 c 0,67,68
 72 -108 72 -108 252 -108 c 0,69,58
 325 -108 325 -108 361.5 -88 c 128,-1,59
347 677 m 1,70,-1
 263 609 l 1,71,-1
 176 609 l 1,72,-1
 319 727 l 1,73,-1
 392 727 l 1,74,-1
 500 609 l 1,75,-1
 408 609 l 1,76,-1
 347 677 l 1,70,-1
EndSplineSet
EndChar

StartChar: Gbreve
Encoding: 286 286 223
Width: 732
GlyphClass: 2
Flags: W
AnchorPoint: "Anchor-5" -46 0 basechar 0
AnchorPoint: "Anchor-4" 319 0 basechar 0
AnchorPoint: "Anchor-3" 316 723 basechar 0
AnchorPoint: "Anchor-2" -46 0 basechar 0
LayerCount: 2
Fore
SplineSet
154 35 m 128,-1,1
 90 80 90 80 64.5 163 c 128,-1,2
 39 246 39 246 54 359 c 0,3,4
 70 474 70 474 121 558.5 c 128,-1,5
 172 643 172 643 250 688 c 128,-1,6
 328 733 328 733 423 733 c 0,7,8
 496 733 496 733 553.5 702 c 128,-1,9
 611 671 611 671 641.5 619.5 c 128,-1,10
 672 568 672 568 667 510 c 1,11,-1
 557 505 l 1,12,13
 553 565 553 565 513 604 c 128,-1,14
 473 643 473 643 408 643 c 0,15,16
 313 643 313 643 249 572 c 128,-1,17
 185 501 185 501 166 365 c 0,18,19
 146 221 146 221 192 151.5 c 128,-1,20
 238 82 238 82 333 82 c 0,21,22
 387 82 387 82 428.5 106 c 128,-1,23
 470 130 470 130 496.5 166.5 c 128,-1,24
 523 203 523 203 531 240 c 2,25,-1
 542 301 l 1,26,-1
 371 301 l 1,27,-1
 382 375 l 1,28,-1
 660 374 l 1,29,-1
 607 0 l 1,30,-1
 531 0 l 1,31,-1
 546 107 l 1,32,33
 458 -10 458 -10 313 -10 c 0,34,0
 218 -10 218 -10 154 35 c 128,-1,1
536.5 849 m 128,-1,36
 490 817 490 817 431 817 c 0,37,38
 371 817 371 817 334.5 848 c 128,-1,39
 298 879 298 879 292 929 c 1,40,-1
 362 929 l 1,41,42
 386 876 386 876 439 876 c 0,43,44
 467 876 467 876 491.5 891.5 c 128,-1,45
 516 907 516 907 531 929 c 1,46,-1
 603 929 l 1,47,35
 583 881 583 881 536.5 849 c 128,-1,36
EndSplineSet
EndChar

StartChar: gbreve
Encoding: 287 287 224
Width: 609
GlyphClass: 2
Flags: W
AnchorPoint: "Anchor-5" -46 0 basechar 0
AnchorPoint: "Anchor-4" -46 0 basechar 0
AnchorPoint: "Anchor-3" 253 517 basechar 0
AnchorPoint: "Anchor-2" -46 0 basechar 0
LayerCount: 2
Fore
SplineSet
36 -134.5 m 128,-1,1
 -27 -98 -27 -98 -18 -37 c 0,2,3
 -12 3 -12 3 16.5 26 c 128,-1,4
 45 49 45 49 68 59.5 c 128,-1,5
 91 70 91 70 95 73 c 1,6,7
 92 75 92 75 78 83.5 c 128,-1,8
 64 92 64 92 55.5 106.5 c 128,-1,9
 47 121 47 121 50 140 c 0,10,11
 54 166 54 166 81 186.5 c 128,-1,12
 108 207 108 207 154 217 c 1,13,14
 63 265 63 265 77 362 c 0,15,16
 88 438 88 438 157.5 481.5 c 128,-1,17
 227 525 227 525 329 525 c 0,18,19
 378 525 378 525 411 514 c 128,-1,20
 444 503 444 503 472 481 c 1,21,22
 495 491 495 491 536 506 c 2,23,-1
 614 537 l 1,24,-1
 602 446 l 1,25,-1
 509 429 l 1,26,27
 513 415 513 415 515.5 395 c 128,-1,28
 518 375 518 375 516 362 c 0,29,30
 510 317 510 317 480 279.5 c 128,-1,31
 450 242 450 242 397.5 219.5 c 128,-1,32
 345 197 345 197 274 197 c 2,33,-1
 239 198 l 2,34,35
 194 197 194 197 172.5 188 c 128,-1,36
 151 179 151 179 149 166 c 0,37,38
 147 152 147 152 167 147 c 128,-1,39
 187 142 187 142 242 138 c 2,40,-1
 353 131 l 2,41,42
 439 126 439 126 476.5 88.5 c 128,-1,43
 514 51 514 51 506 -10 c 0,44,45
 495 -85 495 -85 421.5 -128 c 128,-1,46
 348 -171 348 -171 225 -171 c 0,47,0
 99 -171 99 -171 36 -134.5 c 128,-1,1
377 286.5 m 128,-1,49
 411 312 411 312 418 360 c 0,50,51
 425 409 425 409 397.5 436.5 c 128,-1,52
 370 464 370 464 314 464 c 128,-1,53
 258 464 258 464 222 436 c 128,-1,54
 186 408 186 408 180 360 c 0,55,56
 173 313 173 313 201 287 c 128,-1,57
 229 261 229 261 286 261 c 128,-1,48
 343 261 343 261 377 286.5 c 128,-1,49
361.5 -88 m 128,-1,59
 398 -68 398 -68 404 -26 c 0,60,61
 413 38 413 38 323 44 c 2,62,-1
 184 53 l 2,63,64
 164 54 164 54 142 44 c 128,-1,65
 120 34 120 34 104 15.5 c 128,-1,66
 88 -3 88 -3 84 -25 c 0,67,68
 72 -108 72 -108 252 -108 c 0,69,58
 325 -108 325 -108 361.5 -88 c 128,-1,59
444.5 643 m 128,-1,71
 398 611 398 611 339 611 c 0,72,73
 279 611 279 611 242.5 642 c 128,-1,74
 206 673 206 673 200 723 c 1,75,-1
 270 723 l 1,76,77
 294 670 294 670 347 670 c 0,78,79
 375 670 375 670 399.5 685.5 c 128,-1,80
 424 701 424 701 439 723 c 1,81,-1
 511 723 l 1,82,70
 491 675 491 675 444.5 643 c 128,-1,71
EndSplineSet
EndChar

StartChar: Gdotaccent
Encoding: 288 288 225
Width: 732
GlyphClass: 2
Flags: W
AnchorPoint: "Anchor-5" -46 0 basechar 0
AnchorPoint: "Anchor-4" 319 0 basechar 0
AnchorPoint: "Anchor-3" 316 723 basechar 0
AnchorPoint: "Anchor-2" -46 0 basechar 0
LayerCount: 2
Fore
SplineSet
154 35 m 128,-1,1
 90 80 90 80 64.5 163 c 128,-1,2
 39 246 39 246 54 359 c 0,3,4
 70 474 70 474 121 558.5 c 128,-1,5
 172 643 172 643 250 688 c 128,-1,6
 328 733 328 733 423 733 c 0,7,8
 496 733 496 733 553.5 702 c 128,-1,9
 611 671 611 671 641.5 619.5 c 128,-1,10
 672 568 672 568 667 510 c 1,11,-1
 557 505 l 1,12,13
 553 565 553 565 513 604 c 128,-1,14
 473 643 473 643 408 643 c 0,15,16
 313 643 313 643 249 572 c 128,-1,17
 185 501 185 501 166 365 c 0,18,19
 146 221 146 221 192 151.5 c 128,-1,20
 238 82 238 82 333 82 c 0,21,22
 387 82 387 82 428.5 106 c 128,-1,23
 470 130 470 130 496.5 166.5 c 128,-1,24
 523 203 523 203 531 240 c 2,25,-1
 542 301 l 1,26,-1
 371 301 l 1,27,-1
 382 375 l 1,28,-1
 660 374 l 1,29,-1
 607 0 l 1,30,-1
 531 0 l 1,31,-1
 546 107 l 1,32,33
 458 -10 458 -10 313 -10 c 0,34,0
 218 -10 218 -10 154 35 c 128,-1,1
484 806 m 1,35,-1
 376 806 l 1,36,-1
 394 929 l 1,37,-1
 502 929 l 1,38,-1
 484 806 l 1,35,-1
EndSplineSet
EndChar

